<svg xmlns="http://www.w3.org/2000/svg" viewBox="0 0 97.79 139"><title>baby</title><g id="Layer_2" data-name="Layer 2"><g id="Layer_1-2" data-name="Layer 1"><path d="M97.73,81A46.85,46.85,0,0,0,95.39,66.5a49.78,49.78,0,0,0-6.94-13.74l1.24-.7a16.26,16.26,0,0,0-4.9-30,2.88,2.88,0,0,1-2.26-1.73A37.55,37.55,0,0,0,57.63,1.05c-1.72-.42-3.48-.7-5.21-1h-7.6c-1,.6-2.15.48-3.22.71Q23.53,4.63,14.93,21a1.62,1.62,0,0,1-1.28,1,16.21,16.21,0,0,0-5.43,30.1c1.08.61.94,1,.34,1.82a48.36,48.36,0,0,0-8,20.62c-.8,5.5-.45,11-.47,16.53a43.62,43.62,0,0,0,1.48,11.13,48.79,48.79,0,0,0,72.28,29.89c13.3-7.93,21.07-19.83,23.43-35.2C98.06,91.61,97.71,86.31,97.73,81ZM10.91,37.43a5.43,5.43,0,0,1,5.18-4.84c1.63-.06,3.26-.07,4.88,0a1.2,1.2,0,0,0,1.4-1,29.13,29.13,0,0,1,7.36-12.77A26.94,26.94,0,0,1,48.6,10.87a5.42,5.42,0,0,1,5.7,4.88,5.36,5.36,0,0,1-4.49,5.85c-.88.16-.94.5-.94,1.2,0,2.85.09,5.7,0,8.55,0,1.2.44,1.28,1.39,1.2a16.46,16.46,0,0,0,14.9-15.07c0-.31,0-.62.07-1.13A27.87,27.87,0,0,1,75,30.29c.75,2.3.79,2.28,3.2,2.28,1.13,0,2.26,0,3.39,0a5.42,5.42,0,0,1,0,10.84,37.19,37.19,0,0,1-4.48,0c-1.15-.11-1.56.38-1.86,1.38a28.78,28.78,0,0,1-6.8,12,27.19,27.19,0,0,1-45.08-9.47c-.47-1.27-.6-3-1.51-3.66s-2.69-.19-4.09-.23a11,11,0,0,1-3-.22A5.44,5.44,0,0,1,10.91,37.43Zm1,35.14a37.62,37.62,0,0,1,5.15-12c.38-.58.59-1,1.18-.14a37.29,37.29,0,0,0,9.29,9A47.09,47.09,0,0,0,10.92,81.62,34.78,34.78,0,0,1,12,72.57ZM86.39,96.2a38,38,0,0,1-73.49,6.2,3.83,3.83,0,0,1,0-2.73c4.49-12.34,13.48-19.49,26-22.56A37.38,37.38,0,0,1,47.78,76C61,76,71.65,70.83,79.66,60.28a5.88,5.88,0,0,1,.42-.48,35,35,0,0,1,4.6,8.89,35.93,35.93,0,0,1,2.2,12.61C86.82,86.27,87.17,91.25,86.39,96.2Z"/></g></g></svg>