<svg xmlns="http://www.w3.org/2000/svg" viewBox="0 0 139.11 130.12"><title>chapeu</title><g id="Layer_2" data-name="Layer 2"><g id="Layer_1-2" data-name="Layer 1"><path d="M138.89,68.8A28.53,28.53,0,0,0,130,48.35c-2.62-2.54-5.83-4.25-8.83-6.25a1.71,1.71,0,0,0-2.34,0Q104.17,52.59,89.41,63c-.26.19-.46.6-.94.37,0-5.19,0-10.4,0-15.6a1.28,1.28,0,0,1,.79-1.24c3-1.77,6-3.57,8.94-5.35l13.19-7.93-.86-.56Q83.57,16.49,56.65.29a1.72,1.72,0,0,0-2.06.13Q28,16.43,1.3,32.4c-.41.24-.75.66-1.3.62v.27c.41-.06.64.28.94.45,7,4.18,13.92,8.38,20.91,12.52a2,2,0,0,1,1.15,2c0,9.36,0,18.72,0,28.09a2.52,2.52,0,0,0,.4,1.79,48.08,48.08,0,0,0,9.41,9.33,52.59,52.59,0,0,0,6.75,3.93L38.41,92Q32.22,95.19,26,98.37c-.51.26-.89.47-.9,1.16a37.85,37.85,0,0,0,.55,9.45c2.25,10.06,8.27,16.92,17.7,20.93a1.84,1.84,0,0,0,2.07-.25q15.41-11,30.85-21.87l6.26-4.4c-.25,2.94-.44,5.63-.73,8.3-.09.85.11,1.1,1,1.14,1.94.1,3.88.26,5.81.5,1,.13,1.41-.11,1.48-1.19.24-3.61.62-7.21.85-10.82.07-1,.3-1.09,1.19-.76,3.68,1.35,7.41,2.59,11.08,4,.88.33,1.25.27,1.54-.67.58-1.84,1.24-3.67,1.94-5.48.34-.87.28-1.28-.74-1.6C103.36,96,100.85,95,98.17,94l1.12-.6q18-9.21,36-18.42c1.23-.63,2.92-1,3.51-2.08S138.93,70.2,138.89,68.8ZM17.2,34,16,33.17C29.06,25.3,42,17.53,55,9.74a1.21,1.21,0,0,1,1.46,0Q75.74,21.34,95.06,32.92c.08,0,.14.12.23.19-.11.45-.54.53-.86.71Q75.76,45.06,57.09,56.28a2.28,2.28,0,0,1-2.77,0Q35.8,45.06,17.2,34ZM31.75,75.44A2.13,2.13,0,0,1,31.16,74c0-7.27,0-14.55,0-22.11L44,59.56c3.6,2.16,7.21,4.3,10.78,6.49a1.59,1.59,0,0,0,1.93,0Q67.8,59.32,79,52.65c.37-.22.76-.41,1.32-.72v8.38c0,2.62,0,5.24,0,7.87a2.23,2.23,0,0,1-1,2c-5,3.91-10.8,6.34-16.33,9.25-4,2.1-8,4.1-12,6.19a2.93,2.93,0,0,1-2.2.27A31.3,31.3,0,0,1,31.75,75.44ZM81,94.44c-6,4.16-11.87,8.38-17.81,12.58q-9.39,6.65-18.79,13.31c-.54.38-.94.61-1.64.15A20.17,20.17,0,0,1,33.34,105a1.45,1.45,0,0,1,.91-1.68Q54.13,93.19,74,83c.32-.17.65-.32,1-.48.38.12.46.5.63.79,1.93,3.15,3.82,6.33,5.78,9.47C81.86,93.55,81.81,93.9,81,94.44Zm48.71-25.79Q109.81,78.82,89.9,89.06c-.77.4-1.09.3-1.53-.44q-2.81-4.78-5.75-9.49c-.48-.77-.33-1.11.34-1.59q18.27-12.89,36.52-25.8c.39-.28.69-.56,1.29-.23,5.21,2.82,9.6,9.8,9.83,15.83C130.84,68,130.37,68.33,129.74,68.65Z"/></g></g></svg>