<svg xmlns="http://www.w3.org/2000/svg" viewBox="0 0 130.68 130.68"><defs><style>.cls-1{fill:none;stroke:#000;stroke-miterlimit:10;stroke-width:9px;}</style></defs><title>cruz</title><g id="Layer_2" data-name="Layer 2"><g id="Layer_1-2" data-name="Layer 1"><path class="cls-1" d="M65.42,4.53c7.6,0,15.2,0,22.8,0,1.17,0,1.51.25,1.5,1.47,0,11.13,0,22.26-.06,33.39,0,1.27.25,1.67,1.6,1.66,11.13-.06,22.26,0,33.39-.06,1.12,0,1.53.17,1.53,1.45q-.08,22.94,0,45.87c0,1.11-.25,1.44-1.4,1.43-11.17,0-22.35,0-33.52,0-1.19,0-1.6.24-1.59,1.53,0,11.13,0,22.26,0,33.39,0,1.17-.19,1.6-1.51,1.6q-22.87-.09-45.74,0c-1.17,0-1.51-.25-1.5-1.47,0-11.13,0-22.26.06-33.39,0-1.27-.25-1.67-1.61-1.66-11.12.06-22.25,0-33.38.06-1.12,0-1.53-.17-1.53-1.45q.07-22.94,0-45.87c0-1.11.25-1.44,1.4-1.43,11.17,0,22.35,0,33.52,0,1.19,0,1.6-.24,1.59-1.53C41,28.4,41,17.31,41,6.23c0-1.48.45-1.74,1.8-1.73C50.31,4.56,57.86,4.53,65.42,4.53Z"/></g></g></svg>