<?xml version="1.0" encoding="UTF-8"?>
<svg id="Layer_2" data-name="Layer 2" xmlns="http://www.w3.org/2000/svg" viewBox="0 0 79.95 78.66">
  <defs>
    <style>
      .cls-1 {
        fill: #ffdbe9;
      }
    </style>
  </defs>
  <g id="traço">
    <g>
      <path class="cls-1" d="M75.51,47.89c-1.23,17.67-15.63,24.92-35.28,25.72-18.14.74-36.14-13.95-36.14-32.11S20.87,4.93,39.03,4.93c21.56,0,37.94,22,36.48,42.97Z"/>
      <path class="cls-1" d="M61.09,6.31c16.73,12.05,25.27,39.22,13.19,57.16-9.82,13.71-29.16,18.26-44.78,13.15,8.91,2.78,18.85,2.42,27.42-1.26,8.56-3.6,15.07-10.73,18.71-19.12,6.97-17.18-.25-38.57-14.54-49.93h0Z"/>
      <path class="cls-1" d="M8.98,62.47C.54,52.31-2.77,38.05,2.63,25.6c1.64-3.74,3.79-7.26,6.38-10.42,3.34-3.86,7.49-6.93,11.87-9.5C29.65.82,40.18-1.53,50,1.08,33.58-2.02,17.52,7.17,7.96,20.06-1.86,33.28-.72,49.45,8.98,62.47h0Z"/>
    </g>
  </g>
</svg>