<svg xmlns="http://www.w3.org/2000/svg" viewBox="0 0 138.98 126.9"><title>livro</title><g id="Layer_2" data-name="Layer 2"><g id="Layer_1-2" data-name="Layer 1"><path d="M136,18.57a81.84,81.84,0,0,0-8.53-3.46c-4-1.26-4-1.25-4-5.4,0-.36,0-.72,0-1.08-.1-4.16-1.24-5.66-5.24-6.72A52.5,52.5,0,0,0,96.56.58c-8.34,1.27-16.1,4-22.87,9.13-4.07,3.1-4,3-8,.06C52.71.48,38.35-1.86,22.94,1.47c-6.44,1.39-7.09,2.32-7.16,9,0,.37,0,.73,0,1.09a2.75,2.75,0,0,1-2.35,3.1A80.07,80.07,0,0,0,4.3,18.07C1.22,19.29,0,21.26,0,24.68c.11,32,.06,64.06.06,96.09,0,.63,0,1.26,0,1.89.21,2.83,2,4.38,4.87,4.2a10.28,10.28,0,0,0,2.38-.49c18.54-5.77,37.19-5.35,55.83-.72a25.27,25.27,0,0,0,13,0,108.47,108.47,0,0,1,39.72-2.79,116.37,116.37,0,0,1,16.91,3.68c3.46.92,5,.15,6.22-2.87V21.84A4.89,4.89,0,0,0,136,18.57ZM8.45,116.78v-3.15c0-28.15,0-56.31-.06-84.47,0-2.41.46-3.85,2.95-4.4A53.08,53.08,0,0,0,16.57,23v78c0,5.61,1.55,6.71,7.18,5.56,12.34-2.54,23.18,1.3,33.31,8.18C40.79,112.32,24.65,112.26,8.45,116.78Zm57.14-9.7v3.31C53.17,101.52,40.11,96.22,24.7,98.05V95.4q0-41.41,0-82.82c0-1.23-.52-2.57,1.66-2.88,11.11-1.6,21.73-.55,31.52,5.41A19.8,19.8,0,0,1,62.4,19a12.11,12.11,0,0,1,3.26,8.54C65.53,54,65.59,80.55,65.59,107.08Zm8.58,3c-.83-.59-.43-1.47-.43-2.19,0-27.25,0-54.5,0-81.75,0-4,2.28-6.57,4.94-8.88,5.66-4.91,12.58-6.81,19.81-7.81a45.9,45.9,0,0,1,14.28.21c1.31.23,1.93.62,1.93,2.18q-.09,42.5-.05,85a9.86,9.86,0,0,1-.17,1.3C102.63,96.44,89,99.45,74.17,110Zm56.69-82.47v89.17c-16.35-4.46-32.62-4.47-49.36-1.5,9.43-7.32,23.27-11.25,34.16-8.64,5.46,1.3,7.07,0,7.07-5.66V23.19a40.45,40.45,0,0,1,7,2.28C131,25.88,130.86,26.68,130.86,27.57Z"/></g></g></svg>