<?xml version="1.0" encoding="UTF-8"?>
<svg id="Layer_2" data-name="Layer 2" xmlns="http://www.w3.org/2000/svg" viewBox="0 0 358.92 84.52">
  <defs>
    <style>
      .cls-1 {
        fill: #fff;
      }

      .cls-2, .cls-3 {
        fill: #bc155b;
      }

      .cls-3 {
        font-family: Diphylleia-Regular, 'Diphylleia Regular';
        font-size: 24.41px;
      }

      .cls-4 {
        fill: #8c1043;
      }

      .cls-5 {
        fill: #ff5c9c;
      }
    </style>
  </defs>
  <g id="traço">
    <g>
      <g>
        <g>
          <path class="cls-1" d="M73.58,46.71c-1.17,17.14-15.19,24.23-34.29,24.96-17.63.73-35.12-13.53-35.12-31.16S20.49,5,38.12,5c20.95,0,36.87,21.34,35.46,41.71h0Z"/>
          <path class="cls-1" d="M59.31,6.17c18.12,12.94,26.33,44.59,8.16,60.81-10.45,9.18-25.79,11.77-38.83,7.52,15.82,5.03,34.29-.59,42.59-15.38,10.35-16.75,3.08-41.27-11.92-52.94h0Z"/>
          <path class="cls-1" d="M8.71,60.72C-.27,49.78-3.01,34.93,3.83,22.24c1.86-3.52,4.1-6.84,6.94-9.62,2.83-2.74,6.06-5.13,9.48-7.08C28.74.75,39.04-1.5,48.52,1.09,33.18-1.94,17.8,6.51,8.57,18.38c-10.45,12.99-9.62,29.26.15,42.35h0Z"/>
        </g>
        <g>
          <path class="cls-4" d="M20.97,38.74s1.22-1.07,4.88,3.57c3.66,4.64,6.84,2.3,6.84,2.3l-4.54,4.88-4.2-3.37-2.98-7.37h0Z"/>
          <path class="cls-4" d="M19.12,37.87s1.22-.73,4.05,2.69c2.78,3.37,3.27,5.37,5.71,4.88,2.49-.44-.54,2.49-.54,2.49l-5.42-4-3.66-4.54-.15-1.51h0Z"/>
          <path id="baby" class="cls-5" d="M22.29,39.87c-2.93-.88-5.57-3.27-6.69-7.23-1.37-4.88,1.51-8.16,3.52-9.87,1.66-1.42,5.47-2.64,7.57-2.25,1.51.29,3.91,1.37,4.79,4.59.73,2.59.73,2.64,1.51,2.98,1.22.49,2.05,4.1.54,6.89-1.37,2.44-.05,2.74,1.47,2.54,4-.44,6.2-9.82,9.82-7.72,2.98,1.71-.2,6.64-2,9.48-2.59,4.05,2.39,2.88,3.86.93,2.05-2.78,4.79-5.67,8.06-4.59,2.74.93,3.91,6.59,4.05,7.86.24,2.34,3.03,1.32,3.52,4.1.49,2.59-1.22,4.64-7.28,2.54-1.71-.59-1.47-2.64-2-4.25-.54-1.66-3.17,7.08-7.37,8.25-5.42,1.51-10.75-1.61-15.43-3.47-3.13-1.27-5.71-5.23-6.06-7.86-.2-1.9.1-2.3-1.86-2.93Z"/>
          <path class="cls-2" d="M58.97,54.37c-.39.39-2.05,1.51-4.05.73-1.95-.78-3.17-.78-4.15-.54-2.2.44-6.94,1.42-10.31,1.51-3.37.1-9.04-2.34-12.06-3.37-3.03-.98-4.1-3.47-5.67-5.08-1.56-1.61-1.86-2.59-2.74-3.91-.93-1.32-2.59-5.18-2.69-6.15-.1-.88,1.56-.49,2.15.29,1.07,1.32,2.44,4.25,3.52,5.13,1.12.88,1.76,1.76,2.39,2.39.93.93,3.17,1.9,5.03,2.64.83.29,2,.59,3.22.73,1.07,1.17,4.1,3.91,6.69,3.91,1.03,0,3.47-.05,5.13-.98.1-.05-3.03.93-5.67.49-1.17-.2-2.64-.63-5.42-3.32,1.9.15,3.81,0,4.88-.73,1.9-1.27,12.36-2.2,13.72-1.42,1.37.78,2.39,1.32,2.83,1.56,1.07.54,1.51-.34,2.88,1.51s.68,4.2.29,4.59Z"/>
          <path class="cls-2" d="M47.49,46.56c-1.86-.73-6.4-.15-7.08-.05-.63.1-2.98.2-3.71-.63s-2.69-2.15-4.54-2.83c-1.37-.54-3.32,1.12-1.81,2.25,2.1,1.56,2.39,1.9,3.42,2.98,1.27,1.27,2.15,2.88,6.5,2.93,2.54.05,3.66.2,4.93-.1,3.32-.63,4.4-3.76,2.3-4.54h0Z"/>
        </g>
      </g>
      <g>
        <g>
          <path class="cls-2" d="M95.29,54.23c-.34,0-.86-.05-1.58-.15-.72-.1-1.38-.32-1.99-.65-.6-.34-.91-.85-.91-1.56,0-.44.1-.77.3-1.01.13-.17.27-.25.4-.25s.17.08.1.25c-.1.5.08.98.55,1.43.47.45.94.75,1.41.88.67.17,1.26.25,1.76.25,1.47,0,2.81-.42,4-1.26,1.19-.84,2.25-1.81,3.19-2.92-1.27-.77-2.39-1.7-3.34-2.79-.96-1.09-1.43-2.3-1.43-3.65,0-.54.07-1.02.2-1.46.33-1.14,1.06-2.04,2.16-2.72.33-.2.7-.34,1.08-.43.38-.08.78-.13,1.18-.13,1.31,0,2.23.3,2.77.91v.05c0,.07-.06.15-.18.25-.12.1-.21.12-.28.05-.23-.33-.65-.5-1.26-.5-.74,0-1.46.25-2.16.75-.67.5-1.11,1.12-1.31,1.86-.2.64-.3,1.27-.3,1.91,0,1.14.33,2.14.98,2.99.65.85,1.45,1.6,2.39,2.24.27-.33.51-.67.73-1.01.22-.33.44-.67.68-1.01,1.01-1.54,1.99-3.3,2.97-5.28.97-1.98,1.98-4.01,3.02-6.11,1.04-2.09,2.14-4.13,3.29-6.11,1.16-1.98,2.42-3.75,3.8-5.3,1.37-1.56,2.88-2.76,4.52-3.59,1.07-.57,2.09-.86,3.07-.86.54,0,1.02.07,1.46.2.13.03.18.12.13.25-.05.13-.14.18-.28.15-.13-.07-.28-.1-.43-.1h-.48c-1.74,0-3.57,1.12-5.48,3.37-1.48,1.74-2.75,3.59-3.82,5.55-1.07,1.96-2.06,3.97-2.97,6.03-.91,2.06-1.83,4.1-2.79,6.11s-2.09,3.94-3.39,5.78c-.34.5-.7.99-1.08,1.46-.39.47-.78.92-1.18,1.36.47.2.96.37,1.48.5.52.13,1,.25,1.43.35,1.51.3,3.05.45,4.63.45,2.18,0,4.3-.24,6.36-.73,2.06-.49,3.88-1.15,5.45-1.99,2.14-1.14,4.05-2.71,5.73-4.73,1.68-2.01,3.01-4.24,4-6.69.99-2.45,1.48-4.88,1.48-7.29s-.57-4.68-1.71-6.81c-1.14-2.13-3.03-3.86-5.68-5.2-1.64-.84-3.46-1.45-5.45-1.83-1.99-.39-4-.58-6.01-.58-2.85,0-5.61.46-8.27,1.38-2.66.92-4.83,2.17-6.51,3.74-.87.84-1.65,1.96-2.34,3.37-.69,1.41-1.03,2.8-1.03,4.17,0,.3.02.6.05.91.03.3.1.6.2.91.3.94.88,1.65,1.73,2.14.85.49,1.83.73,2.94.73.84,0,1.71-.15,2.61-.45.03,0,.06,0,.08-.03.02-.02.04-.02.08-.02.07,0,.1.03.1.1,0,.17-.1.29-.3.35-.47.13-.96.25-1.48.35-.52.1-1.03.15-1.53.15-1.07,0-2.11-.19-3.12-.58-1.01-.38-1.82-1-2.44-1.83-.62-.84-.93-1.91-.93-3.22,0-1.04.15-2.01.45-2.92.3-.91.72-1.76,1.26-2.56,1.11-1.64,2.67-3.01,4.7-4.1,2.03-1.09,4.27-1.91,6.74-2.46,2.46-.55,4.9-.83,7.31-.83,2.04,0,4.09.19,6.13.58,2.04.39,3.99.96,5.83,1.73,3.35,1.44,5.77,3.38,7.26,5.81,1.49,2.43,2.24,5.02,2.24,7.77,0,2.55-.56,5.09-1.68,7.62-1.12,2.53-2.68,4.83-4.68,6.89-1.99,2.06-4.32,3.69-6.96,4.9-1.64.74-3.43,1.29-5.35,1.66-1.93.37-3.88.55-5.86.55-1.14,0-2.26-.06-3.37-.18-1.11-.12-2.2-.29-3.27-.53-.44-.1-.91-.23-1.41-.38-.5-.15-1.01-.34-1.51-.58-.6.54-1.23,1.06-1.89,1.58-.65.52-1.35.96-2.09,1.33-.77.37-1.57.66-2.39.88-.82.22-1.67.33-2.54.33Z"/>
          <path class="cls-2" d="M144.2,50.06c-1.94,0-3.32-.5-4.12-1.51-.4-.44-.69-.96-.85-1.56-.17-.6-.25-1.22-.25-1.86,0-.8.1-1.62.3-2.44.2-.82.45-1.58.75-2.29.47-1.11,1.09-2.22,1.86-3.34.77-1.12,1.7-2.07,2.79-2.84,1.09-.77,2.29-1.16,3.59-1.16.87,0,1.56.22,2.06.65.5.44.75,1.11.75,2.01,0,1.04-.32,2.09-.96,3.14-.64,1.06-1.44,1.94-2.41,2.64-.97.7-1.98,1.06-3.02,1.06-.94,0-1.76-.33-2.46-1.01-.2.54-.37,1.13-.5,1.78-.13.65-.2,1.32-.2,1.99,0,1.04.21,1.94.63,2.72.42.77,1.18,1.16,2.29,1.16.8,0,1.58-.21,2.34-.63.75-.42,1.43-.93,2.04-1.53.67-.7,1.31-1.46,1.91-2.26.6-.8,1.19-1.74,1.76-2.82.07-.1.12-.15.15-.15.13,0,.2.15.2.45,0,.2-.07.42-.2.65-.5.91-1.09,1.82-1.76,2.74-.67.92-1.36,1.72-2.06,2.39-.64.6-1.32,1.09-2.06,1.46-.74.37-1.59.55-2.56.55ZM142.5,40.81c.23.34.51.58.83.73.32.15.64.23.98.23.8,0,1.64-.31,2.51-.93.87-.62,1.57-1.35,2.11-2.19.23-.37.44-.85.63-1.46.18-.6.28-1.17.28-1.71,0-.47-.09-.88-.28-1.23-.18-.35-.55-.53-1.08-.53-.6,0-1.32.37-2.14,1.11-.82.74-1.6,1.69-2.34,2.87-.23.4-.49.87-.78,1.41-.29.54-.53,1.11-.73,1.71ZM147.96,30.57h-.09c-.23,0-.34-.13-.34-.39,0-.11.06-.21.17-.3.66-.43,1.41-1,2.26-1.73.85-.73,1.64-1.36,2.35-1.9.14-.09.26-.13.34-.13.23,0,.44.11.64.32s.3.43.3.66c0,.2-.09.34-.26.43l-5.38,3.03Z"/>
          <path class="cls-2" d="M154.16,50.31c-1.07,0-1.83-.32-2.29-.96-.45-.64-.68-1.41-.68-2.31,0-.67.1-1.32.3-1.96.2-.74.55-1.74,1.06-3.02.5-1.27,1.06-2.66,1.68-4.15.62-1.49,1.25-2.92,1.89-4.3.27-.6.58-1.28.93-2.04.35-.75.7-1.5,1.06-2.24.35-.74.64-1.34.88-1.81.6-1.17,1.32-2.56,2.16-4.17.84-1.61,1.8-3.21,2.89-4.8,1.09-1.59,2.3-2.96,3.64-4.1,1.34-1.14,2.8-1.83,4.37-2.06.13-.03.3-.05.5-.05.77,0,1.35.23,1.73.7.38.47.58,1.04.58,1.71,0,.6-.12,1.16-.35,1.66-.54,1.21-1.38,2.48-2.54,3.82-1.16,1.34-2.4,2.64-3.72,3.9-1.32,1.26-2.51,2.39-3.54,3.39-.87.84-1.64,1.57-2.31,2.19-.67.62-1.29,1.23-1.86,1.83-.57.6-1.19,1.27-1.86,2.01-.37.84-.73,1.68-1.08,2.54-.35.86-.55,1.35-.58,1.48.94-1.27,1.97-2.39,3.09-3.34,1.12-.95,2.15-1.43,3.09-1.43,1.11,0,1.87.29,2.29.85.42.57.63,1.29.63,2.16,0,.8-.13,1.66-.4,2.56-.27.91-.58,1.77-.93,2.59-.35.82-.7,1.52-1.03,2.09-.34.54-.71,1.1-1.13,1.68-.42.59-.88,1.15-1.38,1.68.13.44.35.75.65.96.3.2.65.3,1.06.3.47,0,.96-.11,1.46-.33.5-.22.94-.48,1.31-.78.77-.64,1.47-1.39,2.11-2.26.64-.87,1.22-1.78,1.76-2.71.03-.07.07-.1.1-.1.07,0,.1.15.1.45v.38c0,.12-.03.23-.1.33-.57,1.01-1.16,1.9-1.76,2.69-.6.79-1.34,1.48-2.21,2.09-.9.64-1.88.96-2.92.96-.47,0-.9-.1-1.31-.3-.4-.2-.69-.54-.85-1.01-.94.91-1.95,1.67-3.04,2.29-1.09.62-2.24.93-3.44.93ZM156.32,48.65c.74-.5,1.44-1.19,2.11-2.06.67-.87,1.26-1.74,1.78-2.61.52-.87.91-1.56,1.18-2.06.2-.37.48-.95.83-1.73.35-.79.68-1.63.98-2.54s.45-1.69.45-2.36c0-.47-.09-.85-.28-1.13-.18-.28-.51-.43-.98-.43-.44,0-.95.24-1.53.73-.59.49-1.16,1.1-1.73,1.83-.7.87-1.48,1.92-2.31,3.14-.84,1.22-1.6,2.49-2.29,3.8-.69,1.31-1.2,2.5-1.53,3.57-.1.4-.15.75-.15,1.06,0,.54.14.92.43,1.16.28.23.63.35,1.03.35.67,0,1.34-.23,2.01-.7ZM159.49,31.81c.77-.87,1.49-1.65,2.16-2.34.67-.69,1.49-1.53,2.46-2.54.94-.94,2.02-2.04,3.24-3.32,1.22-1.27,2.38-2.56,3.47-3.87,1.09-1.31,1.89-2.46,2.39-3.47.4-.8.6-1.46.6-1.96,0-.97-.57-1.37-1.71-1.21-1.11.13-2.17.69-3.19,1.66-1.02.97-1.99,2.19-2.92,3.64-.92,1.46-1.78,3.01-2.59,4.65-.8,1.64-1.53,3.23-2.19,4.78-.65,1.54-1.23,2.87-1.73,3.97Z"/>
          <path class="cls-2" d="M173.51,50.66c-1.27,0-2.37-.41-3.29-1.23-.92-.82-1.38-2.09-1.38-3.8,0-1.07.19-2.19.58-3.34.38-1.16.81-2.19,1.28-3.09.87-1.64,1.97-3.07,3.29-4.3,1.32-1.22,2.91-1.83,4.75-1.83s3.02.49,3.72,1.46c.7.97,1.06,2.16,1.06,3.57,0,.57-.05,1.16-.15,1.76-.27,1.64-.82,3.23-1.66,4.78.23.34.54.61.93.83.38.22.81.33,1.28.33.8,0,1.49-.22,2.06-.65.57-.44,1.06-.98,1.48-1.63.42-.65.78-1.26,1.08-1.83.2-.37.38-.55.55-.55.1,0,.15.07.15.2s-.1.44-.3.91c-.57,1.14-1.24,2.13-2.01,2.97-.77.84-1.78,1.26-3.02,1.26-1.14,0-2.01-.4-2.61-1.21-.94,1.54-2.08,2.83-3.42,3.87-1.34,1.04-2.8,1.56-4.37,1.56ZM173.61,50.06c1.64,0,3.27-.8,4.88-2.41.47-.47.9-.96,1.28-1.48.38-.52.73-1.05,1.03-1.58-.44-.5-.75-1.05-.93-1.63-.18-.59-.28-1.15-.28-1.68,0-.84.15-1.58.45-2.24.3-.65.72-.98,1.26-.98.27,0,.53.13.78.4s.41.69.48,1.26c.1-.47.15-.97.15-1.51,0-1.27-.23-2.29-.7-3.04-.47-.75-1.26-1.13-2.36-1.13-.67,0-1.36.26-2.06.78-.7.52-1.37,1.15-1.99,1.88-.62.74-1.16,1.49-1.63,2.26-.47.77-.82,1.41-1.06,1.91-.57,1.24-.98,2.35-1.23,3.32-.25.97-.38,1.83-.38,2.56,0,1.07.23,1.89.68,2.46.45.57,1,.85,1.63.85Z"/>
          <path class="cls-2" d="M198.2,48.75c-.57.47-1.13.81-1.68,1.03-.55.22-1.06.33-1.53.33-.84,0-1.53-.29-2.09-.88s-.83-1.37-.83-2.34c0-.57.13-1.26.4-2.06.44-1.21,1.09-2.36,1.96-3.47.87-1.11,1.71-2.23,2.51-3.37.5-.67.75-1.32.75-1.96,0-.33-.09-.62-.28-.86-.18-.23-.51-.37-.98-.4-.27-.07-.57-.1-.91-.1h-2.97c-.17,0-.32-.02-.45-.05-.13.84-.41,1.78-.83,2.81-.42,1.04-.9,2.08-1.43,3.12-.54,1.04-1.06,1.98-1.56,2.82-.13.2-.25.3-.35.3s-.15-.1-.15-.3c0-.23.05-.42.15-.55.7-1.37,1.38-2.72,2.04-4.05.65-1.32,1.1-2.71,1.33-4.15-.77-.44-1.29-1.19-1.56-2.26-.03-.17-.06-.33-.08-.48-.02-.15-.03-.29-.03-.43,0-.6.13-1.11.38-1.53.25-.42.54-.63.88-.63.47,0,.85.45,1.16,1.36.07.23.12.49.15.78.03.29.05.56.05.83,0,.3,0,.58-.03.83-.02.25-.04.46-.08.63.23.07.54.12.93.15.38.03.81.05,1.28.05.7,0,1.44-.02,2.21-.08.77-.05,1.42-.08,1.96-.08.64,0,1.07.13,1.31.4.23.27.35.6.35,1.01,0,.5-.13,1.05-.38,1.63-.25.59-.49,1.08-.73,1.48-.44.8-.85,1.52-1.23,2.14-.39.62-.81,1.28-1.28,1.99-.7,1.07-1.22,2.05-1.53,2.94-.32.89-.48,1.63-.48,2.24,0,1.04.38,1.56,1.16,1.56.64,0,1.46-.45,2.46-1.36.64-.57,1.23-1.25,1.78-2.04.55-.79,1.06-1.59,1.51-2.41.45-.82.83-1.5,1.13-2.04.07-.1.13-.15.2-.15.13,0,.2.13.2.4,0,.2-.05.39-.15.55-.57,1.04-1.22,2.18-1.96,3.42-.74,1.24-1.64,2.31-2.71,3.22Z"/>
          <path class="cls-2" d="M213.03,50.01c-1.07,0-1.81-.34-2.21-1.03s-.6-1.45-.6-2.29c0-.17.02-.46.08-.88.05-.42.11-.81.18-1.18-.47.64-1.03,1.34-1.68,2.11-.65.77-1.32,1.42-1.99,1.96-1.07.87-2.04,1.31-2.92,1.31s-1.48-.35-1.94-1.06c-.45-.7-.68-1.59-.68-2.66,0-1.37.3-2.77.91-4.17.6-1.41,1.4-2.74,2.39-4,.99-1.26,2.09-2.34,3.29-3.24.7-.5,1.57-.91,2.59-1.23,1.02-.32,2.05-.48,3.09-.48,1.17,0,2.2.18,3.09.53.89.35,1.5.85,1.83,1.48-.7.91-1.42,2.02-2.16,3.34-.74,1.32-1.37,2.52-1.91,3.6-.37.74-.77,1.65-1.21,2.74-.44,1.09-.65,2.02-.65,2.79,0,.34.08.67.25,1.01.17.34.49.5.96.5.54,0,1.06-.2,1.56-.6s.92-.8,1.26-1.21c.77-.84,1.47-1.76,2.11-2.76.64-1.01,1.27-2.08,1.91-3.22.1-.13.2-.2.3-.2.13,0,.2.1.2.3,0,.17-.03.3-.1.4-.57,1.11-1.21,2.21-1.91,3.32-.7,1.11-1.54,2.15-2.51,3.12-.47.47-1.02.87-1.66,1.21-.64.33-1.26.5-1.86.5ZM204.98,48.45c.64,0,1.33-.34,2.09-1.03.75-.69,1.49-1.52,2.21-2.51.72-.99,1.37-1.94,1.96-2.87.59-.92,1.05-1.63,1.38-2.14.7-1.11,1.36-2.03,1.96-2.76.6-.74,1.54-1.31,2.82-1.71.07,0,.13,0,.18-.02.05-.02.11-.02.18-.02-.3-.47-.8-.82-1.51-1.06-.7-.23-1.39-.35-2.06-.35-1.04,0-2.04.28-3.02.85-.97.57-1.86,1.29-2.66,2.16-.77.91-1.53,1.89-2.26,2.97-.74,1.07-1.33,2.16-1.78,3.27-.45,1.11-.68,2.16-.68,3.17,0,.54.09,1.01.28,1.43.18.42.49.63.93.63Z"/>
          <path class="cls-2" d="M246.76,52.67c-1.69.46-3.44.6-5.18.6-2.61,0-4.78-.43-6.51-1.28-1.73-.85-3.05-1.98-3.97-3.37-.92-1.39-1.52-2.89-1.78-4.5-.1-.77-.15-1.54-.15-2.31,0-1.98.28-3.95.85-5.93.67-2.31,1.64-4.57,2.92-6.76,1.27-2.19,2.79-4.23,4.55-6.11,1.76-1.88,3.69-3.51,5.78-4.9,2.09-1.39,4.28-2.46,6.56-3.19,1.07-.37,2.13-.63,3.17-.78,1.04-.15,2.03-.23,2.97-.23.6,0,1.19.03,1.76.08.57.05,1.11.16,1.61.33,1.31.37,2.35.95,3.12,1.73.77.79,1.16,1.77,1.16,2.94,0,.34-.05.7-.15,1.11.97.97,1.67,2.14,2.09,3.49.42,1.36.63,2.81.63,4.35,0,1.04-.09,2.11-.28,3.22-.18,1.11-.44,2.2-.78,3.27-.8,2.48-1.99,4.88-3.54,7.19-1.56,2.31-3.4,4.36-5.53,6.13-2.13,1.78-4.47,3.15-7.01,4.12,0,0-1.59.62-2.26.8ZM248,51.14c2.33-1.15,4.71-2.61,6.67-4.55,1.96-1.94,3.64-4.11,5.03-6.51,1.39-2.4,2.44-4.77,3.14-7.11.27-.91.47-1.83.6-2.79.13-.95.2-1.88.2-2.79,0-1.04-.09-2.03-.28-2.97-.18-.94-.48-1.79-.88-2.56-.3.37-.64.62-1.01.75-.23.1-.4.15-.5.15-.13,0-.19-.05-.18-.15.02-.1.09-.2.23-.3.4-.33.7-.82.91-1.46-.64-.84-1.45-1.52-2.44-2.04-.99-.52-2.22-.78-3.69-.78s-3.04.34-4.7,1.01c-1.66.67-3.28,1.64-4.85,2.92-.97.8-1.84,1.78-2.59,2.92-.75,1.14-1.33,2.3-1.73,3.47-.4,1.17-.6,2.2-.6,3.07,0,.97.25,1.61.75,1.91.3.13.45.29.45.45,0,.1-.07.17-.2.2-.13.03-.29.02-.45-.05-.6-.23-1.05-.64-1.33-1.23-.29-.59-.43-1.28-.43-2.09,0-1.37.38-2.92,1.16-4.62.77-1.71,1.81-3.13,3.12-4.27,1.68-1.47,3.53-2.59,5.56-3.34,2.03-.75,3.98-1.13,5.86-1.13,1.34,0,2.54.17,3.59.5,1.06.34,1.99.77,2.79,1.31-.07-.94-.42-1.72-1.06-2.34-.64-.62-1.44-1.06-2.41-1.33-.91-.27-1.88-.4-2.92-.4-.8,0-1.67.08-2.59.23-.92.15-1.87.39-2.84.73-1.31.4-2.65,1.08-4.02,2.04-1.37.95-2.71,2.09-4.02,3.39-1.31,1.31-2.53,2.71-3.67,4.22-1.14,1.51-2.11,3.02-2.92,4.52-.87,1.64-1.63,3.56-2.26,5.76-.64,2.2-.96,4.37-.96,6.51,0,.5.02,1.01.05,1.51.03.5.1.99.2,1.46.23,1.27.7,2.46,1.38,3.54.69,1.09,1.65,1.97,2.89,2.64,1.24.67,2.78,1.01,4.63,1.01h.2c.7,0,1.4-.06,2.09-.18.69-.12,1.38-.28,2.09-.48,0,0,1.25-.38,1.95-.73Z"/>
          <path class="cls-2" d="M269.43,49.96c-1.04,0-1.78-.3-2.24-.91-.45-.6-.68-1.34-.68-2.21,0-1.11.23-2.31.68-3.62.45-1.31.98-2.56,1.58-3.75.6-1.19,1.09-2.12,1.46-2.79.74-1.24,1.48-2.01,2.24-2.31.75-.3,1.68-.45,2.79-.45-.34.1-.77.49-1.31,1.18-.54.69-1.1,1.53-1.68,2.54-.59,1.01-1.14,2.09-1.66,3.24-.52,1.16-.94,2.28-1.26,3.37-.32,1.09-.48,2.02-.48,2.79,0,.57.11,1.04.33,1.41.22.37.56.55,1.03.55.4,0,.87-.16,1.41-.48.54-.32,1.02-.71,1.46-1.18,1.47-1.64,2.67-3.44,3.59-5.4.92-1.96,1.95-3.91,3.09-5.86.74-1.24,1.48-2.01,2.24-2.31.75-.3,1.68-.45,2.79-.45-.34.1-.79.51-1.36,1.23-.57.72-1.16,1.62-1.78,2.69-.62,1.07-1.2,2.22-1.73,3.44-.54,1.22-.98,2.41-1.33,3.54-.35,1.14-.53,2.11-.53,2.92,0,.54.11.98.33,1.33.22.35.54.53.98.53.4,0,.87-.17,1.41-.5.54-.33,1.02-.72,1.46-1.16.77-.84,1.47-1.76,2.11-2.76.64-1.01,1.27-2.08,1.91-3.22.1-.13.18-.2.25-.2.13,0,.2.1.2.3,0,.17-.03.3-.1.4-.6,1.11-1.24,2.21-1.91,3.32-.67,1.11-1.49,2.15-2.46,3.12-.54.54-1.16.98-1.89,1.33-.72.35-1.43.46-2.14.33-.94-.17-1.61-.54-2.01-1.13-.4-.59-.6-1.3-.6-2.14,0-.67.1-1.37.3-2.11-.4.64-.83,1.27-1.28,1.91-.45.64-.96,1.24-1.53,1.81-.47.47-1.03.86-1.68,1.18-.65.32-1.32.48-1.99.48Z"/>
          <path class="cls-2" d="M290.8,50.06c-1.94,0-3.32-.5-4.12-1.51-.4-.44-.69-.96-.85-1.56-.17-.6-.25-1.22-.25-1.86,0-.8.1-1.62.3-2.44.2-.82.45-1.58.75-2.29.47-1.11,1.09-2.22,1.86-3.34.77-1.12,1.7-2.07,2.79-2.84,1.09-.77,2.29-1.16,3.59-1.16.87,0,1.56.22,2.06.65.5.44.75,1.11.75,2.01,0,1.04-.32,2.09-.96,3.14-.64,1.06-1.44,1.94-2.41,2.64-.97.7-1.98,1.06-3.02,1.06-.94,0-1.76-.33-2.46-1.01-.2.54-.37,1.13-.5,1.78-.13.65-.2,1.32-.2,1.99,0,1.04.21,1.94.63,2.72.42.77,1.18,1.16,2.29,1.16.8,0,1.58-.21,2.34-.63.75-.42,1.43-.93,2.04-1.53.67-.7,1.31-1.46,1.91-2.26.6-.8,1.19-1.74,1.76-2.82.07-.1.12-.15.15-.15.13,0,.2.15.2.45,0,.2-.07.42-.2.65-.5.91-1.09,1.82-1.76,2.74-.67.92-1.36,1.72-2.06,2.39-.64.6-1.32,1.09-2.06,1.46-.74.37-1.59.55-2.56.55ZM289.09,40.81c.23.34.51.58.83.73.32.15.64.23.98.23.8,0,1.64-.31,2.51-.93.87-.62,1.57-1.35,2.11-2.19.23-.37.44-.85.63-1.46.18-.6.28-1.17.28-1.71,0-.47-.09-.88-.28-1.23-.18-.35-.55-.53-1.08-.53-.6,0-1.32.37-2.14,1.11-.82.74-1.6,1.69-2.34,2.87-.23.4-.49.87-.78,1.41-.29.54-.53,1.11-.73,1.71Z"/>
          <path class="cls-2" d="M300.55,49.96c-.94,0-1.63-.31-2.06-.93-.44-.62-.65-1.38-.65-2.29,0-.27.02-.54.08-.83.05-.28.11-.58.18-.88.37-1.34.95-2.84,1.73-4.5.79-1.66,1.55-3.14,2.29-4.45.44-.74.84-1.26,1.21-1.58.37-.32.77-.55,1.21-.7.44-.15.96-.33,1.56-.53.17-.07.33-.12.5-.15.17-.03.35-.07.55-.1-.67.67-1.35,1.48-2.04,2.41-.69.94-1.43,2.23-2.24,3.87-.44.87-.86,1.84-1.28,2.92-.42,1.07-.78,2.08-1.08,3.02-.3.94-.47,1.68-.5,2.21-.03.64.05,1.09.25,1.36.2.27.47.4.8.4.57,0,1.11-.2,1.63-.6.52-.4.98-.82,1.38-1.26.74-.84,1.43-1.76,2.09-2.76.65-1.01,1.3-2.08,1.94-3.22.1-.13.18-.2.25-.2.13,0,.2.1.2.3,0,.17-.03.3-.1.4-.6,1.11-1.24,2.21-1.91,3.32-.67,1.11-1.49,2.15-2.46,3.12-.44.44-.95.82-1.53,1.16-.59.33-1.25.5-1.99.5ZM306.7,30.18c-.39,0-.7-.13-.95-.4s-.37-.57-.37-.92c0-.49.19-.92.58-1.29.39-.37.81-.57,1.27-.61.39,0,.7.12.95.37.25.25.37.56.37.95,0,.46-.19.89-.55,1.29-.37.4-.8.61-1.29.61Z"/>
          <path class="cls-2" d="M314.38,50.11c-1.04,0-1.76-.28-2.16-.85-.4-.57-.6-1.24-.6-2.01,0-.4.04-.8.13-1.21.08-.4.19-.77.33-1.11.37-.97.8-1.82,1.28-2.54.49-.72,1-1.45,1.53-2.19.47-.6.91-1.21,1.31-1.81.4-.6.77-1.22,1.11-1.86.2-.4.3-.77.3-1.11,0-.44-.14-.76-.43-.98-.29-.22-.58-.33-.88-.33-.4,0-.85.1-1.36.3-.5.2-1.01.44-1.51.7-.47.27-.92.55-1.36.85-.44.3-.8.47-1.11.5-.1.37-.32.95-.65,1.73-.34.79-.74,1.64-1.21,2.56-.47.92-.96,1.78-1.46,2.59-.13.2-.25.3-.35.3s-.15-.1-.15-.3c0-.23.05-.42.15-.55.67-1.21,1.26-2.36,1.76-3.47.5-1.11.89-2.08,1.16-2.92-.44-.03-.73-.17-.88-.4s-.23-.52-.23-.86c0-.37.08-.76.23-1.18.15-.42.28-.75.38-.98.54.27,1.13.45,1.78.55.65.1,1.3.15,1.94.15.77,0,1.52-.03,2.26-.1.74-.07,1.41-.1,2.01-.1.7,0,1.18.17,1.43.5.25.34.38.75.38,1.26,0,.54-.11,1.11-.33,1.73-.22.62-.43,1.13-.63,1.53-.47.94-.98,1.84-1.53,2.71-.55.87-1.06,1.78-1.53,2.72-.13.27-.38.78-.73,1.53-.35.75-.58,1.47-.68,2.14,0,.07,0,.13-.03.2-.02.07-.02.13-.02.2,0,.37.1.64.3.8.2.17.44.25.7.25.57,0,1.11-.18,1.61-.53.5-.35.94-.75,1.31-1.18.77-.84,1.47-1.78,2.11-2.82.64-1.04,1.27-2.13,1.91-3.27.07-.1.13-.15.2-.15.13,0,.2.13.2.4,0,.2-.05.39-.15.55-.6,1.11-1.22,2.19-1.86,3.24-.64,1.06-1.44,2.07-2.41,3.04-.44.44-.96.83-1.56,1.18-.6.35-1.27.53-2.01.53Z"/>
          <path class="cls-2" d="M325.74,50.66c-1.27,0-2.37-.41-3.29-1.23-.92-.82-1.38-2.09-1.38-3.8,0-1.07.19-2.19.58-3.34.38-1.16.81-2.19,1.28-3.09.87-1.64,1.97-3.07,3.29-4.3,1.32-1.22,2.91-1.83,4.75-1.83s3.02.49,3.72,1.46c.7.97,1.06,2.16,1.06,3.57,0,.57-.05,1.16-.15,1.76-.27,1.64-.82,3.23-1.66,4.78.23.34.54.61.93.83.38.22.81.33,1.28.33.8,0,1.49-.22,2.06-.65.57-.44,1.06-.98,1.48-1.63.42-.65.78-1.26,1.08-1.83.2-.37.38-.55.55-.55.1,0,.15.07.15.2s-.1.44-.3.91c-.57,1.14-1.24,2.13-2.01,2.97-.77.84-1.78,1.26-3.02,1.26-1.14,0-2.01-.4-2.61-1.21-.94,1.54-2.08,2.83-3.42,3.87-1.34,1.04-2.8,1.56-4.37,1.56ZM325.84,50.06c1.64,0,3.27-.8,4.88-2.41.47-.47.9-.96,1.28-1.48.38-.52.73-1.05,1.03-1.58-.44-.5-.75-1.05-.93-1.63-.18-.59-.28-1.15-.28-1.68,0-.84.15-1.58.45-2.24.3-.65.72-.98,1.26-.98.27,0,.53.13.78.4s.41.69.48,1.26c.1-.47.15-.97.15-1.51,0-1.27-.23-2.29-.7-3.04-.47-.75-1.26-1.13-2.36-1.13-.67,0-1.36.26-2.06.78-.7.52-1.37,1.15-1.99,1.88-.62.74-1.16,1.49-1.63,2.26-.47.77-.82,1.41-1.06,1.91-.57,1.24-.98,2.35-1.23,3.32-.25.97-.38,1.83-.38,2.56,0,1.07.23,1.89.68,2.46.45.57,1,.85,1.63.85Z"/>
          <path class="cls-2" d="M340.47,63.93c-.23.03-.45.06-.65.08-.2.02-.4.02-.6.02-1.14,0-2-.3-2.59-.9-.59-.6-.88-1.32-.88-2.16,0-.7.21-1.43.63-2.19.42-.75,1.05-1.4,1.89-1.94,1.64-1.07,3.51-2.05,5.61-2.94,2.09-.89,4.15-1.9,6.16-3.04.1-.27.21-.56.33-.88.12-.32.21-.65.28-.98.1-.47.15-.89.15-1.26,0-.8-.21-1.39-.63-1.76-.42-.37-.98-.55-1.68-.55-.77,0-1.64.2-2.61.6-.27.1-.57.22-.9.35-.34.13-.69.28-1.06.45-.34.67-.83,1.27-1.48,1.81-.65.54-1.2.84-1.63.91-.1.03-.25.05-.45.05-.64,0-.96-.28-.96-.85s.3-1.02.91-1.36c.9-.54,1.77-1.11,2.59-1.71.82-.6,1.68-1.33,2.56-2.19.89-.85,1.9-1.92,3.04-3.19.7-.8,1.43-1.58,2.19-2.34.75-.75,1.52-1.48,2.29-2.19-.23-.07-.6-.13-1.11-.18-.5-.05-1.01-.11-1.53-.18-.52-.07-.93-.12-1.23-.15-.2-.03-.39-.05-.58-.05h-.53c-.74,0-1.42.13-2.04.38-.62.25-1.2.75-1.73,1.48-.44.6-.93,1.4-1.48,2.39-.55.99-1.25,2.22-2.09,3.69-.1.2-.2.3-.3.3-.13,0-.2-.12-.2-.35,0-.17.07-.37.2-.6.67-1.14,1.21-2.14,1.61-3.02.4-.87.91-1.83,1.51-2.87.47-.84.95-1.52,1.43-2.04.49-.52,1.13-.88,1.94-1.08.27-.07.54-.12.83-.15.28-.03.58-.05.88-.05.67,0,1.33.03,1.99.1.65.07,1.25.1,1.78.1.27,0,.7,0,1.28-.02.59-.02,1.16-.05,1.73-.1.57-.05.96-.13,1.16-.23.27.1.4.34.4.7,0,.44-.22.91-.65,1.43-.44.52-1.09.73-1.96.63-.84.54-1.76,1.31-2.76,2.31-1.01,1.01-1.86,1.88-2.56,2.61-.27.3-.69.72-1.26,1.26-.57.54-1.16,1.12-1.78,1.76-.62.64-1.18,1.26-1.68,1.86,0,.03,0,.07-.03.1-.02.03-.03.08-.03.15.64-.4,1.37-.74,2.21-1.01.67-.2,1.26-.34,1.78-.43.52-.08,1-.13,1.43-.13,1.14,0,1.94.29,2.39.86.45.57.68,1.29.68,2.16,0,.47-.05.99-.15,1.56,1.11-1.01,2.14-2.12,3.12-3.34.97-1.22,1.78-2.4,2.41-3.54.3-.47.57-.7.8-.7.07,0,.1.05.1.15,0,.13-.07.32-.2.55-.6,1.07-1.26,2.12-1.96,3.14-.7,1.02-1.48,1.97-2.31,2.84-.6.6-1.32,1.24-2.16,1.91-.1.37-.22.75-.35,1.16-.13.4-.29.8-.45,1.21-.77,1.91-1.7,3.69-2.79,5.33-1.09,1.64-2.31,3.01-3.67,4.1-1.36,1.09-2.87,1.8-4.55,2.14ZM340.17,63.08c1.71-.5,3.14-1.37,4.3-2.59,1.16-1.22,2.15-2.61,2.99-4.17.84-1.56,1.61-3.08,2.31-4.55-.8.54-1.89,1.11-3.24,1.73-1.36.62-2.74,1.26-4.15,1.91s-2.63,1.33-3.67,2.04c-.7.47-1.22,1.03-1.56,1.68-.33.65-.5,1.28-.5,1.88,0,.64.19,1.17.58,1.61.38.44.95.65,1.68.65.17,0,.36-.02.58-.05.22-.03.44-.08.68-.15Z"/>
        </g>
        <path class="cls-2" d="M251.08,46.95c-.85-.64-1.45-.93-2.72-1.54-1.27-.6-2.42-1.01-3.44-1.21-.53-.12-1.03-.19-1.52-.23-.48-.04-.95-.02-1.42.06-.86.14-1.63.51-2.32,1.1-.12.12-.16.24-.12.35.04.11.12.16.25.14l.1-.02c.43-.27.86-.45,1.29-.52,1.02-.17,2.18,0,3.47.52,1.29.52,2.61,1.24,3.95,2.17l.88.59c1.7,1.34,3.47,2.88,5.33,4.6,1.52,1.41,3.09,2.74,4.69,3.99,1.6,1.25,3.26,2.21,4.99,2.89,1.73.68,3.5.87,5.32.57,1.19-.2,2.26-.6,3.22-1.2.95-.6,1.68-1.41,2.17-2.42.49-1.02.62-2.24.39-3.66-.18-1.09-.64-2.23-1.38-3.41-.74-1.19-1.74-2.07-2.99-2.64-.15-.08-.28-.1-.39-.06-.11.04-.16.1-.14.2,0,.03.07.09.18.17.63.34,1.23.86,1.79,1.56.56.71,1.03,1.45,1.42,2.24.38.79.63,1.51.74,2.17.24,1.45.04,2.59-.61,3.41-.65.82-1.55,1.33-2.7,1.52-1.39.23-2.88.03-4.48-.61-1.6-.63-3.24-1.52-4.92-2.65-1.68-1.13-3.33-2.34-4.96-3.61-1.62-1.28-3.16-2.44-4.63-3.49l-1.44-.98Z"/>
      </g>
      <text class="cls-3" transform="translate(147.57 80.9)"><tspan x="0" y="0">Fisioterapeuta</tspan></text>
    </g>
  </g>
</svg>