<?xml version="1.0" encoding="UTF-8"?>
<svg id="Layer_2" data-name="Layer 2" xmlns="http://www.w3.org/2000/svg" viewBox="0 0 451.1 161.1">
  <defs>
    <style>
      .cls-1 {
        fill: #fff;
      }

      .cls-2 {
        fill: none;
      }

      .cls-3 {
        fill: #bc155b;
      }

      .cls-4 {
        fill: #8c1043;
      }

      .cls-5 {
        fill: #ff5c9c;
      }
    </style>
  </defs>
  <g id="traço">
    <rect class="cls-2" width="451.1" height="161.1"/>
    <g>
      <path class="cls-1" d="M127.5,90.8c-1.4,20.7-18.4,29.3-41.5,30.3-21.3.9-42.5-16.4-42.5-37.7s19.7-43,41.1-43c25.4,0,44.6,25.8,42.9,50.4h0Z"/>
      <path class="cls-1" d="M110.3,41.8c22,15.7,31.9,54,9.9,73.6-12.6,11.1-31.2,14.2-47,9.1,19.2,6.1,41.5-.7,51.5-18.6,12.5-20.3,3.7-50-14.4-64.1h0Z"/>
      <path class="cls-1" d="M49,107.8c-10.9-13.2-14.2-31.2-5.9-46.6,2.2-4.3,5-8.2,8.4-11.6,3.5-3.3,7.3-6.2,11.5-8.6,10.3-5.8,22.8-8.5,34.2-5.4-18.6-3.6-37.2,6.6-48.4,21-12.6,15.7-11.6,35.4.2,51.2Z"/>
    </g>
    <path class="cls-4" d="M63.9,81.2s1.5-1.3,5.9,4.3c4.4,5.6,8.3,2.8,8.3,2.8l-5.5,5.9-5.1-4.1-3.6-8.9h0Z"/>
    <path class="cls-4" d="M61.6,80.1s1.5-.9,4.8,3.2c3.4,4.1,4,6.5,7,5.9,2.9-.6-.7,3-.7,3l-6.6-4.8-4.3-5.4-.2-1.9h0Z"/>
    <path id="baby" class="cls-5" d="M65.4,82.6c-4-1.3-7.1-4.6-8.1-8.7-1.6-5.9,1.8-9.9,4.3-11.9,2-1.7,6.6-3.2,9.2-2.7,2.9.5,5.1,2.7,5.8,5.6.9,3.1.9,3.2,1.8,3.6,1.5.6,2.4,5,.7,8.3-1.7,3,0,3.3,1.8,3.1,4.8-.5,7.5-11.9,11.9-9.3,3.6,2.1-.2,8-2.4,11.5-3.1,4.9,2.9,3.5,4.7,1.1,2.5-3.4,5.8-6.8,9.7-5.6,3.3,1.1,4.7,8,4.9,9.5.3,2.8,3.6,1.6,4.2,5,.6,3.1-1.5,5.6-8.8,3.1-2.1-.7-1.8-3.2-2.4-5.1s-3.8,8.6-8.9,10c-6.6,1.8-13-1.9-18.7-4.2-3.8-1.5-6.9-6.3-7.3-9.5-.3-2.6,0-3.1-2.4-3.8Z"/>
    <path class="cls-3" d="M109.8,100.1c-1.3,1.2-3.2,1.5-4.9.9-1.6-.8-3.3-1-5-.7-4.1.9-8.3,1.5-12.5,1.8-4.1.1-10.9-2.8-14.6-4.1-3.7-1.2-5-4.2-6.9-6.1-1.3-1.4-2.4-3-3.3-4.7-1.4-2.3-2.5-4.8-3.3-7.4-.1-1.1,1.9-.6,2.6.4,1.3,1.6,3,5.1,4.3,6.2,1,.9,2,1.9,2.9,2.9,1.1,1.1,3.8,2.3,6.1,3.2,1.3.4,2.6.7,3.9.9,1.3,1.4,5,4.7,8.1,4.7,2.1.1,4.3-.3,6.2-1.2-2.2.6-4.5.8-6.8.6-1.4-.2-3.2-.8-6.6-4,2.3.2,4.6,0,5.9-.9,2.3-1.5,15-2.7,16.6-1.7,1.7.9,2.9,1.6,3.5,1.9,1.3.7,1.8-.4,3.5,1.8,1.2,1.6,1.3,3.8.3,5.5Z"/>
    <path class="cls-3" d="M95.9,90.7c-2.3-.9-7.7-.2-8.6,0-.8.2-3.6.2-4.5-.8-1.6-1.5-3.4-2.7-5.4-3.5-1.7-.7-4,1.4-2.2,2.7,1.5,1,2.9,2.3,4.1,3.6,1.5,1.5,2.6,3.5,7.9,3.5,3.1,0,4.4.2,6-.1,4-.7,5.3-4.5,2.7-5.4h0Z"/>
    <g>
      <path class="cls-1" d="M151.3,95.8c-.5,0-1.1-.1-1.6-.2-.7-.1-1.4-.3-2-.7-.6-.3-.9-.9-.9-1.6,0-.4.1-.7.3-1,.1-.1.2-.2.4-.3.1,0,.2.1.1.3-.1.5.1,1.1.6,1.4.4.4.9.7,1.4.9.6.2,1.2.2,1.8.2,1.4,0,2.8-.4,4-1.3,1.2-.8,2.3-1.8,3.2-2.9-1.3-.8-2.4-1.7-3.3-2.8-.9-1-1.4-2.3-1.4-3.7,0-.5.1-1,.2-1.4.3-1.2,1.1-2.1,2.2-2.7.3-.2.7-.3,1.1-.4.4-.1.8-.1,1.2-.1,1-.1,2,.2,2.8.9h0c0,.1-.1.2-.2.2s-.2.1-.3,0c-.3-.4-.8-.6-1.3-.5-.8,0-1.5.3-2.2.8-.6.5-1.1,1.1-1.3,1.9-.2.6-.3,1.3-.3,1.9,0,1.1.3,2.1,1,3s1.5,1.6,2.4,2.2c.3-.3.5-.7.7-1s.4-.7.7-1c1.1-1.7,2.1-3.5,3-5.3,1-2,2-4,3-6.1s2.1-4.1,3.3-6.1c1.1-1.9,2.4-3.7,3.8-5.3,1.3-1.5,2.8-2.7,4.5-3.6.9-.5,2-.8,3.1-.9.5,0,1,.1,1.5.2.1,0,.2.1.1.2,0,.1-.2.2-.3.2h0c-.1-.1-.3-.1-.4-.1h-.6c-1.7,0-3.6,1.1-5.5,3.4-1.5,1.7-2.7,3.6-3.8,5.6s-2.1,4-3,6c-.9,2.1-1.8,4.1-2.8,6.1s-2.1,4-3.4,5.8c-.3.5-.7,1-1.1,1.5-.4.5-.8.9-1.2,1.4.5.2,1,.4,1.5.5s1,.2,1.4.3c1.5.3,3.1.5,4.6.5,2.1,0,4.3-.2,6.4-.7,1.9-.4,3.7-1.1,5.5-2,2.2-1.2,4.1-2.8,5.7-4.7,1.7-2,3-4.3,4-6.7,1-2.3,1.5-4.8,1.5-7.3s-.6-4.7-1.7-6.8c-1.3-2.3-3.3-4.1-5.7-5.2-1.7-.9-3.6-1.5-5.5-1.8-2-.4-4-.6-6-.6-2.8,0-5.6.5-8.3,1.4-2.4.8-4.6,2.1-6.5,3.8-1,1-1.8,2.1-2.3,3.4-.6,1.3-1,2.7-1,4.2v.9c0,.3.1.6.2.9.3.9.9,1.7,1.7,2.1.9.5,1.9.7,2.9.7.9,0,1.8-.2,2.6-.5h.2s.1,0,.1.1h0c0,.2-.1.3-.3.3-.5.1-1,.3-1.5.4s-1,.1-1.5.2c-1.1,0-2.1-.2-3.1-.6s-1.8-1-2.4-1.8c-.7-.9-1-2.1-.9-3.2,0-1,.1-2,.4-2.9.3-.9.7-1.8,1.3-2.6,1.2-1.7,2.8-3.1,4.7-4.1,2.1-1.1,4.4-1.9,6.8-2.4,4.4-1,9-1.1,13.4-.2,2,.4,4,.9,5.8,1.7,3,1.1,5.5,3.2,7.3,5.8,1.5,2.3,2.2,5,2.2,7.8,0,2.6-.6,5.2-1.7,7.6-1.1,2.6-2.7,4.9-4.7,6.9-2,2.1-4.4,3.7-7,4.9-1.7.8-3.5,1.3-5.4,1.7-1.9.4-3.9.6-5.9.6-1.1,0-2.3-.1-3.4-.2-1.1-.1-2.2-.3-3.3-.5-.4-.1-.9-.2-1.4-.4-.5-.2-1-.3-1.5-.6-.6.5-1.2,1.1-1.9,1.6-.6.5-1.3,1-2,1.3-.8.4-1.6.7-2.4.9-.7.1-1.6.2-2.4.2Z"/>
      <path class="cls-1" d="M200.2,91.6c-1.9,0-3.3-.5-4.1-1.5-.4-.4-.7-1-.9-1.6s-.3-1.2-.2-1.9c0-.8.1-1.6.3-2.4s.4-1.5.8-2.3c.5-1.2,1.1-2.3,1.9-3.3.8-1.1,1.7-2.1,2.8-2.8,1-.8,2.3-1.2,3.6-1.2.7,0,1.5.2,2.1.7.5.5.8,1.3.8,2,0,1.1-.4,2.2-.9,3.2-.6,1-1.4,1.9-2.4,2.6-.9.6-1.9,1-3,1-.9,0-1.8-.4-2.5-1-.2.6-.4,1.2-.5,1.8-.1.7-.2,1.3-.2,2,0,.9.2,1.9.6,2.7.4.8,1.3,1.3,2.3,1.2.8,0,1.6-.2,2.3-.6s1.4-.9,2-1.5c.7-.7,1.3-1.5,1.9-2.3.7-.9,1.2-1.8,1.8-2.8.1-.1.1-.2.1-.2.1,0,.2.2.2.4s-.1.5-.2.7c-.5.9-1.1,1.9-1.8,2.7-.6.9-1.3,1.7-2,2.4-.6.6-1.3,1.1-2.1,1.5-1,.3-1.8.5-2.7.5ZM198.4,82.4c.2.3.5.6.8.7.3.2.7.2,1,.2.9,0,1.8-.4,2.5-.9.8-.6,1.6-1.3,2.1-2.2.3-.5.5-.9.6-1.5.2-.6.3-1.1.3-1.7,0-.4-.1-.8-.3-1.2-.2-.4-.6-.6-1.1-.5-.8.1-1.6.5-2.1,1.1-.9.8-1.7,1.8-2.3,2.9-.2.4-.5.9-.8,1.4-.2.5-.5,1.1-.7,1.7ZM203.9,72.1h0c-.3,0-.4-.1-.4-.4,0-.1.1-.2.2-.3.8-.5,1.5-1.1,2.3-1.7.9-.7,1.6-1.4,2.4-1.9.1-.1.2-.1.3-.1.2,0,.5.1.6.3.2.2.3.4.3.7,0,.2-.1.4-.2.4l-5.5,3Z"/>
      <path class="cls-1" d="M210.1,91.9c-.9.1-1.7-.3-2.3-1-.5-.7-.7-1.5-.7-2.3,0-.7.1-1.4.3-2,.3-1,.6-2,1.1-3,.5-1.3,1.1-2.7,1.7-4.2s1.2-2.9,1.9-4.3c.3-.6.6-1.3.9-2s.7-1.5,1.1-2.2.6-1.3.9-1.8c.6-1.2,1.3-2.6,2.2-4.2.9-1.7,1.8-3.3,2.9-4.8,1-1.5,2.2-2.9,3.6-4.1,1.2-1.1,2.8-1.8,4.4-2.1h.5c.7-.1,1.3.2,1.7.7s.6,1.1.6,1.7-.1,1.1-.4,1.7c-.7,1.4-1.5,2.7-2.5,3.8-1.2,1.4-2.4,2.7-3.7,3.9-1.3,1.3-2.5,2.4-3.5,3.4-.8.8-1.6,1.6-2.3,2.2s-1.3,1.2-1.9,1.8c-.6.6-1.2,1.3-1.9,2l-1.1,2.5c-.4.9-.5,1.3-.6,1.5.9-1.2,1.9-2.4,3.1-3.3.8-.8,1.9-1.3,3.1-1.4.9-.1,1.7.2,2.3.8.4.6.7,1.4.6,2.2,0,.9-.1,1.7-.4,2.6-.3.9-.6,1.7-.9,2.6-.3.7-.6,1.4-1,2.1-.3.5-.7,1.1-1.1,1.7-.4.6-.9,1.2-1.4,1.7.1.4.3.8.6,1s.7.3,1.1.3c.5,0,1-.1,1.5-.3.5-.2.9-.5,1.3-.8.8-.7,1.5-1.4,2.1-2.3s1.2-1.8,1.8-2.7c0-.1.1-.1.1-.1,0,0,.1.2.1.4v.4c0,.1,0,.2-.1.3-.5.9-1.1,1.8-1.8,2.7-.6.8-1.4,1.5-2.2,2.1s-1.9,1-2.9,1c-.5,0-.9-.1-1.3-.3s-.7-.6-.9-1c-.9.9-1.9,1.6-3.1,2.3-1,.5-2.2.8-3.5.8ZM212.3,90.2c.8-.6,1.5-1.3,2.1-2.1.6-.8,1.2-1.7,1.8-2.6.5-.9.9-1.6,1.2-2.1s.5-.9.8-1.7c.4-.8.7-1.7,1-2.5s.4-1.6.4-2.4c0-.4-.1-.8-.3-1.1-.2-.3-.6-.5-1-.4-.6.1-1.1.3-1.5.7-.6.6-1.2,1.2-1.7,1.8-.7.9-1.5,1.9-2.3,3.1s-1.6,2.5-2.3,3.8c-.6,1.1-1.1,2.3-1.5,3.6-.1.3-.1.7-.1,1.1s.1.9.4,1.2c.3.2.6.4,1,.3.7,0,1.4-.3,2-.7ZM215.4,73.4c.8-.9,1.5-1.7,2.2-2.3l2.5-2.5c.9-.9,2-2,3.2-3.3,1.2-1.3,2.4-2.6,3.5-3.9.9-1.1,1.7-2.2,2.4-3.5.4-.6.6-1.3.6-2,0-1-.6-1.4-1.7-1.2-1.2.2-2.3.8-3.2,1.7-1.1,1.1-2.1,2.3-2.9,3.6-.9,1.5-1.8,3.1-2.5,4.7-.8,1.6-1.5,3.2-2.2,4.8-.8,1.4-1.3,2.8-1.9,3.9Z"/>
      <path class="cls-1" d="M229.5,92.2c-2.5.1-4.6-1.8-4.7-4.3v-.7c0-1.1.2-2.3.6-3.3.3-1.1.8-2.1,1.3-3.1.8-1.6,2-3.1,3.3-4.3,1.3-1.2,3-1.9,4.8-1.9s3,.5,3.7,1.5,1.1,2.3,1.1,3.6c0,.6-.1,1.2-.1,1.8-.3,1.7-.8,3.3-1.7,4.8.2.3.6.6.9.8.4.2.8.3,1.3.3.7,0,1.5-.2,2.1-.7.6-.4,1.1-1,1.5-1.6.4-.7.8-1.3,1.1-1.8.2-.4.4-.6.6-.6s.1.1.1.2c-.1.3-.2.6-.3.9-.5,1.1-1.2,2.1-2,3-.8.8-1.9,1.3-3,1.2-1,.1-2-.4-2.6-1.2-.9,1.5-2.1,2.8-3.4,3.9-1.5,1-3,1.5-4.6,1.5ZM229.6,91.6c1.9-.1,3.6-1,4.8-2.4.5-.5.9-1,1.3-1.5.4-.5.7-1,1-1.6-.4-.5-.7-1-.9-1.6-.2-.5-.3-1.1-.3-1.7,0-.8.1-1.5.4-2.2.2-.6.7-1,1.3-1,.3,0,.6.2.8.4.3.4.5.8.5,1.3.1-.5.2-1,.2-1.5,0-1-.2-2.1-.7-3-.5-.8-1.4-1.2-2.3-1.1-.8,0-1.5.3-2.1.8-.7.5-1.4,1.2-2,1.9-.6.7-1.1,1.5-1.6,2.3s-.8,1.4-1.1,1.9c-.5,1.1-.9,2.2-1.2,3.3-.2.8-.4,1.7-.4,2.6-.1.9.2,1.7.7,2.5.3.3.9.6,1.6.6h0Z"/>
      <path class="cls-1" d="M254.2,90.3c-.5.4-1.1.8-1.7,1-.5.2-1,.3-1.5.3-.8,0-1.5-.3-2.1-.9s-.9-1.5-.8-2.3c0-.7.2-1.4.4-2.1.5-1.3,1.1-2.4,2-3.5s1.7-2.2,2.5-3.4c.5-.6.7-1.3.8-2,0-.3-.1-.6-.3-.9-.3-.3-.6-.4-1-.4-.3-.1-.6-.1-.9-.1h-3.4c-.2,1-.5,1.9-.8,2.8-.4,1-.9,2.1-1.4,3.1s-1,2-1.6,2.8c-.1.2-.3.3-.4.3s-.1-.1-.1-.3,0-.4.1-.6c.7-1.4,1.4-2.7,2-4s1.1-2.7,1.3-4.2c-.8-.5-1.4-1.3-1.6-2.3,0-.2-.1-.3-.1-.5v-.4c0-.5.1-1.1.4-1.5.2-.4.5-.6.9-.6.5,0,.9.4,1.2,1.4.1.3.1.5.1.8s0,.5.1.8v.8c0,.2,0,.4-.1.6.3.1.6.1.9.2h1.3c.7,0,1.4,0,2.2-.1s1.4-.1,2-.1c.5-.1,1,.1,1.3.4.2.3.4.6.4,1,0,.6-.1,1.1-.4,1.6-.2.5-.5,1-.7,1.5-.4.8-.8,1.5-1.2,2.1s-.8,1.3-1.3,2c-.6.9-1.1,1.9-1.5,2.9-.3.7-.4,1.5-.5,2.2,0,1,.4,1.6,1.2,1.6.9-.2,1.8-.6,2.5-1.4.7-.6,1.3-1.3,1.8-2,.5-.8,1-1.6,1.4-2.4l1.1-2c.1-.1.1-.2.2-.2s.2.1.2.4c0,.2-.1.4-.2.6-.6,1-1.2,2.2-2,3.4-.8,1.6-1.7,2.7-2.7,3.6Z"/>
      <path class="cls-1" d="M269,91.6c-.9.1-1.7-.3-2.2-1-.4-.7-.6-1.5-.6-2.3,0-.2,0-.5.1-.9s.1-.8.2-1.2c-.5.6-1,1.3-1.7,2.1-.6.7-1.3,1.4-2,2-.8.7-1.8,1.2-2.9,1.2-.8,0-1.5-.3-1.9-1-.5-.8-.7-1.7-.7-2.7,0-1.4.3-2.9.9-4.2,1.2-2.9,3.2-5.4,5.7-7.2.8-.6,1.7-1,2.6-1.3,1-.3,2-.5,3.1-.5s2.1.2,3.1.5c.8.3,1.4.8,1.8,1.5-.8,1.1-1.5,2.2-2.2,3.3-.7,1.3-1.4,2.5-1.9,3.6-.4.7-.8,1.7-1.2,2.7-.4.9-.6,1.8-.6,2.8,0,.3.1.7.2,1,.2.3.6.5,1,.5.6,0,1.1-.2,1.6-.6s.9-.8,1.3-1.2c.8-.9,1.5-1.8,2.1-2.8s1.3-2.1,1.9-3.2c.1-.1.2-.2.3-.2s.2.1.2.3c0,.1,0,.3-.1.4-.6,1.1-1.2,2.2-1.9,3.3-.7,1.1-1.6,2.2-2.5,3.1-.5.5-1,.9-1.7,1.2-.7.6-1.3.8-2,.8ZM261,90c.8-.1,1.5-.4,2.1-1,.8-.8,1.6-1.6,2.2-2.5.7-1,1.4-1.9,2-2.9s1-1.6,1.4-2.1c.6-1,1.3-1.9,2-2.8.7-.8,1.7-1.4,2.8-1.7h.4c-.4-.5-.9-.8-1.5-1-.7-.2-1.4-.4-2.1-.4-1.1,0-2.1.3-3,.9-1,.5-2,1.2-2.9,2-.8,1-1.6,2-2.3,3-.7,1-1.3,2.1-1.7,3.2-.4,1-.7,2.1-.7,3.2,0,.5.1,1,.3,1.4.2.5.5.7,1,.7h0Z"/>
      <path class="cls-1" d="M302.7,94.2c-1.7.4-3.4.6-5.2.6-2.2.1-4.5-.3-6.5-1.2-1.6-.7-3-1.9-4-3.4-.9-1.4-1.5-2.9-1.8-4.5-.1-.8-.1-1.5-.1-2.3,0-2,.3-4,.9-5.9.7-2.4,1.7-4.6,2.9-6.8,1.3-2.2,2.8-4.3,4.5-6.1,1.7-1.9,3.7-3.5,5.8-4.9,2-1.4,4.2-2.4,6.6-3.2,1-.4,2.1-.6,3.2-.8,1-.1,2-.2,3-.2.6,0,1.2,0,1.8.1.5,0,1.1.2,1.6.3,1.2.3,2.2.9,3.1,1.7.8.8,1.2,1.9,1.1,3,0,.4-.1.7-.1,1.1,1,1,1.7,2.2,2.1,3.5.4,1.4.6,2.9.6,4.3,0,1.1-.1,2.2-.3,3.2-.2,1.1-.4,2.2-.8,3.3-.8,2.6-2,5-3.5,7.2-1.5,2.3-3.4,4.4-5.5,6.1-2.1,1.8-4.5,3.1-7,4.1-.1.1-1.7.6-2.4.8ZM304,92.7c2.5-1.2,4.7-2.7,6.7-4.6,1.9-1.9,3.6-4.1,5-6.5,1.3-2.2,2.4-4.6,3.1-7.1.3-.9.5-1.8.6-2.8.1-.9.2-1.9.2-2.8,0-1-.1-2-.3-3-.2-.9-.5-1.8-.9-2.6-.3.3-.6.6-1,.7-.2.1-.3.1-.5.2-.1,0-.2,0-.2-.2,0-.1.1-.2.2-.3.4-.4.7-.9.9-1.5-.7-.8-1.5-1.5-2.4-2-1.2-.6-2.4-.8-3.7-.8-1.6,0-3.2.4-4.7,1-1.8.7-3.4,1.7-4.9,2.9-1,.8-1.9,1.8-2.6,2.9s-1.3,2.2-1.7,3.5c-.4,1-.6,2-.6,3.1-.1.7.2,1.5.8,1.9.3.1.5.3.5.4s-.1.2-.2.2c-.2,0-.3,0-.5-.1-.6-.2-1.1-.7-1.3-1.2-.3-.7-.4-1.4-.4-2.1.1-1.6.4-3.2,1.1-4.6.7-1.6,1.8-3.1,3.1-4.3,1.6-1.4,3.5-2.6,5.5-3.3,1.9-.7,3.9-1.1,5.9-1.1,1.2,0,2.4.2,3.6.5,1,.3,1.9.7,2.8,1.3,0-.9-.4-1.7-1.1-2.3s-1.5-1.1-2.4-1.3c-.9-.3-1.9-.4-2.9-.4-.9,0-1.7.1-2.6.2-1,.2-1.9.4-2.8.7-1.4.5-2.8,1.1-4,2-1.4,1-2.8,2.2-4,3.4-1.3,1.3-2.5,2.7-3.7,4.2-1.1,1.4-2.1,2.9-2.9,4.5-1,1.8-1.7,3.8-2.3,5.8-.6,2.1-1,4.3-1,6.5v1.5c0,.5.1,1,.2,1.5.2,1.3.7,2.5,1.4,3.5.7,1.1,1.7,2,2.9,2.6,1.4.7,3,1.1,4.6,1h.2c.7,0,1.4-.1,2.1-.2s1.4-.3,2.1-.5c.8.1,1.4-.1,2.1-.4Z"/>
      <path class="cls-1" d="M325.4,91.5c-.8.1-1.7-.3-2.2-.9s-.7-1.4-.7-2.2c0-1.2.3-2.5.7-3.6.4-1.3,1-2.5,1.6-3.7s1.1-2.1,1.5-2.8c.5-1,1.2-1.8,2.2-2.3.9-.3,1.8-.5,2.8-.5-.5.3-1,.7-1.3,1.2-.6.8-1.2,1.6-1.7,2.5-.6,1.1-1.2,2.1-1.7,3.2s-.9,2.2-1.3,3.4c-.3.9-.5,1.8-.5,2.8,0,.5.1,1,.3,1.4.2.4.6.6,1,.6.5,0,1-.2,1.4-.5.5-.3,1-.7,1.5-1.2,1.5-1.6,2.7-3.4,3.6-5.4s2-3.9,3.1-5.8c.5-1,1.3-1.8,2.2-2.3.9-.3,1.8-.5,2.8-.4-.5.3-1,.7-1.3,1.2-.7.9-1.3,1.8-1.8,2.7-.6,1.1-1.2,2.3-1.7,3.4-.5,1.2-1,2.3-1.3,3.5-.3.9-.5,1.9-.5,2.9,0,.5.1.9.3,1.3.2.4.6.6,1,.5.5,0,1-.2,1.4-.5.5-.3,1-.7,1.5-1.2.8-.9,1.5-1.8,2.1-2.8s1.3-2.1,1.9-3.2l.2-.2s.2.1.2.3c0,.1,0,.3-.1.4-.6,1.1-1.2,2.2-1.9,3.3-.7,1.1-1.5,2.2-2.5,3.1-.5.5-1.2,1-1.9,1.3-.7.4-1.4.5-2.1.3-.8-.1-1.5-.5-2-1.1-.4-.6-.6-1.4-.6-2.1s.1-1.4.3-2.1c-.4.6-.8,1.3-1.3,1.9s-1,1.2-1.5,1.8c-.5.5-1.1.9-1.7,1.2-.6.4-1.3.6-2,.6Z"/>
      <path class="cls-1" d="M346.8,91.6c-1.9,0-3.3-.5-4.1-1.5-.4-.4-.7-1-.9-1.6-.2-.6-.2-1.2-.2-1.9,0-.8.1-1.6.3-2.4.2-.8.4-1.5.8-2.3.5-1.2,1.1-2.3,1.8-3.3.8-1.1,1.7-2.1,2.8-2.8,1.1-.8,2.3-1.2,3.6-1.2.7,0,1.5.2,2.1.7.5.5.8,1.3.8,2,0,1.1-.4,2.2-1,3.2s-1.4,1.9-2.4,2.6c-.9.6-1.9,1-3,1-.9,0-1.8-.4-2.5-1-.2.6-.4,1.2-.5,1.8-.1.7-.2,1.3-.2,2,0,1,.2,1.9.6,2.8.5.8,1.4,1.3,2.3,1.2.8,0,1.6-.2,2.3-.6.8-.4,1.5-.9,2.1-1.5.7-.7,1.3-1.5,1.9-2.3.7-.9,1.2-1.8,1.8-2.8.1-.1.1-.2.1-.2.1,0,.2.2.2.4s-.1.5-.2.7c-.6,1-1.2,1.9-1.8,2.8-.6.9-1.3,1.6-2,2.4-.6.6-1.3,1.1-2.1,1.5-.8.1-1.7.3-2.6.3ZM345.1,82.3c.2.3.5.6.8.7.3.2.7.2,1,.2.9,0,1.8-.3,2.5-.9.8-.6,1.6-1.3,2.1-2.2.3-.5.5-.9.6-1.5.2-.6.3-1.1.3-1.7,0-.4-.1-.9-.3-1.2-.2-.4-.6-.6-1.1-.5-.8.1-1.6.5-2.1,1.1-.9.8-1.7,1.8-2.3,2.9-.2.4-.5.9-.8,1.4-.3.6-.5,1.2-.7,1.7h0Z"/>
      <path class="cls-1" d="M356.5,91.5c-.8.1-1.6-.3-2.1-.9-.4-.7-.7-1.5-.6-2.3,0-.3,0-.6.1-.8,0-.3.1-.6.2-.9.4-1.5,1-3,1.7-4.5.8-1.7,1.5-3.2,2.3-4.4.3-.6.7-1.1,1.2-1.6.4-.3.8-.5,1.2-.7l1.5-.5c.2-.1.3-.1.5-.2l.5-.1c-.7.8-1.4,1.6-2,2.4-.8,1.2-1.6,2.5-2.2,3.9-.4.9-.9,1.8-1.3,2.9s-.8,2.1-1.1,3c-.3.7-.4,1.5-.5,2.2-.1.5,0,.9.2,1.4.2.3.5.4.8.4.6,0,1.2-.2,1.6-.6.5-.4,1-.8,1.4-1.2.8-.9,1.5-1.8,2.1-2.8s1.3-2.1,1.9-3.2c.1-.1.2-.2.3-.2s.2.1.2.3c0,.1,0,.3-.1.4-.6,1.1-1.2,2.2-1.9,3.3-.7,1.1-1.5,2.2-2.5,3.1-.5.5-1,.8-1.5,1.2-.5.2-1.2.4-1.9.4ZM362.7,71.7c-.4,0-.7-.1-1-.4-.2-.2-.4-.6-.4-.9,0-.5.2-1,.6-1.3.3-.4.8-.6,1.3-.6.4,0,.7.1,1,.4.2.3.4.6.4.9,0,.5-.2.9-.6,1.3-.3.4-.8.6-1.3.6Z"/>
      <path class="cls-1" d="M370.4,91.7c-.8.1-1.6-.2-2.2-.8-.4-.6-.6-1.3-.6-2,0-.4,0-.8.1-1.2.1-.4.2-.8.3-1.1.3-.9.8-1.7,1.3-2.5.5-.7,1-1.4,1.5-2.2s.9-1.2,1.3-1.8c.4-.6.8-1.2,1.1-1.9.2-.3.3-.7.3-1.1s-.1-.8-.4-1c-.2-.2-.6-.3-.9-.3-.5,0-.9.1-1.4.3-1,.4-2,1-2.9,1.6-.3.3-.7.4-1.1.5-.2.6-.4,1.2-.6,1.7-.3.8-.7,1.7-1.2,2.6s-1,1.8-1.5,2.6c-.1.2-.2.3-.4.3s-.1-.1-.1-.3,0-.4.1-.6c.7-1.2,1.3-2.4,1.8-3.5.4-.9.8-1.9,1.2-2.9-.3,0-.7-.1-.9-.4-.2-.3-.2-.6-.2-.9,0-.4.1-.8.2-1.2.1-.4.3-.8.4-1,.6.3,1.2.5,1.8.6.6.1,1.3.1,1.9.2.8,0,1.5,0,2.3-.1s1.4-.1,2-.1c.5-.1,1.1.1,1.4.5s.4.8.4,1.3c0,.6-.1,1.2-.3,1.7-.2.5-.4,1-.6,1.5-.5.9-1,1.8-1.5,2.7-.6.9-1.1,1.8-1.6,2.7l-.7,1.5c-.3.7-.6,1.4-.7,2.1v.4c0,.3.1.6.3.8.2.2.4.3.7.2.6,0,1.1-.2,1.6-.5s.9-.7,1.3-1.2c.8-.9,1.5-1.8,2.1-2.8s1.3-2.1,1.9-3.3c.1-.1.1-.2.2-.2s.2.1.2.4c0,.2-.1.4-.1.6-.6,1.1-1.2,2.2-1.9,3.2-.7,1.1-1.5,2.1-2.4,3-.5.5-1,.9-1.6,1.2-.5.5-1.2.7-1.9.7Z"/>
      <path class="cls-1" d="M381.7,92.2c-2.5.1-4.6-1.9-4.7-4.4v-.6c0-1.1.2-2.3.6-3.3.3-1.1.8-2.1,1.3-3.1.9-1.6,2-3.1,3.3-4.3,1.3-1.2,3-1.9,4.8-1.9,1.4-.2,2.8.4,3.7,1.5.7,1.1,1.1,2.3,1,3.6,0,.6-.1,1.2-.1,1.8-.3,1.7-.8,3.3-1.7,4.8.2.3.6.6.9.8.4.2.8.3,1.3.3.7,0,1.5-.2,2.1-.7s1.1-1,1.5-1.6c.4-.7.8-1.3,1.1-1.8.2-.4.4-.6.5-.6s.2.1.2.2c-.1.3-.2.6-.3.9-.5,1.1-1.2,2.1-2,3-.8.8-1.9,1.3-3,1.2-1,.1-2-.4-2.6-1.2-.9,1.5-2.1,2.8-3.4,3.9-1.4.9-2.9,1.5-4.5,1.5ZM381.8,91.6c1.9-.1,3.6-1,4.9-2.4.5-.5.9-1,1.3-1.5s.7-1,1-1.6c-.4-.5-.7-1-.9-1.6-.2-.5-.3-1.1-.3-1.7,0-.8.1-1.5.5-2.2.2-.6.7-1,1.2-1,.3,0,.6.2.8.4.3.4.5.8.5,1.3.1-.5.2-1,.1-1.5,0-1-.2-2.1-.7-3-.5-.8-1.4-1.2-2.3-1.1-.8,0-1.5.3-2.1.8-.7.5-1.4,1.2-2,1.9-.6.7-1.2,1.5-1.6,2.3-.4.6-.7,1.3-1,1.9-.5,1.1-.9,2.2-1.2,3.3-.2.8-.4,1.7-.4,2.6-.1.9.2,1.7.7,2.5.2.3.9.6,1.5.6h0Z"/>
      <path class="cls-1" d="M396.4,105.5c-.2,0-.5.1-.6.1h-.6c-1,.1-1.9-.3-2.6-.9-.6-.6-.9-1.4-.9-2.2s.2-1.5.6-2.2c.5-.8,1.1-1.5,1.9-1.9,1.8-1.1,3.7-2.1,5.6-2.9,2.1-.9,4.2-1.9,6.2-3l.3-.9c.1-.3.2-.7.3-1,.1-.4.2-.8.2-1.3.1-.7-.2-1.3-.6-1.8-.5-.4-1.1-.6-1.7-.5-.9,0-1.8.2-2.6.6l-.9.3-1,.4c-.4.7-.9,1.3-1.5,1.8-.5.4-1,.7-1.6.9h-.5c-.6,0-1-.3-1-.9s.4-1.1.9-1.3c.9-.5,1.8-1.1,2.6-1.7.9-.7,1.8-1.4,2.6-2.1.9-.8,1.9-1.9,3-3.2.7-.8,1.4-1.6,2.2-2.3s1.5-1.5,2.3-2.2c-.4-.1-.7-.1-1.1-.2l-1.5-.2-1.2-.2h-1.1c-.7,0-1.4.1-2,.4-.7.3-1.3.8-1.7,1.5-.5.8-1,1.6-1.5,2.4-.6,1-1.2,2.2-2.1,3.7-.1.2-.2.3-.3.3s-.2-.1-.2-.4c0-.2.1-.4.2-.6.6-1,1.1-2,1.6-3,.4-.9.9-1.8,1.5-2.9.4-.7.9-1.4,1.4-2,.5-.5,1.2-.9,1.9-1.1.3-.1.6-.1.8-.2h.9c.7,0,1.3,0,2,.1.6.1,1.2.1,1.8.1h1.3c.6,0,1.2,0,1.7-.1.4,0,.8-.1,1.2-.2.3.1.4.4.4.7,0,.5-.3,1-.6,1.4-.5.6-1.3.8-2,.6-1,.6-1.9,1.3-2.8,2.1-1,1-1.9,1.9-2.6,2.6-.3.3-.7.7-1.3,1.3-.6.5-1.2,1.1-1.8,1.8s-1.2,1.3-1.7,1.9v.3c.7-.4,1.4-.8,2.2-1,.6-.2,1.2-.3,1.8-.4.5-.1,1-.1,1.4-.1.9-.1,1.8.2,2.4.9.5.6.7,1.4.7,2.2,0,.5-.1,1.1-.2,1.6,1.1-1,2.2-2.1,3.1-3.3.9-1.1,1.7-2.3,2.4-3.5.3-.5.6-.7.8-.7.1,0,.1.1.1.2,0,.2-.1.4-.2.6-.6,1.1-1.3,2.1-2,3.1s-1.4,1.9-2.2,2.8c-.7.7-1.4,1.3-2.2,1.9-.1.4-.2.8-.4,1.2s-.3.8-.5,1.2c-.7,1.9-1.7,3.7-2.8,5.3-1,1.6-2.2,2.9-3.7,4.1-1.2.9-2.8,1.7-4.5,2ZM396.1,104.6c1.6-.5,3.1-1.4,4.3-2.6,1.2-1.3,2.2-2.7,3-4.2.8-1.6,1.6-3.1,2.3-4.6-1,.7-2.1,1.2-3.2,1.7-1.4.6-2.7,1.2-4.1,1.9-1.3.6-2.5,1.2-3.7,2-.7.4-1.2,1-1.6,1.7-.3.6-.5,1.2-.5,1.9,0,.6.2,1.2.6,1.6.4.5,1.1.7,1.7.7h.6c.2,0,.4,0,.6-.1h0Z"/>
      <path class="cls-1" d="M307.1,88.5c-.8-.6-1.8-1.1-2.7-1.5-1.1-.5-2.2-1-3.4-1.2-.5-.1-1-.2-1.5-.2s-1,0-1.4.1c-.9.1-1.7.5-2.3,1.1-.1.1-.2.2-.1.3,0,.1.1.2.2.1h.1c.4-.3.8-.4,1.3-.5,1.2-.1,2.4,0,3.5.5,1.4.6,2.8,1.3,4,2.2l.9.6c1.7,1.3,3.5,2.9,5.3,4.6,1.5,1.4,3.1,2.7,4.7,4,1.5,1.2,3.2,2.2,5,2.9,1.7.7,3.5.9,5.3.6,1.1-.2,2.2-.6,3.2-1.2.9-.6,1.7-1.4,2.2-2.4.5-1.2.6-2.4.4-3.7-.2-1.2-.7-2.4-1.4-3.4-.7-1.2-1.8-2.1-3-2.6-.1-.1-.3-.1-.4-.1s-.2.1-.2.2h0c0,.1.1.1.2.2.7.4,1.3.9,1.8,1.6.6.7,1,1.4,1.4,2.2.3.7.6,1.4.7,2.2.3,1.2.1,2.4-.6,3.4-.7.8-1.6,1.4-2.7,1.5-1.5.2-3.1,0-4.5-.6-1.7-.7-3.4-1.6-5-2.7-1.7-1.1-3.3-2.3-5-3.6-1.7-1.3-3.2-2.4-4.6-3.5l-1.4-1.1Z"/>
    </g>
    <g>
      <path class="cls-1" d="M204.1,122.4c-.1,0-.3-.1-.3-.2v-.3c0-.1.2-.2.3-.2.5-.1.9-.2,1.3-.4s.6-.6.6-1.1l.7-12.4c0-.2-.1-.4-.3-.6s-.4-.3-.7-.4c-.2-.1-.4-.2-.7-.2-.2,0-.3-.2-.2-.4,0-.1.1-.2.2-.2h11.3c.2,0,.3,0,.4.1.1.2.1.3.1.5l-.1,2.5v.2c0,.1-.1.2-.1.2h-.3c-.1,0-.1-.1-.2-.1-.1-.6-.3-1.1-.5-1.6-.2-.3-.5-.6-.9-.7-.6-.1-1.1-.2-1.7-.2h-5.4c.2,0,.4.2.6.3.1.2.1.3.1.5l-.3,5.9h3.4c.4,0,.9-.1,1.3-.2.3-.2.6-.5.8-.8.1-.2.2-.2.4-.2h0c.1,0,.1.1.2.2v.2l-.1,2.6v.2c0,.1-.1.1-.2.2-.2.1-.3,0-.4-.2-.4-.7-1.2-1.1-2-1.1h-3.4l-.3,5.5c-.1.4.2.9.6,1.1.4.2.8.4,1.3.4.1,0,.2.1.3.2v.3c-.1.1-.2.2-.4.2l-5.4.2Z"/>
      <path class="cls-1" d="M219.6,121.3l.5-8.7h-.1c-.1,0-.2.1-.3.1-.5.4-1.2.3-1.6-.2l1-.7c.4-.3.8-.5,1.1-.8.2-.1.5-.3.7-.4s.4-.1.6,0c.2.1.2.3.2.4l-.5,9.5c0,.2,0,.4.1.6s.2.3.5.3c.2,0,.4-.1.6-.2.3-.2.5-.4.7-.6.1-.1.2-.2.3-.1.1,0,.2.1.1.3-.1.5-.4,1-.8,1.4-.4.4-1,.7-1.6.7-.4,0-.8-.1-1.1-.5-.3-.4-.4-.8-.4-1.1ZM219.2,106.3c-.1-.2,0-.3.2-.3.2-.1.5-.1.8,0,.3,0,.6.2.9.3.3.1.5.4.6.7.1.3.1.7-.1.9-.3.5-.9.7-1.4.6-.3,0-.5-.2-.5-.5,0-.2,0-.4-.1-.7-.1-.4-.3-.7-.4-1h0Z"/>
      <path class="cls-1" d="M227.4,113.2c0,.4.1.8.4,1.1.3.3.7.6,1.1.8.5.2,1,.5,1.5.8s1.1.6,1.7.9c.6.3,1,.7,1.5,1.2.4.5.6,1.1.5,1.8,0,.6-.3,1.2-.7,1.7s-1,.9-1.6,1.2c-.7.3-1.5.4-2.2.4-.9,0-1.7-.2-2.5-.6-.6-.3-1.1-.8-1.5-1.3-.3-.4-.5-.9-.6-1.5,0-.5.3-.8,1-1,.5-.1.9,0,1,.2.1.1.1.3,0,.4l-.2.5c0,.4.2.7.4,1,.2.4.6.7.9.9,1.2.6,2.6.5,3.6-.2.5-.4.8-1,.8-1.6,0-.4-.1-.9-.4-1.2-.4-.3-.8-.6-1.2-.8l-1.5-.8-1.5-.8c-.5-.3-1-.7-1.3-1.1-.7-1-.7-2.4.1-3.4.4-.5,1-.9,1.6-1.1.7-.3,1.5-.4,2.2-.3.7,0,1.4.2,2,.5.5.2.9.6,1.2,1,.2.3.4.6.4.9,0,.2,0,.4-.1.5-.1.3-.4.5-.7.6-.2.1-.4.1-.6.1s-.3-.1-.3-.3v-.4c0-.1.1-.2.2-.3,0-.2-.1-.4-.2-.6-.2-.3-.4-.6-.7-.8-.4-.3-.9-.4-1.4-.4-.7-.1-1.4.1-2,.6-.6.2-.9.8-.9,1.4Z"/>
      <path class="cls-1" d="M237.5,121.3l.5-8.7h-.1c-.1,0-.2.1-.3.1-.5.4-1.2.3-1.6-.2l1-.7,1.1-.8c.2-.1.5-.3.7-.4s.4-.1.6,0c.2.1.2.3.2.4l-.5,9.5c0,.2,0,.4.1.6s.2.3.5.3c.2,0,.4-.1.6-.2.3-.2.5-.4.7-.6.1-.1.2-.2.3-.1.1,0,.2.1.1.3-.1.5-.4,1-.8,1.4-.4.4-1,.7-1.6.7-.4,0-.8-.1-1.1-.5-.3-.4-.4-.8-.4-1.1ZM237.1,106.3c-.1-.2,0-.3.2-.3.2-.1.5-.1.8,0s.6.2.9.3c.3.2.5.4.6.7.1.3.1.7-.1.9-.3.5-.9.7-1.4.6-.3,0-.5-.2-.5-.5,0-.2,0-.4-.1-.7-.1-.4-.2-.7-.4-1h0Z"/>
      <path class="cls-1" d="M248.1,122.6c-.9,0-1.8-.3-2.6-.8s-1.4-1.3-1.8-2.2c-.4-1-.6-2.1-.5-3.2s.4-2.2,1-3.2c.5-.9,1.2-1.6,2.1-2.1.9-.5,1.9-.8,2.9-.8.9,0,1.8.3,2.6.8s1.4,1.3,1.9,2.1c.5,1,.6,2.1.5,3.2s-.4,2.2-1,3.2c-.5.9-1.3,1.6-2.1,2.2-1,.6-2,.8-3,.8ZM244.9,116.5c0,.9.1,1.8.4,2.6.2.7.7,1.4,1.2,1.9s1.2.7,1.9.7,1.4-.2,2-.7,1.1-1.1,1.4-1.9c.4-.8.6-1.7.6-2.6.1-.9-.1-1.7-.4-2.6-.2-.7-.7-1.4-1.2-1.9s-1.2-.7-1.9-.7-1.4.2-2,.7-1.1,1.1-1.4,1.9c-.4.9-.6,1.7-.6,2.6h0Z"/>
      <path class="cls-1" d="M257.3,120l.3-8.1-.8.1c-.2,0-.3.1-.5.1s-.3.1-.4.3c-.1.1-.2.1-.3.1s-.2-.1-.2-.3l.1-1c0-.2.2-.3.3-.3h1.8l.1-2.3c-.1-.7.4-1.2,1.1-1.3h.4l-.1,3.6h2.9c.2,0,.3.1.3.3l-.1,1c0,.2-.1.3-.2.3s-.2,0-.2-.1c-.1-.1-.3-.3-.4-.3-.2-.1-.5-.1-.8-.2h-1.5l-.3,7.7c-.1.5.1.9.3,1.3.2.3.6.4.9.5.4,0,.8-.1,1.1-.2.4-.2.7-.4,1-.7.1-.1.3-.1.4,0s.2.2.1.4c-.2.6-.7,1-1.2,1.3-.5.4-1.2.6-1.8.6-.3,0-.7-.1-1-.2-.4-.2-.7-.5-.9-.8-.3-.6-.5-1.2-.4-1.8Z"/>
      <path class="cls-1" d="M269.6,121.5c.6,0,1.2,0,1.8-.2.5-.2.9-.5,1.3-.8.3-.3.6-.6.8-.9.1-.2.2-.3.4-.3s.3,0,.5.2c-.1.3-.2.5-.4.8-.2.4-.5.8-.9,1.1-.4.4-.9.8-1.5,1-.7.3-1.4.4-2.1.4-1,0-2-.2-2.8-.7s-1.5-1.2-1.9-2c-.5-.9-.7-1.9-.6-2.9,0-1,.2-1.9.7-2.8.7-1.6,2-2.8,3.7-3.4.7-.3,1.5-.4,2.2-.4.6,0,1.2.1,1.7.3.4.2.8.5,1.1.8.2.3.4.6.5.9.1.2.1.5.1.8,0,.6-.2,1.3-.6,1.8-.4.6-1,1-1.6,1.4-.7.4-1.4.7-2.2.9s-1.7.3-2.5.3c-.2,0-.5-.1-.6-.2s-.1-.3-.1-.5c.6,0,1.3-.1,1.9-.3.7-.2,1.3-.4,1.9-.7.5-.3,1-.6,1.5-1.1.3-.3.6-.8.6-1.2,0-.6-.2-1.1-.6-1.5s-.9-.6-1.5-.6c-.8,0-1.6.2-2.2.7-.7.5-1.2,1.2-1.6,2s-.6,1.8-.7,2.7c0,.8.1,1.6.4,2.3.2.7.7,1.3,1.2,1.7.7.1,1.4.4,2.1.4Z"/>
      <path class="cls-1" d="M275.8,112.3l1-.7,1.1-.8c.2-.2.5-.3.7-.4s.4-.1.6,0,.3.3.2.4l-.3,5.9c.2-1.1.6-2.2,1.1-3.1.4-.8,1-1.5,1.7-2.1.5-.4,1-.8,1.6-1,.2-.1.3-.1.5,0,.1.1.3.2.4.3.3.3.4.6.4,1s-.1.6-.5.6h-.3l-.3-.1c-.5,0-1,.2-1.4.5-.6.5-1.1,1.1-1.5,1.8-.5.9-1,1.9-1.3,2.9-.4,1.3-.6,2.6-.6,3.9,0,.3-.1.7-.4.9-.4.2-.8.3-1.2.2l.5-10.1h-.1c-.1,0-.2.1-.3.1-.4.4-1.2.3-1.6-.2Z"/>
      <path class="cls-1" d="M289.5,122.8c-.7,0-1.4-.2-2-.6s-1.2-1-1.5-1.7c-.4-.8-.6-1.7-.6-2.6s.2-1.8.5-2.7c.3-.9.8-1.7,1.4-2.3.6-.7,1.2-1.3,2-1.7,1.5-.8,3.2-.8,4.8-.2.5.2.9.5,1.3.8l-.3,8.7c0,.2,0,.4.1.6s.3.3.5.2c.2,0,.4-.1.6-.2.3-.2.5-.4.7-.6.1-.1.2-.2.3-.1.1,0,.2.1.1.3-.1.5-.4,1-.8,1.4s-1,.7-1.6.7c-.4,0-.8-.2-1.1-.5-.2-.3-.4-.7-.4-1.1l.1-2.5c-.2.7-.5,1.3-.9,1.9s-.9,1.1-1.4,1.6c-.5.3-1.1.6-1.8.6ZM287.2,117.9c0,.6.1,1.2.3,1.7.2.5.5,1,.9,1.4s.9.6,1.4.5c.5,0,1-.2,1.4-.5.5-.4.9-.9,1.2-1.4.4-.6.7-1.2.9-1.9.2-.6.4-1.3.4-1.9l.1-2.2v-.6c0-.2-.1-.3-.2-.4-.2-.3-.5-.6-.8-.8-.4-.2-.8-.3-1.3-.3-.7,0-1.3.2-1.8.6-.6.4-1,1-1.4,1.6-.6,1.3-1,2.7-1.1,4.2h0Z"/>
      <path class="cls-1" d="M301.4,125.3v1.2c0,.4-.1.8-.3,1.1-.2.2-.6.3-1.3.3l.5-12.4c-.5.8-.9,1.7-1.2,2.6-.1,0-.2-.1-.3-.2-.1-.1-.1-.3,0-.7.2-.6.4-1.2.6-1.8.3-.6.6-1.1,1-1.6l.1-2.4c0-.4.2-.7.5-.9.3-.2.7-.2,1,0v1.7c.6-.5,1.3-1,2-1.3.6-.3,1.4-.4,2-.3.9,0,1.7.4,2.3,1,.6.6,1.1,1.4,1.3,2.3.3,1,.3,2,.2,3-.1.9-.4,1.8-.8,2.6-.4.8-.9,1.4-1.6,2-.6.5-1.3.9-2,1.1-.5.1-1,.2-1.6.1-.5,0-1-.2-1.5-.5-.2-.1-.3-.3-.2-.4,0-.1,0-.2.1-.3.4.3,1,.4,1.5.4.6,0,1.2-.2,1.7-.5.7-.4,1.2-1,1.6-1.6.5-.8.8-1.6.9-2.6.1-.8.1-1.7,0-2.5-.1-.7-.4-1.3-.9-1.9-.4-.5-.9-.8-1.5-.9s-1.3,0-1.9.3c-.7.3-1.3.8-1.9,1.3l-.3,11.8Z"/>
      <path class="cls-1" d="M317,121.5c.6.1,1.2,0,1.8-.2.5-.2.9-.5,1.3-.8.3-.3.6-.6.8-.9.2-.3.5-.4.8-.2,0,0,.1,0,.1.1-.1.3-.2.5-.4.8-.5.9-1.4,1.6-2.3,2.1-.7.3-1.4.4-2.1.4-1,0-1.9-.2-2.8-.7-.8-.5-1.5-1.2-1.9-2-.5-.9-.7-1.9-.6-2.9,0-1,.2-1.9.7-2.8.4-.8.9-1.5,1.6-2.1.6-.6,1.3-1,2.1-1.3.7-.3,1.5-.4,2.2-.4.6,0,1.2.1,1.7.3.4.2.8.5,1.1.8.2.3.4.6.5.9.1.2.1.5.2.8,0,.6-.2,1.3-.6,1.8-.4.6-1,1-1.6,1.4-.7.4-1.4.7-2.2.9s-1.7.3-2.5.3c-.2,0-.4-.1-.6-.2-.1-.1-.1-.3-.1-.5.6,0,1.3-.1,1.9-.3.7-.2,1.3-.4,1.9-.7.5-.3,1-.6,1.5-1.1.4-.3.6-.8.6-1.2,0-.6-.2-1.1-.6-1.5s-.9-.6-1.5-.6c-.8,0-1.6.2-2.2.7-.7.5-1.2,1.2-1.6,2s-.6,1.8-.7,2.7c0,.8.1,1.6.4,2.3.2.7.7,1.3,1.2,1.7.5.1,1.2.4,1.9.4Z"/>
      <path class="cls-1" d="M327.5,122.8c-.4,0-.8-.1-1.2-.3-.4-.2-.8-.5-1-.9-.3-.6-.4-1.2-.3-1.8l.4-7.2h-.1c-.1,0-.2.1-.4.1-.5.4-1.2.3-1.6-.2.3-.2.6-.4,1-.7l1.1-.7c.2-.2.4-.3.7-.4.2-.1.4-.1.6,0s.3.3.2.4l-.5,8.6c0,.4.1.9.4,1.2.3.3.8.5,1.3.5.8,0,1.6-.4,2.2-1,.9-.9,1.5-1.9,1.9-3.2.1-.4.2-.7.2-1.1.1-.4.1-.8.1-1.2l.2-3.1c0-.4.1-.8.4-1.1.3-.2.8-.3,1.2-.2l-.4,10c0,.2,0,.4.1.6s.3.3.5.2c.2,0,.4-.1.6-.2.3-.2.5-.4.7-.6.1-.1.2-.1.3-.1s.2.1.1.3c-.1.5-.4,1-.8,1.4s-1,.7-1.6.7c-.4,0-.8-.2-1.1-.5-.2-.3-.4-.7-.3-1.1l.1-2.6c-.3.8-.6,1.5-1.1,2.1s-1,1.1-1.7,1.5c-.7.4-1.5.6-2.2.6Z"/>
      <path class="cls-1" d="M339,120l.3-8.1-.8.1c-.2,0-.4.1-.5.1-.2,0-.3.1-.4.3-.1.1-.2.1-.3.1s-.2-.1-.2-.3l.1-1c0-.2.1-.3.4-.3h1.8l.1-2.3c0-.3.1-.7.3-.9.3-.3.8-.4,1.2-.3l-.1,3.6h2.9c.2,0,.3.1.3.3l-.1,1c0,.1-.1.2-.2.3-.1,0-.2,0-.3-.1-.1-.2-.3-.3-.4-.3-.2-.1-.5-.1-.7-.2h-1.5l-.3,7.7c-.1.5.1.9.3,1.3.2.3.6.4.9.5.4,0,.8-.1,1.1-.2.4-.2.7-.4,1-.7.1-.1.3-.1.4,0s.2.2.1.4h0c-.2.6-.6,1-1.2,1.3-.5.4-1.2.6-1.8.6-.3,0-.7-.1-1-.2-.4-.2-.8-.5-1-.9-.3-.7-.4-1.3-.4-1.8Z"/>
      <path class="cls-1" d="M349.7,122.8c-.7,0-1.4-.2-2-.6s-1.2-1-1.5-1.7c-.4-.8-.6-1.7-.6-2.6s.2-1.8.5-2.7c.3-.9.8-1.7,1.4-2.3.6-.7,1.2-1.3,2-1.7,1.5-.8,3.2-.8,4.8-.2.5.2.9.5,1.3.8l-.3,8.7c0,.2,0,.4.1.6s.2.2.5.2c.2,0,.4-.1.6-.2.3-.2.5-.4.7-.6.1-.1.2-.2.3-.1.1,0,.2.1.1.3-.1.5-.4,1-.8,1.4s-1,.7-1.6.7c-.4,0-.8-.2-1.1-.5-.2-.3-.4-.7-.3-1.1l.1-2.5c-.2.7-.5,1.3-.9,1.9s-.9,1.1-1.4,1.6c-.5.3-1.2.6-1.9.6ZM347.5,117.9c0,.6.1,1.2.3,1.7.2.5.5,1,.9,1.4s.9.6,1.4.5c.5,0,1-.2,1.4-.5.5-.4.9-.9,1.2-1.4.4-.6.7-1.2.9-1.9.2-.6.4-1.3.4-1.9l.1-2.2v-.6c0-.2-.1-.3-.1-.4-.2-.3-.5-.6-.8-.8-.4-.2-.8-.3-1.3-.3-.7,0-1.3.2-1.9.6s-1,1-1.4,1.6c-.7,1.3-1.1,2.7-1.1,4.2h0Z"/>
    </g>
  </g>
</svg>