<?xml version="1.0" encoding="utf-8"?>
<!-- Generator: Adobe Illustrator 24.0.1, SVG Export Plug-In . SVG Version: 6.00 Build 0)  -->
<svg version="1.1" id="Layer_2_1_" xmlns="http://www.w3.org/2000/svg" xmlns:xlink="http://www.w3.org/1999/xlink" x="0px" y="0px"
	 viewBox="0 0 450.3 160.2" style="enable-background:new 0 0 450.3 160.2;" xml:space="preserve">
<style type="text/css">
	.st0{fill:none;}
	.st1{fill:#FFFFFF;}
	.st2{font-family:'Diphylleia-Regular';}
	.st3{font-size:16.446px;}
	.st4{fill:#FFDBE9;}
	.st5{fill:#8C1043;}
	.st6{fill:#FF5C9C;}
	.st7{fill:#BC155B;}
</style>
<rect y="0" class="st0" width="450.3" height="160.2"/>
<g>
	<g>
		<path class="st1" d="M142.2,96.7c-0.3,0-0.9-0.1-1.6-0.2c-0.7-0.1-1.4-0.3-2-0.7c-0.6-0.3-0.9-0.9-0.9-1.6c0-0.4,0.1-0.8,0.3-1
			c0.1-0.2,0.3-0.3,0.4-0.3c0.1,0,0.2,0.1,0.1,0.3c-0.1,0.5,0.1,1,0.6,1.4c0.5,0.5,0.9,0.7,1.4,0.9c0.7,0.2,1.3,0.3,1.8,0.3
			c1.5,0,2.8-0.4,4-1.3c1.2-0.8,2.3-1.8,3.2-2.9c-1.3-0.8-2.4-1.7-3.3-2.8c-1-1.1-1.4-2.3-1.4-3.6c0-0.5,0.1-1,0.2-1.5
			c0.3-1.1,1.1-2,2.2-2.7c0.3-0.2,0.7-0.3,1.1-0.4c0.4-0.1,0.8-0.1,1.2-0.1c1.3,0,2.2,0.3,2.8,0.9v0.1c0,0.1-0.1,0.2-0.2,0.3
			c-0.1,0.1-0.2,0.1-0.3,0c-0.2-0.3-0.7-0.5-1.3-0.5c-0.7,0-1.5,0.3-2.2,0.8s-1.1,1.1-1.3,1.9c-0.2,0.6-0.3,1.3-0.3,1.9
			c0,1.1,0.3,2.1,1,3s1.4,1.6,2.4,2.2c0.3-0.3,0.5-0.7,0.7-1s0.4-0.7,0.7-1c1-1.5,2-3.3,3-5.3s2-4,3-6.1s2.1-4.1,3.3-6.1
			s2.4-3.7,3.8-5.3c1.4-1.6,2.9-2.8,4.5-3.6c1.1-0.6,2.1-0.9,3.1-0.9c0.5,0,1,0.1,1.5,0.2c0.1,0,0.2,0.1,0.1,0.3
			c-0.1,0.1-0.1,0.2-0.3,0.2c-0.1-0.1-0.3-0.1-0.4-0.1c-0.2,0-0.3,0-0.5,0c-1.7,0-3.6,1.1-5.5,3.4c-1.5,1.7-2.7,3.6-3.8,5.6
			s-2.1,4-3,6s-1.8,4.1-2.8,6.1s-2.1,3.9-3.4,5.8c-0.3,0.5-0.7,1-1.1,1.5c-0.4,0.5-0.8,0.9-1.2,1.4c0.5,0.2,1,0.4,1.5,0.5
			s1,0.3,1.4,0.4c1.5,0.3,3,0.5,4.6,0.5c2.2,0,4.3-0.2,6.4-0.7c2.1-0.5,3.9-1.1,5.5-2c2.1-1.1,4.1-2.7,5.7-4.7c1.7-2,3-4.2,4-6.7
			c1-2.4,1.5-4.9,1.5-7.3s-0.6-4.7-1.7-6.8c-1.1-2.1-3-3.9-5.7-5.2c-1.6-0.8-3.5-1.4-5.5-1.8c-2-0.4-4-0.6-6-0.6
			c-2.8,0-5.6,0.5-8.3,1.4s-4.8,2.2-6.5,3.7c-0.9,0.8-1.7,2-2.3,3.4c-0.7,1.4-1,2.8-1,4.2c0,0.3,0,0.6,0.1,0.9
			c0,0.3,0.1,0.6,0.2,0.9c0.3,0.9,0.9,1.7,1.7,2.1c0.9,0.5,1.8,0.7,2.9,0.7c0.8,0,1.7-0.2,2.6-0.5h0.1c0,0,0,0,0.1,0s0.1,0,0.1,0.1
			c0,0.2-0.1,0.3-0.3,0.4c-0.5,0.1-1,0.3-1.5,0.4s-1,0.2-1.5,0.2c-1.1,0-2.1-0.2-3.1-0.6s-1.8-1-2.4-1.8c-0.6-0.8-0.9-1.9-0.9-3.2
			c0-1,0.2-2,0.5-2.9s0.7-1.8,1.3-2.6c1.1-1.6,2.7-3,4.7-4.1s4.3-1.9,6.7-2.5c2.5-0.6,4.9-0.8,7.3-0.8c2,0,4.1,0.2,6.1,0.6
			c2,0.4,4,1,5.8,1.7c3.4,1.4,5.8,3.4,7.3,5.8s2.2,5,2.2,7.8c0,2.5-0.6,5.1-1.7,7.6c-1.1,2.5-2.7,4.8-4.7,6.9s-4.3,3.7-7,4.9
			c-1.6,0.7-3.4,1.3-5.4,1.7c-1.9,0.4-3.9,0.6-5.9,0.6c-1.1,0-2.3-0.1-3.4-0.2c-1.1-0.1-2.2-0.3-3.3-0.5c-0.4-0.1-0.9-0.2-1.4-0.4
			c-0.5-0.2-1-0.3-1.5-0.6c-0.6,0.5-1.2,1.1-1.9,1.6s-1.3,1-2.1,1.3c-0.8,0.4-1.6,0.7-2.4,0.9C143.9,96.6,143.1,96.7,142.2,96.7z"/>
		<path class="st1" d="M191.1,92.6c-1.9,0-3.3-0.5-4.1-1.5c-0.4-0.4-0.7-1-0.9-1.6s-0.3-1.2-0.3-1.9c0-0.8,0.1-1.6,0.3-2.4
			s0.5-1.6,0.8-2.3c0.5-1.1,1.1-2.2,1.9-3.3c0.8-1.1,1.7-2.1,2.8-2.8c1.1-0.8,2.3-1.2,3.6-1.2c0.9,0,1.6,0.2,2.1,0.7
			c0.5,0.4,0.8,1.1,0.8,2c0,1-0.3,2.1-1,3.1c-0.6,1.1-1.4,1.9-2.4,2.6s-2,1.1-3,1.1c-0.9,0-1.8-0.3-2.5-1c-0.2,0.5-0.4,1.1-0.5,1.8
			c-0.1,0.7-0.2,1.3-0.2,2c0,1,0.2,1.9,0.6,2.7c0.4,0.8,1.2,1.2,2.3,1.2c0.8,0,1.6-0.2,2.3-0.6c0.8-0.4,1.4-0.9,2-1.5
			c0.7-0.7,1.3-1.5,1.9-2.3c0.6-0.8,1.2-1.7,1.8-2.8c0.1-0.1,0.1-0.2,0.2-0.2c0.1,0,0.2,0.2,0.2,0.5c0,0.2-0.1,0.4-0.2,0.7
			c-0.5,0.9-1.1,1.8-1.8,2.7c-0.7,0.9-1.4,1.7-2.1,2.4c-0.6,0.6-1.3,1.1-2.1,1.5C192.9,92.4,192.1,92.6,191.1,92.6z M189.4,83.3
			c0.2,0.3,0.5,0.6,0.8,0.7c0.3,0.2,0.6,0.2,1,0.2c0.8,0,1.6-0.3,2.5-0.9s1.6-1.3,2.1-2.2c0.2-0.4,0.4-0.9,0.6-1.5
			c0.2-0.6,0.3-1.2,0.3-1.7s-0.1-0.9-0.3-1.2c-0.2-0.4-0.5-0.5-1.1-0.5s-1.3,0.4-2.1,1.1s-1.6,1.7-2.3,2.9c-0.2,0.4-0.5,0.9-0.8,1.4
			C189.8,82.1,189.6,82.7,189.4,83.3z M194.9,73.1L194.9,73.1c-0.3,0-0.4-0.1-0.4-0.4c0-0.1,0.1-0.2,0.2-0.3c0.7-0.4,1.4-1,2.3-1.7
			c0.9-0.7,1.6-1.4,2.4-1.9c0.1-0.1,0.3-0.1,0.3-0.1c0.2,0,0.4,0.1,0.6,0.3c0.2,0.2,0.3,0.4,0.3,0.7c0,0.2-0.1,0.3-0.3,0.4
			L194.9,73.1z"/>
		<path class="st1" d="M201.1,92.8c-1.1,0-1.8-0.3-2.3-1c-0.5-0.6-0.7-1.4-0.7-2.3c0-0.7,0.1-1.3,0.3-2s0.6-1.7,1.1-3
			s1.1-2.7,1.7-4.1c0.6-1.5,1.2-2.9,1.9-4.3c0.3-0.6,0.6-1.3,0.9-2c0.4-0.8,0.7-1.5,1.1-2.2c0.4-0.7,0.6-1.3,0.9-1.8
			c0.6-1.2,1.3-2.6,2.2-4.2c0.8-1.6,1.8-3.2,2.9-4.8c1.1-1.6,2.3-3,3.6-4.1s2.8-1.8,4.4-2.1c0.1,0,0.3,0,0.5,0
			c0.8,0,1.3,0.2,1.7,0.7s0.6,1,0.6,1.7c0,0.6-0.1,1.2-0.4,1.7c-0.5,1.2-1.4,2.5-2.5,3.8c-1.2,1.3-2.4,2.6-3.7,3.9
			c-1.3,1.3-2.5,2.4-3.5,3.4c-0.9,0.8-1.6,1.6-2.3,2.2s-1.3,1.2-1.9,1.8c-0.6,0.6-1.2,1.3-1.9,2c-0.4,0.8-0.7,1.7-1.1,2.5
			c-0.4,0.9-0.5,1.3-0.6,1.5c0.9-1.3,2-2.4,3.1-3.3c1.1-1,2.2-1.4,3.1-1.4c1.1,0,1.9,0.3,2.3,0.9c0.4,0.6,0.6,1.3,0.6,2.2
			c0,0.8-0.1,1.7-0.4,2.6c-0.3,0.9-0.6,1.8-0.9,2.6c-0.4,0.8-0.7,1.5-1,2.1c-0.3,0.5-0.7,1.1-1.1,1.7c-0.4,0.6-0.9,1.1-1.4,1.7
			c0.1,0.4,0.4,0.8,0.7,1s0.7,0.3,1.1,0.3c0.5,0,1-0.1,1.5-0.3c0.5-0.2,0.9-0.5,1.3-0.8c0.8-0.6,1.5-1.4,2.1-2.3s1.2-1.8,1.8-2.7
			c0-0.1,0.1-0.1,0.1-0.1c0.1,0,0.1,0.2,0.1,0.5c0,0.1,0,0.3,0,0.4s0,0.2-0.1,0.3c-0.6,1-1.2,1.9-1.8,2.7c-0.6,0.8-1.3,1.5-2.2,2.1
			s-1.9,1-2.9,1c-0.5,0-0.9-0.1-1.3-0.3c-0.4-0.2-0.7-0.5-0.9-1c-0.9,0.9-2,1.7-3,2.3C203.4,92.5,202.3,92.8,201.1,92.8z
			 M203.2,91.2c0.7-0.5,1.4-1.2,2.1-2.1c0.7-0.9,1.3-1.7,1.8-2.6s0.9-1.6,1.2-2.1c0.2-0.4,0.5-0.9,0.8-1.7c0.4-0.8,0.7-1.6,1-2.5
			s0.5-1.7,0.5-2.4c0-0.5-0.1-0.8-0.3-1.1c-0.2-0.3-0.5-0.4-1-0.4c-0.4,0-0.9,0.2-1.5,0.7s-1.2,1.1-1.7,1.8
			c-0.7,0.9-1.5,1.9-2.3,3.1s-1.6,2.5-2.3,3.8s-1.2,2.5-1.5,3.6c-0.1,0.4-0.2,0.8-0.2,1.1c0,0.5,0.1,0.9,0.4,1.2
			c0.3,0.2,0.6,0.4,1,0.4C201.9,91.9,202.6,91.6,203.2,91.2z M206.4,74.3c0.8-0.9,1.5-1.7,2.2-2.3c0.7-0.7,1.5-1.5,2.5-2.5
			c0.9-0.9,2-2,3.2-3.3s2.4-2.6,3.5-3.9c1.1-1.3,1.9-2.5,2.4-3.5c0.4-0.8,0.6-1.5,0.6-2c0-1-0.6-1.4-1.7-1.2
			c-1.1,0.1-2.2,0.7-3.2,1.7s-2,2.2-2.9,3.6c-0.9,1.5-1.8,3-2.6,4.7c-0.8,1.6-1.5,3.2-2.2,4.8C207.5,71.9,206.9,73.2,206.4,74.3z"/>
		<path class="st1" d="M220.4,93.2c-1.3,0-2.4-0.4-3.3-1.2c-0.9-0.8-1.4-2.1-1.4-3.8c0-1.1,0.2-2.2,0.6-3.3c0.4-1.2,0.8-2.2,1.3-3.1
			c0.9-1.6,2-3.1,3.3-4.3c1.3-1.2,2.9-1.8,4.8-1.8c1.8,0,3,0.5,3.7,1.5s1.1,2.2,1.1,3.6c0,0.6-0.1,1.2-0.2,1.8
			c-0.3,1.6-0.8,3.2-1.7,4.8c0.2,0.3,0.5,0.6,0.9,0.8c0.4,0.2,0.8,0.3,1.3,0.3c0.8,0,1.5-0.2,2.1-0.7c0.6-0.4,1.1-1,1.5-1.6
			c0.4-0.7,0.8-1.3,1.1-1.8c0.2-0.4,0.4-0.6,0.6-0.6c0.1,0,0.2,0.1,0.2,0.2s-0.1,0.4-0.3,0.9c-0.6,1.1-1.2,2.1-2,3
			c-0.8,0.8-1.8,1.3-3,1.3c-1.1,0-2-0.4-2.6-1.2c-0.9,1.5-2.1,2.8-3.4,3.9C223.5,92.7,222,93.2,220.4,93.2z M220.5,92.6
			c1.6,0,3.3-0.8,4.9-2.4c0.5-0.5,0.9-1,1.3-1.5c0.4-0.5,0.7-1,1-1.6c-0.4-0.5-0.7-1-0.9-1.6s-0.3-1.1-0.3-1.7
			c0-0.8,0.2-1.6,0.5-2.2c0.3-0.7,0.7-1,1.3-1c0.3,0,0.5,0.1,0.8,0.4s0.4,0.7,0.5,1.3c0.1-0.5,0.2-1,0.2-1.5c0-1.3-0.2-2.3-0.7-3
			c-0.5-0.8-1.3-1.1-2.4-1.1c-0.7,0-1.4,0.3-2.1,0.8c-0.7,0.5-1.4,1.1-2,1.9c-0.6,0.7-1.2,1.5-1.6,2.3c-0.5,0.8-0.8,1.4-1.1,1.9
			c-0.6,1.2-1,2.3-1.2,3.3c-0.3,1-0.4,1.8-0.4,2.6c0,1.1,0.2,1.9,0.7,2.5C219.3,92.3,219.9,92.6,220.5,92.6z"/>
		<path class="st1" d="M245.1,91.3c-0.6,0.5-1.1,0.8-1.7,1c-0.6,0.2-1.1,0.3-1.5,0.3c-0.8,0-1.5-0.3-2.1-0.9s-0.8-1.4-0.8-2.3
			c0-0.6,0.1-1.3,0.4-2.1c0.4-1.2,1.1-2.4,2-3.5s1.7-2.2,2.5-3.4c0.5-0.7,0.8-1.3,0.8-2c0-0.3-0.1-0.6-0.3-0.9
			c-0.2-0.2-0.5-0.4-1-0.4c-0.3-0.1-0.6-0.1-0.9-0.1c-0.3,0-0.7,0-1,0H240c-0.2,0-0.4,0-0.6,0c-0.2,0-0.3,0-0.5,0
			c-0.1,0.8-0.4,1.8-0.8,2.8c-0.4,1-0.9,2.1-1.4,3.1s-1.1,2-1.6,2.8c-0.1,0.2-0.3,0.3-0.4,0.3c-0.1,0-0.2-0.1-0.2-0.3
			c0-0.2,0.1-0.4,0.2-0.6c0.7-1.4,1.4-2.7,2-4c0.7-1.3,1.1-2.7,1.3-4.1c-0.8-0.4-1.3-1.2-1.6-2.3c0-0.2-0.1-0.3-0.1-0.5s0-0.3,0-0.4
			c0-0.6,0.1-1.1,0.4-1.5c0.3-0.4,0.5-0.6,0.9-0.6c0.5,0,0.9,0.5,1.2,1.4c0.1,0.2,0.1,0.5,0.2,0.8c0,0.3,0.1,0.6,0.1,0.8
			c0,0.3,0,0.6,0,0.8c0,0.3,0,0.5-0.1,0.6c0.2,0.1,0.5,0.1,0.9,0.2c0.4,0,0.8,0,1.3,0c0.7,0,1.4,0,2.2-0.1c0.8,0,1.4-0.1,2-0.1
			s1.1,0.1,1.3,0.4s0.4,0.6,0.4,1c0,0.5-0.1,1-0.4,1.6c-0.3,0.6-0.5,1.1-0.7,1.5c-0.4,0.8-0.8,1.5-1.2,2.1s-0.8,1.3-1.3,2
			c-0.7,1.1-1.2,2.1-1.5,2.9c-0.3,0.9-0.5,1.6-0.5,2.2c0,1,0.4,1.6,1.2,1.6c0.6,0,1.5-0.5,2.5-1.4c0.6-0.6,1.2-1.2,1.8-2
			s1.1-1.6,1.5-2.4c0.5-0.8,0.8-1.5,1.1-2c0.1-0.1,0.1-0.2,0.2-0.2c0.1,0,0.2,0.1,0.2,0.4c0,0.2-0.1,0.4-0.2,0.6
			c-0.6,1-1.2,2.2-2,3.4C247.1,89.3,246.2,90.4,245.1,91.3z"/>
		<path class="st1" d="M259.9,92.5c-1.1,0-1.8-0.3-2.2-1c-0.4-0.7-0.6-1.4-0.6-2.3c0-0.2,0-0.5,0.1-0.9s0.1-0.8,0.2-1.2
			c-0.5,0.6-1,1.3-1.7,2.1c-0.7,0.8-1.3,1.4-2,2c-1.1,0.9-2,1.3-2.9,1.3c-0.8,0-1.5-0.4-1.9-1.1c-0.5-0.7-0.7-1.6-0.7-2.7
			c0-1.4,0.3-2.8,0.9-4.2c0.6-1.4,1.4-2.7,2.4-4s2.1-2.3,3.3-3.2c0.7-0.5,1.6-0.9,2.6-1.2c1-0.3,2.1-0.5,3.1-0.5
			c1.2,0,2.2,0.2,3.1,0.5c0.9,0.4,1.5,0.8,1.8,1.5c-0.7,0.9-1.4,2-2.2,3.3c-0.7,1.3-1.4,2.5-1.9,3.6c-0.4,0.7-0.8,1.7-1.2,2.7
			c-0.4,1.1-0.7,2-0.7,2.8c0,0.3,0.1,0.7,0.3,1c0.2,0.3,0.5,0.5,1,0.5s1.1-0.2,1.6-0.6s0.9-0.8,1.3-1.2c0.8-0.8,1.5-1.8,2.1-2.8
			s1.3-2.1,1.9-3.2c0.1-0.1,0.2-0.2,0.3-0.2c0.1,0,0.2,0.1,0.2,0.3c0,0.2,0,0.3-0.1,0.4c-0.6,1.1-1.2,2.2-1.9,3.3
			c-0.7,1.1-1.5,2.1-2.5,3.1c-0.5,0.5-1,0.9-1.7,1.2C261.2,92.4,260.5,92.5,259.9,92.5z M251.9,91c0.6,0,1.3-0.3,2.1-1
			s1.5-1.5,2.2-2.5s1.4-1.9,2-2.9c0.6-0.9,1-1.6,1.4-2.1c0.7-1.1,1.4-2,2-2.8c0.6-0.7,1.5-1.3,2.8-1.7c0.1,0,0.1,0,0.2,0
			s0.1,0,0.2,0c-0.3-0.5-0.8-0.8-1.5-1.1c-0.7-0.2-1.4-0.4-2.1-0.4c-1,0-2,0.3-3,0.9s-1.9,1.3-2.7,2.2c-0.8,0.9-1.5,1.9-2.3,3
			c-0.7,1.1-1.3,2.2-1.8,3.3c-0.5,1.1-0.7,2.2-0.7,3.2c0,0.5,0.1,1,0.3,1.4C251.1,90.8,251.5,91,251.9,91z"/>
		<path class="st1" d="M293.7,95.2c-1.7,0.5-3.4,0.6-5.2,0.6c-2.6,0-4.8-0.4-6.5-1.3s-3.1-2-4-3.4s-1.5-2.9-1.8-4.5
			c-0.1-0.8-0.2-1.5-0.2-2.3c0-2,0.3-4,0.9-5.9c0.7-2.3,1.6-4.6,2.9-6.8c1.3-2.2,2.8-4.2,4.5-6.1c1.8-1.9,3.7-3.5,5.8-4.9
			c2.1-1.4,4.3-2.5,6.6-3.2c1.1-0.4,2.1-0.6,3.2-0.8c1-0.2,2-0.2,3-0.2c0.6,0,1.2,0,1.8,0.1c0.6,0.1,1.1,0.2,1.6,0.3
			c1.3,0.4,2.3,0.9,3.1,1.7c0.8,0.8,1.2,1.8,1.2,2.9c0,0.3-0.1,0.7-0.2,1.1c1,1,1.7,2.1,2.1,3.5s0.6,2.8,0.6,4.3
			c0,1-0.1,2.1-0.3,3.2c-0.2,1.1-0.4,2.2-0.8,3.3c-0.8,2.5-2,4.9-3.5,7.2c-1.6,2.3-3.4,4.4-5.5,6.1c-2.1,1.8-4.5,3.2-7,4.1
			C295.9,94.4,294.3,95,293.7,95.2z M294.9,93.7c2.3-1.2,4.7-2.6,6.7-4.5s3.6-4.1,5-6.5s2.4-4.8,3.1-7.1c0.3-0.9,0.5-1.8,0.6-2.8
			s0.2-1.9,0.2-2.8c0-1-0.1-2-0.3-3c-0.2-0.9-0.5-1.8-0.9-2.6c-0.3,0.4-0.6,0.6-1,0.8c-0.2,0.1-0.4,0.2-0.5,0.2s-0.2,0-0.2-0.2
			c0-0.1,0.1-0.2,0.2-0.3c0.4-0.3,0.7-0.8,0.9-1.5c-0.6-0.8-1.5-1.5-2.4-2c-1-0.5-2.2-0.8-3.7-0.8s-3,0.3-4.7,1s-3.3,1.6-4.9,2.9
			c-1,0.8-1.8,1.8-2.6,2.9s-1.3,2.3-1.7,3.5c-0.4,1.2-0.6,2.2-0.6,3.1c0,1,0.3,1.6,0.8,1.9c0.3,0.1,0.5,0.3,0.5,0.5
			c0,0.1-0.1,0.2-0.2,0.2s-0.3,0-0.5-0.1c-0.6-0.2-1-0.6-1.3-1.2S287,74,287,73.2c0-1.4,0.4-2.9,1.2-4.6c0.8-1.7,1.8-3.1,3.1-4.3
			c1.7-1.5,3.5-2.6,5.6-3.3c2-0.8,4-1.1,5.9-1.1c1.3,0,2.5,0.2,3.6,0.5s2,0.8,2.8,1.3c-0.1-0.9-0.4-1.7-1.1-2.3
			c-0.6-0.6-1.4-1.1-2.4-1.3c-0.9-0.3-1.9-0.4-2.9-0.4c-0.8,0-1.7,0.1-2.6,0.2c-0.9,0.2-1.9,0.4-2.8,0.7c-1.3,0.4-2.6,1.1-4,2
			c-1.4,1-2.7,2.1-4,3.4s-2.5,2.7-3.7,4.2c-1.1,1.5-2.1,3-2.9,4.5c-0.9,1.6-1.6,3.6-2.3,5.8c-0.6,2.2-1,4.4-1,6.5c0,0.5,0,1,0.1,1.5
			c0,0.5,0.1,1,0.2,1.5c0.2,1.3,0.7,2.5,1.4,3.5c0.7,1.1,1.7,2,2.9,2.6c1.2,0.7,2.8,1,4.6,1h0.2c0.7,0,1.4-0.1,2.1-0.2
			s1.4-0.3,2.1-0.5C293,94.4,294.2,94,294.9,93.7z"/>
		<path class="st1" d="M316.3,92.5c-1,0-1.8-0.3-2.2-0.9c-0.5-0.6-0.7-1.3-0.7-2.2c0-1.1,0.2-2.3,0.7-3.6c0.5-1.3,1-2.6,1.6-3.7
			c0.6-1.2,1.1-2.1,1.5-2.8c0.7-1.2,1.5-2,2.2-2.3c0.8-0.3,1.7-0.5,2.8-0.5c-0.3,0.1-0.8,0.5-1.3,1.2s-1.1,1.5-1.7,2.5
			s-1.1,2.1-1.7,3.2c-0.5,1.2-0.9,2.3-1.3,3.4c-0.3,1.1-0.5,2-0.5,2.8c0,0.6,0.1,1,0.3,1.4c0.2,0.4,0.6,0.6,1,0.6s0.9-0.2,1.4-0.5
			s1-0.7,1.5-1.2c1.5-1.6,2.7-3.4,3.6-5.4s2-3.9,3.1-5.9c0.7-1.2,1.5-2,2.2-2.3c0.8-0.3,1.7-0.5,2.8-0.5c-0.3,0.1-0.8,0.5-1.4,1.2
			s-1.2,1.6-1.8,2.7c-0.6,1.1-1.2,2.2-1.7,3.4c-0.5,1.2-1,2.4-1.3,3.5c-0.4,1.1-0.5,2.1-0.5,2.9c0,0.5,0.1,1,0.3,1.3
			c0.2,0.4,0.5,0.5,1,0.5c0.4,0,0.9-0.2,1.4-0.5s1-0.7,1.5-1.2c0.8-0.8,1.5-1.8,2.1-2.8s1.3-2.1,1.9-3.2c0.1-0.1,0.2-0.2,0.3-0.2
			c0.1,0,0.2,0.1,0.2,0.3c0,0.2,0,0.3-0.1,0.4c-0.6,1.1-1.2,2.2-1.9,3.3c-0.7,1.1-1.5,2.1-2.5,3.1c-0.5,0.5-1.2,1-1.9,1.3
			c-0.7,0.4-1.4,0.5-2.1,0.3c-0.9-0.2-1.6-0.5-2-1.1s-0.6-1.3-0.6-2.1c0-0.7,0.1-1.4,0.3-2.1c-0.4,0.6-0.8,1.3-1.3,1.9
			s-1,1.2-1.5,1.8c-0.5,0.5-1,0.9-1.7,1.2C317.7,92.3,317,92.5,316.3,92.5z"/>
		<path class="st1" d="M337.7,92.6c-1.9,0-3.3-0.5-4.1-1.5c-0.4-0.4-0.7-1-0.9-1.6c-0.2-0.6-0.3-1.2-0.3-1.9c0-0.8,0.1-1.6,0.3-2.4
			c0.2-0.8,0.5-1.6,0.8-2.3c0.5-1.1,1.1-2.2,1.9-3.3c0.8-1.1,1.7-2.1,2.8-2.8c1.1-0.8,2.3-1.2,3.6-1.2c0.9,0,1.6,0.2,2.1,0.7
			c0.5,0.4,0.8,1.1,0.8,2c0,1-0.3,2.1-1,3.1c-0.6,1.1-1.4,1.9-2.4,2.6s-2,1.1-3,1.1c-0.9,0-1.8-0.3-2.5-1c-0.2,0.5-0.4,1.1-0.5,1.8
			c-0.1,0.7-0.2,1.3-0.2,2c0,1,0.2,1.9,0.6,2.7c0.4,0.8,1.2,1.2,2.3,1.2c0.8,0,1.6-0.2,2.3-0.6c0.8-0.4,1.4-0.9,2-1.5
			c0.7-0.7,1.3-1.5,1.9-2.3s1.2-1.7,1.8-2.8c0.1-0.1,0.1-0.2,0.2-0.2s0.2,0.2,0.2,0.5c0,0.2-0.1,0.4-0.2,0.7
			c-0.5,0.9-1.1,1.8-1.8,2.7c-0.7,0.9-1.4,1.7-2.1,2.4c-0.6,0.6-1.3,1.1-2.1,1.5C339.5,92.4,338.7,92.6,337.7,92.6z M336,83.3
			c0.2,0.3,0.5,0.6,0.8,0.7c0.3,0.2,0.6,0.2,1,0.2c0.8,0,1.6-0.3,2.5-0.9s1.6-1.3,2.1-2.2c0.2-0.4,0.4-0.9,0.6-1.5s0.3-1.2,0.3-1.7
			s-0.1-0.9-0.3-1.2c-0.2-0.4-0.5-0.5-1.1-0.5s-1.3,0.4-2.1,1.1c-0.8,0.7-1.6,1.7-2.3,2.9c-0.2,0.4-0.5,0.9-0.8,1.4
			C336.4,82.1,336.2,82.7,336,83.3z"/>
		<path class="st1" d="M347.5,92.5c-0.9,0-1.6-0.3-2.1-0.9c-0.4-0.6-0.7-1.4-0.7-2.3c0-0.3,0-0.5,0.1-0.8s0.1-0.6,0.2-0.9
			c0.4-1.3,0.9-2.8,1.7-4.5c0.8-1.7,1.5-3.1,2.3-4.4c0.4-0.7,0.8-1.3,1.2-1.6c0.4-0.3,0.8-0.6,1.2-0.7c0.4-0.2,1-0.3,1.6-0.5
			c0.2-0.1,0.3-0.1,0.5-0.2c0.2,0,0.4-0.1,0.6-0.1c-0.7,0.7-1.3,1.5-2,2.4s-1.4,2.2-2.2,3.9c-0.4,0.9-0.9,1.8-1.3,2.9
			s-0.8,2.1-1.1,3c-0.3,0.9-0.5,1.7-0.5,2.2c0,0.6,0.1,1.1,0.3,1.4c0.2,0.3,0.5,0.4,0.8,0.4c0.6,0,1.1-0.2,1.6-0.6s1-0.8,1.4-1.3
			c0.7-0.8,1.4-1.8,2.1-2.8s1.3-2.1,1.9-3.2c0.1-0.1,0.2-0.2,0.3-0.2c0.1,0,0.2,0.1,0.2,0.3c0,0.2,0,0.3-0.1,0.4
			c-0.6,1.1-1.2,2.2-1.9,3.3c-0.7,1.1-1.5,2.1-2.5,3.1c-0.4,0.4-0.9,0.8-1.5,1.2C348.9,92.3,348.2,92.5,347.5,92.5z M353.6,72.7
			c-0.4,0-0.7-0.1-1-0.4c-0.2-0.3-0.4-0.6-0.4-0.9c0-0.5,0.2-0.9,0.6-1.3s0.8-0.6,1.3-0.6c0.4,0,0.7,0.1,0.9,0.4
			c0.2,0.2,0.4,0.6,0.4,0.9c0,0.5-0.2,0.9-0.6,1.3C354.5,72.5,354.1,72.7,353.6,72.7z"/>
		<path class="st1" d="M361.3,92.6c-1,0-1.8-0.3-2.2-0.9c-0.4-0.6-0.6-1.2-0.6-2c0-0.4,0-0.8,0.1-1.2c0.1-0.4,0.2-0.8,0.3-1.1
			c0.4-1,0.8-1.8,1.3-2.5s1-1.4,1.5-2.2c0.5-0.6,0.9-1.2,1.3-1.8c0.4-0.6,0.8-1.2,1.1-1.9c0.2-0.4,0.3-0.8,0.3-1.1
			c0-0.4-0.1-0.8-0.4-1s-0.6-0.3-0.9-0.3c-0.4,0-0.9,0.1-1.4,0.3c-0.5,0.2-1,0.4-1.5,0.7c-0.5,0.3-0.9,0.6-1.4,0.9
			c-0.4,0.3-0.8,0.5-1.1,0.5c-0.1,0.4-0.3,0.9-0.7,1.7c-0.3,0.8-0.7,1.6-1.2,2.6c-0.5,0.9-1,1.8-1.5,2.6c-0.1,0.2-0.3,0.3-0.4,0.3
			s-0.2-0.1-0.2-0.3c0-0.2,0.1-0.4,0.2-0.6c0.7-1.2,1.3-2.4,1.8-3.5s0.9-2.1,1.2-2.9c-0.4,0-0.7-0.2-0.9-0.4
			c-0.2-0.2-0.2-0.5-0.2-0.9s0.1-0.8,0.2-1.2c0.2-0.4,0.3-0.7,0.4-1c0.5,0.3,1.1,0.5,1.8,0.6c0.7,0.1,1.3,0.2,1.9,0.2
			c0.8,0,1.5,0,2.3-0.1c0.7-0.1,1.4-0.1,2-0.1c0.7,0,1.2,0.2,1.4,0.5c0.3,0.3,0.4,0.8,0.4,1.3s-0.1,1.1-0.3,1.7
			c-0.2,0.6-0.4,1.1-0.6,1.5c-0.5,0.9-1,1.8-1.5,2.7c-0.6,0.9-1.1,1.8-1.5,2.7c-0.1,0.3-0.4,0.8-0.7,1.5c-0.4,0.8-0.6,1.5-0.7,2.1
			c0,0.1,0,0.1,0,0.2s0,0.1,0,0.2c0,0.4,0.1,0.6,0.3,0.8c0.2,0.2,0.4,0.3,0.7,0.3c0.6,0,1.1-0.2,1.6-0.5c0.5-0.4,0.9-0.7,1.3-1.2
			c0.8-0.8,1.5-1.8,2.1-2.8s1.3-2.1,1.9-3.3c0.1-0.1,0.1-0.2,0.2-0.2s0.2,0.1,0.2,0.4c0,0.2-0.1,0.4-0.2,0.6
			c-0.6,1.1-1.2,2.2-1.9,3.2c-0.6,1.1-1.4,2.1-2.4,3c-0.4,0.4-1,0.8-1.6,1.2C362.7,92.4,362,92.6,361.3,92.6z"/>
		<path class="st1" d="M372.6,93.2c-1.3,0-2.4-0.4-3.3-1.2c-0.9-0.8-1.4-2.1-1.4-3.8c0-1.1,0.2-2.2,0.6-3.3c0.4-1.2,0.8-2.2,1.3-3.1
			c0.9-1.6,2-3.1,3.3-4.3c1.3-1.2,2.9-1.8,4.8-1.8c1.8,0,3,0.5,3.7,1.5s1.1,2.2,1.1,3.6c0,0.6-0.1,1.2-0.2,1.8
			c-0.3,1.6-0.8,3.2-1.7,4.8c0.2,0.3,0.5,0.6,0.9,0.8c0.4,0.2,0.8,0.3,1.3,0.3c0.8,0,1.5-0.2,2.1-0.7c0.6-0.4,1.1-1,1.5-1.6
			c0.4-0.7,0.8-1.3,1.1-1.8c0.2-0.4,0.4-0.6,0.6-0.6c0.1,0,0.2,0.1,0.2,0.2s-0.1,0.4-0.3,0.9c-0.6,1.1-1.2,2.1-2,3
			c-0.8,0.8-1.8,1.3-3,1.3c-1.1,0-2-0.4-2.6-1.2c-0.9,1.5-2.1,2.8-3.4,3.9C375.7,92.7,374.2,93.2,372.6,93.2z M372.7,92.6
			c1.6,0,3.3-0.8,4.9-2.4c0.5-0.5,0.9-1,1.3-1.5s0.7-1,1-1.6c-0.4-0.5-0.7-1-0.9-1.6c-0.2-0.6-0.3-1.1-0.3-1.7
			c0-0.8,0.2-1.6,0.5-2.2c0.3-0.7,0.7-1,1.3-1c0.3,0,0.5,0.1,0.8,0.4s0.4,0.7,0.5,1.3c0.1-0.5,0.2-1,0.2-1.5c0-1.3-0.2-2.3-0.7-3
			c-0.5-0.8-1.3-1.1-2.4-1.1c-0.7,0-1.4,0.3-2.1,0.8s-1.4,1.1-2,1.9c-0.6,0.7-1.2,1.5-1.6,2.3c-0.5,0.8-0.8,1.4-1.1,1.9
			c-0.6,1.2-1,2.3-1.2,3.3c-0.3,1-0.4,1.8-0.4,2.6c0,1.1,0.2,1.9,0.7,2.5C371.6,92.3,372.1,92.6,372.7,92.6z"/>
		<path class="st1" d="M387.4,106.4c-0.2,0-0.5,0.1-0.7,0.1s-0.4,0-0.6,0c-1.1,0-2-0.3-2.6-0.9s-0.9-1.3-0.9-2.2
			c0-0.7,0.2-1.4,0.6-2.2c0.4-0.8,1-1.4,1.9-1.9c1.6-1.1,3.5-2.1,5.6-2.9c2.1-0.9,4.1-1.9,6.2-3c0.1-0.3,0.2-0.6,0.3-0.9
			c0.1-0.3,0.2-0.6,0.3-1c0.1-0.5,0.2-0.9,0.2-1.3c0-0.8-0.2-1.4-0.6-1.8s-1-0.6-1.7-0.6c-0.8,0-1.6,0.2-2.6,0.6
			c-0.3,0.1-0.6,0.2-0.9,0.4c-0.3,0.1-0.7,0.3-1.1,0.5c-0.3,0.7-0.8,1.3-1.5,1.8s-1.2,0.8-1.6,0.9c-0.1,0-0.3,0-0.5,0
			c-0.6,0-1-0.3-1-0.9s0.3-1,0.9-1.4c0.9-0.5,1.8-1.1,2.6-1.7c0.8-0.6,1.7-1.3,2.6-2.2c0.9-0.9,1.9-1.9,3-3.2
			c0.7-0.8,1.4-1.6,2.2-2.3c0.8-0.8,1.5-1.5,2.3-2.2c-0.2-0.1-0.6-0.1-1.1-0.2c-0.5,0-1-0.1-1.5-0.2s-0.9-0.1-1.2-0.2
			c-0.2,0-0.4-0.1-0.6-0.1s-0.4,0-0.5,0c-0.7,0-1.4,0.1-2,0.4s-1.2,0.7-1.7,1.5c-0.4,0.6-0.9,1.4-1.5,2.4s-1.2,2.2-2.1,3.7
			c-0.1,0.2-0.2,0.3-0.3,0.3c-0.1,0-0.2-0.1-0.2-0.4c0-0.2,0.1-0.4,0.2-0.6c0.7-1.1,1.2-2.1,1.6-3s0.9-1.8,1.5-2.9
			c0.5-0.8,0.9-1.5,1.4-2s1.1-0.9,1.9-1.1c0.3-0.1,0.5-0.1,0.8-0.2c0.3,0,0.6-0.1,0.9-0.1c0.7,0,1.3,0,2,0.1s1.2,0.1,1.8,0.1
			c0.3,0,0.7,0,1.3,0c0.6,0,1.2,0,1.7-0.1c0.6-0.1,1-0.1,1.2-0.2c0.3,0.1,0.4,0.3,0.4,0.7c0,0.4-0.2,0.9-0.7,1.4
			c-0.4,0.5-1.1,0.7-2,0.6c-0.8,0.5-1.8,1.3-2.8,2.3s-1.9,1.9-2.6,2.6c-0.3,0.3-0.7,0.7-1.3,1.3c-0.6,0.5-1.2,1.1-1.8,1.8
			c-0.6,0.6-1.2,1.3-1.7,1.9V88c0,0,0,0.1,0,0.2c0.6-0.4,1.4-0.7,2.2-1c0.7-0.2,1.3-0.3,1.8-0.4s1-0.1,1.4-0.1
			c1.1,0,1.9,0.3,2.4,0.9s0.7,1.3,0.7,2.2c0,0.5-0.1,1-0.2,1.6c1.1-1,2.1-2.1,3.1-3.3c1-1.2,1.8-2.4,2.4-3.5
			c0.3-0.5,0.6-0.7,0.8-0.7c0.1,0,0.1,0.1,0.1,0.2s-0.1,0.3-0.2,0.6c-0.6,1.1-1.3,2.1-2,3.1s-1.5,2-2.3,2.8
			c-0.6,0.6-1.3,1.2-2.2,1.9c-0.1,0.4-0.2,0.8-0.4,1.2c-0.1,0.4-0.3,0.8-0.5,1.2c-0.8,1.9-1.7,3.7-2.8,5.3c-1.1,1.6-2.3,3-3.7,4.1
			C390.6,105.4,389,106.1,387.4,106.4z M387.1,105.6c1.7-0.5,3.1-1.4,4.3-2.6c1.2-1.2,2.2-2.6,3-4.2s1.6-3.1,2.3-4.6
			c-0.8,0.5-1.9,1.1-3.2,1.7c-1.4,0.6-2.7,1.3-4.1,1.9c-1.4,0.7-2.6,1.3-3.7,2c-0.7,0.5-1.2,1-1.6,1.7c-0.3,0.7-0.5,1.3-0.5,1.9
			s0.2,1.2,0.6,1.6s0.9,0.7,1.7,0.7c0.2,0,0.4,0,0.6,0C386.6,105.7,386.8,105.7,387.1,105.6z"/>
	</g>
	<path class="st1" d="M298,89.5c-0.9-0.6-1.5-0.9-2.7-1.5c-1.3-0.6-2.4-1-3.4-1.2c-0.5-0.1-1-0.2-1.5-0.2s-1,0-1.4,0.1
		c-0.9,0.1-1.6,0.5-2.3,1.1c-0.1,0.1-0.2,0.2-0.1,0.4c0,0.1,0.1,0.2,0.3,0.1h0.1c0.4-0.3,0.9-0.4,1.3-0.5c1-0.2,2.2,0,3.5,0.5
		s2.6,1.2,4,2.2c0,0,0.6,0.4,0.9,0.6c1.7,1.3,3.5,2.9,5.3,4.6c1.5,1.4,3.1,2.7,4.7,4c1.6,1.2,3.3,2.2,5,2.9c1.7,0.7,3.5,0.9,5.3,0.6
		c1.2-0.2,2.3-0.6,3.2-1.2c1-0.6,1.7-1.4,2.2-2.4s0.6-2.2,0.4-3.7c-0.2-1.1-0.6-2.2-1.4-3.4c-0.7-1.2-1.7-2.1-3-2.6
		c-0.1-0.1-0.3-0.1-0.4-0.1s-0.2,0.1-0.1,0.2c0,0,0.1,0.1,0.2,0.2c0.6,0.3,1.2,0.9,1.8,1.6c0.6,0.7,1,1.5,1.4,2.2
		c0.4,0.8,0.6,1.5,0.7,2.2c0.2,1.5,0,2.6-0.6,3.4s-1.5,1.3-2.7,1.5c-1.4,0.2-2.9,0-4.5-0.6s-3.2-1.5-4.9-2.6c-1.7-1.1-3.3-2.3-5-3.6
		c-1.6-1.3-3.2-2.4-4.6-3.5L298,89.5z"/>
</g>
<text transform="matrix(1 0 0 1 217.5377 119.8351)" class="st1 st2 st3">Fisioterapeuta</text>
<g>
	<g>
		<path class="st4" d="M119,88.3c-1.2,17.4-15.4,24.5-34.7,25.3C66.4,114.3,48.7,99.8,48.7,82s16.5-35.9,34.4-35.9
			C104.3,46.1,120.4,67.7,119,88.3L119,88.3z"/>
		<path class="st4" d="M104.6,47.2c18.3,13.1,26.6,45.1,8.3,61.5c-10.6,9.3-26.1,11.9-39.3,7.6c16,5.1,34.7-0.6,43.1-15.6
			C127.1,83.9,119.7,59.1,104.6,47.2L104.6,47.2L104.6,47.2z"/>
		<path class="st4" d="M53.3,102.5c-9.1-11.1-11.9-26.1-4.9-39c1.9-3.6,4.2-6.9,7-9.7c2.9-2.8,6.1-5.2,9.6-7.2
			c8.6-4.8,19-7.1,28.6-4.5C78.1,39,62.5,47.6,53.2,59.6C42.6,72.7,43.5,89.2,53.3,102.5L53.3,102.5L53.3,102.5z"/>
	</g>
	<g>
		<path class="st5" d="M65.7,80.2c0,0,1.2-1.1,4.9,3.6c3.7,4.7,6.9,2.3,6.9,2.3l-4.5,5l-4.3-3.4L65.7,80.2L65.7,80.2z"/>
		<path class="st5" d="M63.9,79.3c0,0,1.2-0.7,4.1,2.7c2.8,3.4,3.3,5.4,5.8,4.9c2.5-0.4-0.5,2.5-0.5,2.5l-5.5-4.1L64,80.9L63.9,79.3
			L63.9,79.3z"/>
		<path id="baby_4_" class="st6" d="M67.1,81.4c-3-0.9-5.6-3.3-6.8-7.3c-1.4-4.9,1.5-8.3,3.6-10c1.7-1.4,5.5-2.7,7.7-2.3
			c1.5,0.3,4,1.4,4.8,4.6c0.7,2.6,0.7,2.7,1.5,3c1.2,0.5,2.1,4.2,0.5,7c-1.4,2.5,0,2.8,1.5,2.6c4.1-0.4,6.3-9.9,9.9-7.8
			c3,1.7-0.2,6.7-2,9.6c-2.6,4.1,2.4,2.9,3.9,0.9c2.1-2.8,4.8-5.7,8.2-4.6c2.8,0.9,4,6.7,4.1,8c0.2,2.4,3.1,1.3,3.6,4.2
			c0.5,2.6-1.2,4.7-7.4,2.6c-1.7-0.6-1.5-2.7-2-4.3c-0.5-1.7-3.2,7.2-7.5,8.4c-5.5,1.5-10.9-1.6-15.6-3.5c-3.2-1.3-5.8-5.3-6.1-8
			C68.8,82.4,69.1,82,67.1,81.4z"/>
		<path class="st7" d="M104.2,96c-0.4,0.4-2.1,1.5-4.1,0.7s-3.2-0.8-4.2-0.5c-2.2,0.4-7,1.4-10.4,1.5s-9.1-2.4-12.2-3.4
			s-4.2-3.5-5.7-5.1c-1.6-1.6-1.9-2.6-2.8-4c-1-1.3-2.7-5.2-2.8-6.2c-0.1-0.9,1.6-0.5,2.2,0.3c1.1,1.3,2.5,4.3,3.6,5.2
			c1.1,0.9,1.8,1.8,2.4,2.4c0.9,0.9,3.2,1.9,5.1,2.7c0.8,0.3,2,0.6,3.3,0.7c1.1,1.2,4.2,4,6.8,4c1,0,3.5,0,5.2-1
			c0.1,0-3.1,0.9-5.7,0.5c-1.2-0.2-2.7-0.6-5.5-3.4c1.9,0.1,3.9,0,4.9-0.7c1.9-1.3,12.5-2.2,13.9-1.4c1.4,0.8,2.4,1.3,2.9,1.6
			c1.1,0.5,1.5-0.3,2.9,1.5C105.3,93.3,104.6,95.6,104.2,96z"/>
		<path class="st7" d="M92.6,88.1c-1.9-0.7-6.5-0.1-7.2,0c-0.6,0.1-3,0.2-3.8-0.6c-0.7-0.8-2.7-2.2-4.6-2.9
			c-1.4-0.5-3.4,1.1-1.8,2.3c2.1,1.6,2.4,1.9,3.5,3c1.3,1.3,2.2,2.9,6.6,3c2.6,0,3.7,0.2,5-0.1C93.6,92.1,94.7,88.9,92.6,88.1
			L92.6,88.1z"/>
	</g>
</g>
</svg>
