<?xml version="1.0" encoding="utf-8"?>
<!-- Generator: Adobe Illustrator 24.0.1, SVG Export Plug-In . SVG Version: 6.00 Build 0)  -->
<svg version="1.1" id="Layer_2_1_" xmlns="http://www.w3.org/2000/svg" xmlns:xlink="http://www.w3.org/1999/xlink" x="0px" y="0px"
	 viewBox="0 0 450.3 160.2" style="enable-background:new 0 0 450.3 160.2;" xml:space="preserve">
<style type="text/css">
	.st0{fill:#FFDBE9;}
	.st1{fill:#8C1043;}
	.st2{fill:#FF5C9C;}
	.st3{fill:#BC155B;}
	.st4{fill:#FFFFFF;}
	.st5{fill:none;}
</style>
<path class="st0" d="M119.2,87.3c-1.2,17.1-15.2,24.2-34.3,25C67.3,113,49.8,98.7,49.8,81.1s16.3-35.5,33.9-35.5
	C104.8,45.6,120.7,66.9,119.2,87.3z"/>
<path class="st0" d="M105,46.7c18.1,12.9,26.3,44.6,8.2,60.8c-10.4,9.2-25.8,11.8-38.8,7.5c15.8,5,34.3-0.6,42.6-15.4
	C127.3,83,120,58.4,105,46.7z"/>
<path class="st0" d="M54.4,101.3c-9-10.9-11.7-25.8-4.9-38.5c1.8-3.5,4.1-6.8,6.9-9.6c2.9-2.7,6-5.1,9.5-7.1
	c8.5-4.8,18.8-7,28.3-4.4c-15.3-3-30.7,5.4-40,17.3C43.8,72,44.6,88.2,54.4,101.3L54.4,101.3z"/>
<path class="st1" d="M66.6,79.3c0,0,1.2-1.1,4.9,3.6s6.8,2.3,6.8,2.3l-4.5,4.9l-4.2-3.4L66.6,79.3L66.6,79.3z"/>
<path class="st1" d="M64.8,78.4c0,0,1.2-0.7,4.1,2.7s3.3,5.4,5.7,4.9S74,88.5,74,88.5l-5.4-4L65,80L64.8,78.4L64.8,78.4z"/>
<path id="baby" class="st2" d="M68,80.4c-3.3-1.1-5.9-3.8-6.7-7.2c-1.4-4.9,1.5-8.2,3.5-9.9c1.7-1.4,5.5-2.6,7.6-2.2
	c2.4,0.4,4.2,2.2,4.8,4.6c0.7,2.6,0.7,2.6,1.5,3c1.2,0.5,2,4.1,0.5,6.9c-1.4,2.4,0,2.7,1.5,2.5c4-0.4,6.2-9.8,9.8-7.7
	c3,1.7-0.2,6.6-2,9.5c-2.6,4.1,2.4,2.9,3.9,0.9c2-2.8,4.8-5.7,8.1-4.6c2.7,0.9,3.9,6.6,4,7.9c0.2,2.3,3,1.3,3.5,4.1
	c0.5,2.6-1.2,4.6-7.3,2.5c-1.7-0.6-1.5-2.6-2-4.3s-3.2,7.1-7.4,8.3c-5.4,1.5-10.7-1.6-15.4-3.5c-3.1-1.5-5.4-4.4-6.1-7.9
	C69.6,81.5,69.9,81.1,68,80.4z"/>
<path class="st3" d="M104.6,95c-1.1,1-2.7,1.3-4.1,0.7c-1.3-0.6-2.7-0.8-4.2-0.5c-3.4,0.8-6.8,1.3-10.3,1.5c-3.4,0.1-9-2.3-12.1-3.4
	s-4.1-3.5-5.7-5.1c-1.1-1.2-2-2.5-2.7-3.9c-1.2-1.9-2.1-4-2.7-6.2c-0.1-0.9,1.6-0.5,2.2,0.3c1.1,1.3,2.4,4.3,3.5,5.1
	c0.9,0.7,1.7,1.6,2.4,2.4c0.9,0.9,3.2,1.9,5,2.6c1,0.4,2.1,0.6,3.2,0.7c1.1,1.2,4.1,3.9,6.7,3.9c1.8,0.1,3.5-0.3,5.1-1
	c-1.8,0.5-3.8,0.7-5.7,0.5c-1.2-0.2-2.6-0.6-5.4-3.3c1.9,0.1,3.8,0,4.9-0.7c1.9-1.3,12.4-2.2,13.7-1.4s2.4,1.3,2.8,1.6
	c1.1,0.5,1.5-0.3,2.9,1.5C105.3,91.7,105.4,93.5,104.6,95z"/>
<path class="st3" d="M93.2,87.1c-1.9-0.7-6.4-0.2-7.1-0.1s-3,0.2-3.7-0.6c-1.3-1.2-2.8-2.2-4.5-2.8c-1.4-0.5-3.3,1.1-1.8,2.3
	c1.3,0.9,2.4,1.9,3.4,3c1.3,1.3,2.2,2.9,6.5,2.9c2.5,0,3.7,0.2,4.9-0.1C94.2,91.1,95.3,87.9,93.2,87.1L93.2,87.1z"/>
<g>
	<g>
		<path class="st4" d="M141,94.8c-0.5,0-1.1-0.1-1.6-0.2c-0.7-0.1-1.4-0.3-2-0.7c-0.6-0.3-0.9-0.9-0.9-1.6c0-0.4,0.1-0.7,0.3-1
			c0.1-0.1,0.2-0.2,0.4-0.3c0.1,0,0.2,0.1,0.1,0.3c-0.1,0.5,0.1,1.1,0.6,1.4c0.4,0.4,0.9,0.7,1.4,0.9c0.6,0.1,1.1,0.2,1.7,0.2
			c1.4,0,2.8-0.4,4-1.3c1.2-0.8,2.3-1.8,3.2-2.9c-1.3-0.8-2.4-1.7-3.3-2.8c-0.9-1-1.4-2.3-1.4-3.7c0-0.5,0.1-1,0.2-1.5
			c0.3-1.2,1.1-2.1,2.2-2.7c0.3-0.2,0.7-0.3,1.1-0.4c0.4-0.1,0.8-0.1,1.2-0.1c1-0.1,2,0.2,2.8,0.9l0,0c0,0.1-0.1,0.2-0.2,0.3
			s-0.2,0.1-0.3,0c-0.3-0.4-0.8-0.6-1.3-0.5c-0.8,0-1.5,0.3-2.2,0.8c-0.6,0.5-1.1,1.1-1.3,1.9c-0.2,0.6-0.3,1.3-0.3,1.9
			c0,1.1,0.3,2.1,1,3c0.7,0.9,1.5,1.6,2.4,2.2c0.3-0.3,0.5-0.7,0.7-1c0.2-0.3,0.4-0.7,0.7-1c1.1-1.7,2.1-3.5,3-5.3l3-6.1
			c1-2.1,2.1-4.1,3.3-6.1c1.1-1.9,2.4-3.7,3.8-5.3c1.3-1.5,2.8-2.7,4.5-3.6c0.9-0.5,2-0.8,3.1-0.9c0.5,0,1,0.1,1.5,0.2
			c0.1,0,0.2,0.1,0.1,0.3c0,0.1-0.2,0.2-0.3,0.2c0,0,0,0,0,0c-0.1-0.1-0.3-0.1-0.4-0.1h-0.5c-1.8,0-3.6,1.1-5.5,3.4
			c-1.5,1.7-2.7,3.6-3.8,5.6c-1.1,2-2.1,4-3,6s-1.8,4.1-2.8,6.1c-1,2-2.1,4-3.4,5.8c-0.3,0.5-0.7,1-1.1,1.5s-0.8,0.9-1.2,1.4
			c0.5,0.2,1,0.4,1.5,0.5l1.4,0.3c1.5,0.3,3.1,0.5,4.6,0.4c2.1,0,4.3-0.2,6.4-0.7c1.9-0.4,3.7-1.1,5.4-2c2.2-1.1,4.1-2.7,5.8-4.5
			c1.7-2,3-4.3,4-6.7c1-2.3,1.5-4.8,1.5-7.3c0-2.4-0.6-4.7-1.7-6.8c-1.3-2.3-3.3-4.1-5.7-5.2c-1.7-0.9-3.6-1.5-5.4-1.8
			c-2-0.4-4-0.6-6-0.6c-2.8,0-5.6,0.5-8.3,1.4c-2.4,0.8-4.6,2-6.5,3.8c-1,1-1.8,2.1-2.3,3.4c-0.7,1.3-1,2.7-1,4.2c0,0.3,0,0.6,0,0.9
			c0,0.3,0.1,0.6,0.2,0.9c0.3,0.9,0.9,1.6,1.7,2.1c0.9,0.5,1.9,0.8,2.9,0.7c0.9,0,1.8-0.2,2.6-0.4h0.1c0,0,0,0,0.1,0
			c0.1,0,0.1,0,0.1,0.1c0,0.2-0.1,0.3-0.3,0.3c-0.5,0.1-1,0.3-1.5,0.4c-0.5,0.1-1,0.1-1.5,0.2c-1.1,0-2.1-0.2-3.1-0.6
			c-1-0.4-1.8-1-2.4-1.9c-0.7-0.9-1-2.1-0.9-3.2c0-1,0.1-2,0.4-2.9c0.3-0.9,0.7-1.8,1.3-2.6c1.2-1.7,2.8-3.1,4.7-4.1
			c2.1-1.1,4.4-2,6.7-2.5c4.4-1,9-1.1,13.4-0.3c2,0.4,4,1,5.8,1.7c3,1.1,5.5,3.2,7.3,5.8c1.5,2.3,2.2,5,2.2,7.8
			c0,2.6-0.6,5.2-1.7,7.6c-1.1,2.6-2.7,4.9-4.7,6.9c-2,2.1-4.4,3.7-7,4.9c-1.7,0.8-3.5,1.3-5.4,1.7c-1.9,0.4-3.9,0.5-5.9,0.6
			c-1.1,0-2.3-0.1-3.4-0.2c-1.1-0.1-2.2-0.3-3.3-0.5c-0.4-0.1-0.9-0.2-1.4-0.4c-0.5-0.2-1-0.4-1.5-0.6c-0.6,0.5-1.2,1.1-1.9,1.6
			c-0.6,0.5-1.3,1-2.1,1.3c-0.8,0.4-1.6,0.7-2.4,0.9C142.7,94.7,141.8,94.8,141,94.8z"/>
		<path class="st4" d="M189.9,90.6c-2,0-3.3-0.5-4.1-1.5c-0.4-0.4-0.7-1-0.9-1.6c-0.2-0.6-0.3-1.2-0.3-1.9c0-0.8,0.1-1.6,0.3-2.4
			c0.2-0.8,0.4-1.5,0.8-2.3c0.5-1.2,1.1-2.3,1.9-3.3c0.8-1.1,1.7-2.1,2.8-2.8c1.1-0.8,2.3-1.2,3.6-1.2c0.7,0,1.5,0.2,2.1,0.7
			c0.5,0.5,0.8,1.3,0.8,2c0,1.1-0.4,2.2-1,3.1c-0.6,1-1.4,1.9-2.4,2.6c-0.9,0.7-1.9,1-3,1.1c-0.9,0-1.8-0.4-2.5-1
			c-0.2,0.6-0.4,1.2-0.5,1.8c-0.1,0.7-0.2,1.3-0.2,2c0,0.9,0.2,1.9,0.6,2.7c0.5,0.8,1.4,1.3,2.3,1.2c0.8,0,1.6-0.2,2.3-0.6
			c0.7-0.4,1.4-0.9,2-1.5c0.7-0.7,1.3-1.5,1.9-2.3c0.7-0.9,1.2-1.8,1.8-2.8c0.1-0.1,0.1-0.2,0.2-0.2s0.2,0.2,0.2,0.4
			c0,0.2-0.1,0.5-0.2,0.7c-0.5,0.9-1.1,1.9-1.8,2.7c-0.6,0.9-1.3,1.7-2.1,2.4c-0.6,0.6-1.3,1.1-2.1,1.5
			C191.6,90.5,190.8,90.7,189.9,90.6z M188.2,81.4c0.2,0.3,0.5,0.6,0.8,0.7c0.3,0.1,0.7,0.2,1,0.2c0.9,0,1.8-0.4,2.5-0.9
			c0.8-0.6,1.6-1.3,2.1-2.2c0.3-0.5,0.5-0.9,0.6-1.5c0.2-0.6,0.3-1.1,0.3-1.7c0-0.4-0.1-0.9-0.3-1.2c-0.2-0.4-0.6-0.6-1.1-0.5
			c-0.8,0.1-1.6,0.5-2.2,1.1c-0.9,0.8-1.7,1.8-2.3,2.9c-0.2,0.4-0.5,0.9-0.8,1.4C188.6,80.2,188.4,80.8,188.2,81.4L188.2,81.4z
			 M193.6,71.1L193.6,71.1c-0.3,0-0.4-0.1-0.4-0.4c0-0.1,0.1-0.2,0.2-0.3c0.8-0.5,1.5-1.1,2.3-1.7c0.9-0.7,1.6-1.4,2.4-1.9
			c0.1-0.1,0.2-0.1,0.4-0.1c0.2,0,0.5,0.1,0.6,0.3c0.2,0.2,0.3,0.4,0.3,0.7c0,0.2-0.1,0.3-0.3,0.4L193.6,71.1z"/>
		<path class="st4" d="M199.8,90.9c-0.9,0.1-1.7-0.3-2.3-1c-0.5-0.7-0.7-1.5-0.7-2.3c0-0.7,0.1-1.4,0.3-2c0.3-1,0.6-2,1.1-3
			c0.5-1.3,1.1-2.7,1.7-4.2s1.3-2.9,1.9-4.3l0.9-2l1.1-2.2c0.4-0.7,0.6-1.3,0.9-1.8c0.6-1.2,1.3-2.6,2.2-4.2
			c0.9-1.7,1.8-3.3,2.9-4.8c1-1.5,2.3-2.9,3.6-4.1c1.2-1.1,2.8-1.8,4.4-2c0.2,0,0.3-0.1,0.5,0c0.7,0,1.3,0.2,1.7,0.7
			c0.4,0.5,0.6,1.1,0.6,1.7c0,0.6-0.1,1.1-0.4,1.7c-0.7,1.4-1.5,2.7-2.5,3.8c-1.2,1.4-2.4,2.7-3.7,3.9c-1.3,1.3-2.5,2.4-3.5,3.4
			c-0.9,0.8-1.6,1.6-2.3,2.2s-1.3,1.2-1.9,1.8s-1.2,1.3-1.9,2c-0.4,0.8-0.7,1.7-1.1,2.5s-0.6,1.3-0.6,1.5c0.9-1.2,1.9-2.3,3.1-3.3
			c0.8-0.8,1.9-1.3,3.1-1.4c0.9-0.1,1.7,0.2,2.3,0.8c0.4,0.6,0.7,1.4,0.6,2.2c0,0.9-0.1,1.7-0.4,2.6c-0.3,0.9-0.6,1.7-0.9,2.6
			c-0.3,0.7-0.6,1.4-1,2.1c-0.3,0.5-0.7,1.1-1.1,1.7c-0.5,0.6-0.9,1.1-1.5,1.7c0.1,0.4,0.3,0.8,0.7,1c0.3,0.2,0.7,0.3,1.1,0.3
			c0.5,0,1-0.1,1.5-0.3c0.5-0.2,0.9-0.5,1.3-0.8c0.8-0.7,1.5-1.4,2.1-2.3c0.6-0.9,1.2-1.8,1.8-2.7c0-0.1,0.1-0.1,0.1-0.1
			s0.1,0.2,0.1,0.5v0.4c0,0.1,0,0.2-0.1,0.3c-0.5,0.9-1.1,1.9-1.8,2.7c-0.6,0.8-1.4,1.4-2.2,2c-0.8,0.6-1.9,0.9-2.9,0.9
			c-0.5,0-0.9-0.1-1.3-0.3c-0.4-0.2-0.7-0.6-0.9-1c-0.9,0.9-1.9,1.7-3,2.3C202.3,90.5,201.1,90.9,199.8,90.9z M202,89.2
			c0.8-0.6,1.5-1.3,2.1-2.1c0.6-0.8,1.2-1.7,1.8-2.6c0.5-0.9,0.9-1.6,1.2-2.1s0.5-1,0.8-1.7s0.7-1.6,1-2.5c0.3-0.8,0.4-1.6,0.4-2.4
			c0-0.4-0.1-0.8-0.3-1.1c-0.2-0.3-0.6-0.5-1-0.4c-0.6,0.1-1.1,0.3-1.5,0.7c-0.6,0.6-1.2,1.2-1.7,1.8c-0.7,0.9-1.5,1.9-2.3,3.1
			c-0.8,1.2-1.6,2.5-2.3,3.8c-0.6,1.1-1.1,2.3-1.5,3.6c-0.1,0.3-0.1,0.7-0.1,1.1c0,0.4,0.1,0.8,0.4,1.2c0.3,0.2,0.6,0.4,1,0.4
			C200.7,89.9,201.4,89.7,202,89.2z M205.1,72.4c0.8-0.9,1.5-1.7,2.2-2.3l2.5-2.5c0.9-0.9,2-2,3.2-3.3s2.4-2.6,3.5-3.9
			c0.9-1.1,1.7-2.2,2.4-3.5c0.3-0.6,0.6-1.3,0.6-2c0-1-0.6-1.4-1.7-1.2c-1.2,0.2-2.3,0.8-3.2,1.7c-1.1,1.1-2.1,2.3-2.9,3.7
			c-0.9,1.5-1.8,3.1-2.6,4.7c-0.8,1.7-1.5,3.2-2.2,4.8C206.2,70,205.7,71.3,205.1,72.4L205.1,72.4z"/>
		<path class="st4" d="M219.2,91.2c-2.5,0.1-4.6-1.8-4.7-4.3c0-0.2,0-0.5,0-0.7c0-1.1,0.2-2.3,0.6-3.3c0.3-1.1,0.8-2.1,1.3-3.1
			c0.8-1.6,2-3.1,3.3-4.3c1.3-1.2,3-1.9,4.8-1.8c1.8,0,3,0.5,3.7,1.5c0.7,1,1.1,2.3,1.1,3.6c0,0.6-0.1,1.2-0.1,1.8
			c-0.3,1.7-0.8,3.3-1.7,4.8c0.2,0.3,0.6,0.6,0.9,0.8c0.4,0.2,0.8,0.3,1.3,0.3c0.7,0,1.5-0.2,2.1-0.7c0.6-0.5,1.1-1,1.5-1.6
			c0.4-0.7,0.8-1.3,1.1-1.8c0.2-0.4,0.4-0.6,0.6-0.6s0.1,0.1,0.1,0.2c-0.1,0.3-0.2,0.6-0.3,0.9c-0.5,1.1-1.2,2.1-2,3
			c-0.8,0.8-1.9,1.3-3,1.3c-1,0.1-2-0.4-2.6-1.3c-0.9,1.5-2,2.8-3.4,3.9C222.3,90.7,220.8,91.2,219.2,91.2z M219.3,90.6
			c1.9-0.1,3.6-1,4.9-2.4c0.5-0.5,0.9-1,1.3-1.5c0.4-0.5,0.7-1,1-1.6c-0.4-0.5-0.7-1-0.9-1.6c-0.2-0.5-0.3-1.1-0.3-1.7
			c0-0.8,0.1-1.5,0.4-2.2c0.2-0.6,0.7-1,1.3-1c0.3,0,0.6,0.2,0.8,0.4c0.3,0.4,0.5,0.8,0.5,1.3c0.1-0.5,0.2-1,0.1-1.5
			c0.1-1.1-0.2-2.1-0.7-3.1c-0.5-0.8-1.4-1.2-2.4-1.1c-0.8,0-1.5,0.3-2.1,0.8c-0.7,0.5-1.4,1.2-2,1.9c-0.6,0.7-1.1,1.5-1.6,2.3
			c-0.5,0.8-0.8,1.4-1.1,1.9c-0.5,1.1-0.9,2.2-1.2,3.3c-0.2,0.8-0.4,1.7-0.4,2.6c-0.1,0.9,0.2,1.7,0.7,2.5
			C218,90.3,218.6,90.6,219.3,90.6L219.3,90.6z"/>
		<path class="st4" d="M243.9,89.3c-0.5,0.4-1.1,0.8-1.7,1c-0.5,0.2-1,0.3-1.5,0.3c-0.8,0-1.5-0.3-2.1-0.9c-0.6-0.6-0.9-1.5-0.8-2.3
			c0-0.7,0.2-1.4,0.4-2.1c0.5-1.3,1.2-2.4,2-3.5c0.9-1.1,1.7-2.2,2.5-3.4c0.5-0.6,0.7-1.3,0.8-2c0-0.6-0.4-1.2-1.1-1.3
			c-0.1,0-0.1,0-0.2,0c-0.3-0.1-0.6-0.1-0.9-0.1h-3c-0.1,0-0.3,0-0.4,0c-0.2,1-0.4,1.9-0.8,2.8c-0.4,1-0.9,2.1-1.4,3.1
			s-1.1,2-1.6,2.8c-0.1,0.2-0.3,0.3-0.4,0.3s-0.1-0.1-0.1-0.3c0-0.2,0-0.4,0.1-0.6c0.7-1.4,1.4-2.7,2-4c0.7-1.3,1.1-2.7,1.3-4.2
			c-0.8-0.5-1.4-1.3-1.6-2.2c0-0.2-0.1-0.3-0.1-0.5c0-0.1,0-0.3,0-0.4c0-0.5,0.1-1.1,0.4-1.5c0.2-0.4,0.5-0.6,0.9-0.6
			c0.5,0,0.9,0.4,1.2,1.3c0.1,0.3,0.1,0.5,0.1,0.8c0,0.3,0,0.6,0.1,0.8c0,0.3,0,0.6,0,0.8c0,0.2,0,0.4-0.1,0.6
			c0.3,0.1,0.6,0.1,0.9,0.2c0.4,0,0.9,0.1,1.3,0.1c0.7,0,1.4,0,2.2-0.1s1.4-0.1,2-0.1c0.5-0.1,0.9,0.1,1.3,0.4
			c0.2,0.3,0.4,0.6,0.4,1c0,0.6-0.1,1.1-0.4,1.6c-0.3,0.6-0.5,1.1-0.7,1.5c-0.4,0.8-0.9,1.5-1.2,2.1c-0.4,0.6-0.8,1.3-1.3,2
			c-0.7,0.9-1.2,1.9-1.6,2.9c-0.3,0.7-0.4,1.5-0.5,2.2c0,1,0.4,1.6,1.2,1.6c0.9-0.2,1.8-0.6,2.5-1.4c0.7-0.6,1.3-1.3,1.8-2
			c0.5-0.8,1-1.6,1.5-2.4c0.5-0.8,0.8-1.5,1.1-2c0.1-0.1,0.1-0.2,0.2-0.2s0.2,0.1,0.2,0.4c0,0.2-0.1,0.4-0.1,0.6
			c-0.6,1-1.2,2.2-2,3.4C245.8,87.4,244.9,88.4,243.9,89.3z"/>
		<path class="st4" d="M258.7,90.6c-0.9,0.1-1.7-0.3-2.2-1c-0.4-0.7-0.6-1.5-0.6-2.3c0-0.3,0-0.6,0.1-0.9c0-0.4,0.1-0.8,0.2-1.2
			c-0.5,0.6-1,1.3-1.7,2.1c-0.6,0.7-1.3,1.4-2,2c-0.8,0.8-1.8,1.2-2.9,1.3c-0.8,0-1.5-0.4-1.9-1.1c-0.5-0.8-0.7-1.7-0.7-2.7
			c0-1.4,0.3-2.9,0.9-4.2c0.6-1.4,1.4-2.8,2.4-4c1-1.2,2.1-2.3,3.3-3.2c0.8-0.5,1.7-1,2.6-1.2c1-0.3,2-0.5,3.1-0.5
			c1.1,0,2.1,0.2,3.1,0.5c0.8,0.3,1.4,0.8,1.8,1.5c-0.8,1-1.5,2.1-2.1,3.3c-0.7,1.3-1.4,2.5-1.9,3.6c-0.4,0.7-0.8,1.7-1.2,2.7
			c-0.4,0.9-0.6,1.8-0.6,2.8c0,0.3,0.1,0.7,0.3,1c0.2,0.4,0.6,0.6,1,0.5c0.6,0,1.1-0.2,1.5-0.6c0.5-0.4,0.9-0.8,1.3-1.2
			c0.8-0.9,1.5-1.8,2.1-2.8c0.6-1,1.3-2.1,1.9-3.2c0.1-0.1,0.2-0.2,0.3-0.2c0.1,0,0.2,0.1,0.2,0.3c0,0.1,0,0.3-0.1,0.4
			c-0.6,1.1-1.2,2.2-1.9,3.3c-0.7,1.1-1.6,2.2-2.5,3.1c-0.5,0.5-1,0.9-1.7,1.2C260,90.4,259.4,90.6,258.7,90.6z M250.7,89
			c0.8-0.1,1.5-0.4,2.1-1c0.8-0.8,1.6-1.6,2.2-2.5c0.7-1,1.4-2,2-2.9s1-1.6,1.4-2.1c0.6-1,1.3-1.9,2-2.8c0.7-0.8,1.7-1.4,2.7-1.7
			h0.2c0.1,0,0.1,0,0.2,0c-0.4-0.5-0.9-0.9-1.5-1.1c-0.7-0.2-1.4-0.3-2.1-0.3c-1.1,0-2.1,0.3-3,0.9c-1,0.6-1.9,1.3-2.7,2.2
			c-0.8,1-1.6,2-2.3,3c-0.7,1-1.3,2.1-1.8,3.3c-0.4,1-0.7,2.1-0.7,3.2c0,0.5,0.1,1,0.3,1.4C249.9,88.8,250.3,89,250.7,89L250.7,89z"
			/>
		<path class="st4" d="M292.4,93.2c-1.7,0.4-3.4,0.6-5.2,0.6c-2.2,0.1-4.5-0.4-6.5-1.3c-1.6-0.7-3-1.9-4-3.4
			c-0.9-1.4-1.5-2.9-1.8-4.5c-0.1-0.8-0.1-1.5-0.1-2.3c0-2,0.3-4,0.8-5.9c0.7-2.4,1.7-4.6,2.9-6.8c1.3-2.2,2.8-4.3,4.5-6.1
			c1.8-1.9,3.7-3.5,5.8-4.9c2-1.4,4.2-2.4,6.6-3.2c1-0.4,2.1-0.6,3.2-0.8c1-0.1,2-0.2,3-0.2c0.6,0,1.2,0,1.8,0.1
			c0.5,0,1.1,0.2,1.6,0.3c1.2,0.3,2.3,0.9,3.1,1.7c0.8,0.8,1.2,1.8,1.2,2.9c0,0.4-0.1,0.7-0.1,1.1c1,1,1.7,2.2,2.1,3.5
			c0.4,1.4,0.6,2.9,0.6,4.3c0,1.1-0.1,2.2-0.3,3.2c-0.2,1.1-0.5,2.2-0.9,3.2c-0.8,2.6-2,5-3.5,7.2c-1.5,2.3-3.4,4.4-5.5,6.1
			c-2.1,1.7-4.5,3.1-7,4.1C294.7,92.4,293.1,93.1,292.4,93.2z M293.7,91.7c2.5-1.1,4.7-2.7,6.7-4.6c1.9-1.9,3.6-4.1,5-6.5
			c1.3-2.2,2.4-4.6,3.1-7.1c0.3-0.9,0.5-1.8,0.6-2.8c0.1-0.9,0.2-1.9,0.2-2.8c0-1-0.1-2-0.3-3c-0.2-0.9-0.5-1.8-0.9-2.6
			c-0.3,0.3-0.6,0.6-1,0.8c-0.2,0.1-0.3,0.1-0.5,0.2c-0.1,0-0.2,0-0.2-0.2c0-0.1,0.1-0.2,0.2-0.3c0.4-0.4,0.8-0.9,0.9-1.5
			c-0.7-0.8-1.5-1.5-2.4-2c-1.2-0.5-2.4-0.8-3.7-0.8c-1.6,0-3.2,0.4-4.7,1c-1.7,0.7-3.3,1.7-4.8,2.9c-1,0.8-1.9,1.8-2.6,2.9
			c-0.7,1.1-1.3,2.2-1.7,3.5c-0.4,1-0.6,2-0.7,3.1c-0.1,0.7,0.2,1.5,0.8,1.9c0.3,0.1,0.5,0.3,0.5,0.4c0,0.1-0.1,0.2-0.2,0.2
			c-0.1,0.1-0.3,0.1-0.5,0c-0.6-0.2-1.1-0.7-1.3-1.2c-0.3-0.7-0.4-1.4-0.4-2.1c0.1-1.6,0.5-3.2,1.2-4.7c0.7-1.6,1.8-3.1,3.1-4.3
			c1.6-1.4,3.5-2.5,5.5-3.3c1.9-0.7,3.8-1.1,5.8-1.1c1.2,0,2.4,0.2,3.6,0.5c1,0.3,1.9,0.8,2.8,1.3c0-0.9-0.4-1.7-1.1-2.3
			c-0.7-0.6-1.5-1.1-2.4-1.3c-0.9-0.3-1.9-0.4-2.9-0.4c-0.9,0-1.7,0.1-2.6,0.2c-1,0.2-1.9,0.4-2.8,0.7c-1.4,0.5-2.8,1.1-4,2
			c-1.4,1-2.8,2.1-4,3.4c-1.3,1.3-2.5,2.7-3.7,4.2c-1.1,1.4-2.1,2.9-2.9,4.5c-0.9,1.8-1.7,3.8-2.3,5.8c-0.6,2.1-0.9,4.3-1,6.5
			c0,0.5,0,1,0,1.5c0,0.5,0.1,1,0.2,1.4c0.2,1.3,0.7,2.5,1.4,3.6c0.7,1.1,1.7,2,2.9,2.6c1.4,0.7,3,1.1,4.6,1h0.2
			c0.7,0,1.4-0.1,2.1-0.2c0.7-0.1,1.4-0.3,2.1-0.5C292.4,92.2,293,92,293.7,91.7z"/>
		<path class="st4" d="M315.1,90.5c-0.9,0.1-1.7-0.3-2.2-0.9c-0.5-0.6-0.7-1.4-0.7-2.2c0-1.2,0.3-2.5,0.7-3.6c0.4-1.3,1-2.5,1.6-3.7
			c0.6-1.2,1.1-2.1,1.5-2.8c0.5-1,1.3-1.8,2.2-2.3c0.9-0.3,1.8-0.5,2.8-0.4c-0.5,0.3-1,0.7-1.3,1.2c-0.6,0.8-1.2,1.6-1.7,2.5
			c-0.6,1.1-1.2,2.1-1.7,3.3c-0.5,1.1-0.9,2.2-1.3,3.4c-0.3,0.9-0.5,1.8-0.5,2.8c0,0.5,0.1,0.9,0.3,1.4c0.2,0.4,0.6,0.6,1,0.6
			c0.5,0,1-0.2,1.4-0.5c0.5-0.3,1-0.7,1.5-1.2c1.5-1.6,2.7-3.4,3.6-5.4c0.9-2,2-3.9,3.1-5.9c0.5-1,1.3-1.8,2.2-2.3
			c0.9-0.3,1.8-0.5,2.8-0.4c-0.6,0.3-1,0.7-1.4,1.2c-0.7,0.9-1.3,1.8-1.8,2.7c-0.6,1.1-1.2,2.3-1.7,3.4c-0.5,1.2-1,2.3-1.3,3.6
			c-0.3,0.9-0.5,1.9-0.5,2.9c0,0.5,0.1,0.9,0.3,1.3c0.2,0.3,0.6,0.5,1,0.5c0.5,0,1-0.2,1.4-0.5c0.5-0.3,1.1-0.7,1.5-1.1
			c0.8-0.9,1.5-1.8,2.1-2.8c0.6-1,1.3-2.1,1.9-3.2c0.1-0.1,0.2-0.2,0.3-0.2s0.2,0.1,0.2,0.3c0,0.1,0,0.3-0.1,0.4
			c-0.6,1.1-1.2,2.2-1.9,3.3c-0.7,1.1-1.5,2.2-2.5,3.1c-0.6,0.5-1.2,1-1.9,1.3c-0.7,0.3-1.4,0.5-2.1,0.3c-0.8-0.1-1.5-0.5-2-1.1
			c-0.4-0.6-0.6-1.4-0.6-2.1c0-0.7,0.1-1.4,0.3-2.1c-0.4,0.6-0.8,1.3-1.3,1.9c-0.5,0.6-1,1.3-1.5,1.8c-0.5,0.5-1.1,0.9-1.7,1.2
			C316.5,90.4,315.8,90.5,315.1,90.5z"/>
		<path class="st4" d="M336.5,90.6c-1.9,0-3.3-0.5-4.1-1.5c-0.4-0.4-0.7-1-0.8-1.6c-0.2-0.6-0.3-1.2-0.3-1.9c0-0.8,0.1-1.6,0.3-2.4
			c0.2-0.8,0.4-1.5,0.8-2.3c0.5-1.2,1.1-2.3,1.9-3.3c0.8-1.1,1.7-2.1,2.8-2.8c1-0.8,2.3-1.2,3.6-1.2c0.7,0,1.5,0.2,2.1,0.7
			c0.5,0.5,0.8,1.3,0.8,2c0,1.1-0.4,2.2-1,3.1c-0.6,1-1.5,1.9-2.5,2.7c-0.9,0.7-1.9,1-3,1.1c-0.9,0-1.8-0.4-2.5-1
			c-0.2,0.6-0.4,1.2-0.5,1.8c-0.1,0.7-0.2,1.3-0.2,2c0,0.9,0.2,1.9,0.6,2.7c0.5,0.8,1.4,1.3,2.3,1.2c0.8,0,1.6-0.2,2.3-0.6
			c0.7-0.4,1.4-0.9,2-1.5c0.7-0.7,1.3-1.5,1.9-2.3c0.7-0.9,1.2-1.8,1.8-2.8c0.1-0.1,0.1-0.2,0.2-0.2c0.1,0,0.2,0.2,0.2,0.4
			c0,0.2-0.1,0.5-0.2,0.7c-0.5,0.9-1.1,1.9-1.8,2.7c-0.6,0.9-1.3,1.7-2.1,2.4c-0.6,0.6-1.3,1.1-2.1,1.5
			C338.2,90.5,337.3,90.6,336.5,90.6z M334.8,81.4c0.2,0.3,0.5,0.6,0.8,0.7c0.3,0.1,0.7,0.2,1,0.2c0.9,0,1.8-0.4,2.5-0.9
			c0.8-0.6,1.6-1.3,2.1-2.2c0.3-0.5,0.5-0.9,0.6-1.5c0.2-0.6,0.3-1.1,0.3-1.7c0-0.4-0.1-0.8-0.3-1.2c-0.2-0.4-0.6-0.6-1.1-0.5
			c-0.8,0.1-1.6,0.5-2.1,1.1c-0.9,0.8-1.7,1.8-2.3,2.9c-0.2,0.4-0.5,0.9-0.8,1.4C335.2,80.2,335,80.8,334.8,81.4z"/>
		<path class="st4" d="M346.2,90.5c-0.8,0.1-1.6-0.3-2.1-0.9c-0.5-0.7-0.7-1.5-0.7-2.3c0-0.3,0-0.6,0.1-0.8c0-0.3,0.1-0.6,0.2-0.9
			c0.4-1.5,1-3.1,1.7-4.5c0.8-1.7,1.5-3.1,2.3-4.4c0.3-0.6,0.7-1.1,1.2-1.6c0.4-0.3,0.8-0.5,1.2-0.7l1.6-0.5
			c0.2-0.1,0.3-0.1,0.5-0.2l0.5-0.1c-0.7,0.7-1.4,1.6-2,2.4c-0.9,1.2-1.6,2.5-2.2,3.9c-0.4,0.9-0.9,1.8-1.3,2.9
			c-0.4,1.1-0.8,2.1-1.1,3c-0.3,0.7-0.4,1.5-0.5,2.2c-0.1,0.5,0,0.9,0.3,1.3c0.2,0.3,0.5,0.4,0.8,0.4c0.6,0,1.2-0.2,1.6-0.6
			c0.5-0.4,1-0.8,1.4-1.3c0.8-0.9,1.5-1.8,2.1-2.8c0.7-1,1.3-2.1,1.9-3.2c0.1-0.1,0.2-0.2,0.3-0.2s0.2,0.1,0.2,0.3
			c0,0.1,0,0.3-0.1,0.4c-0.6,1.1-1.2,2.2-1.9,3.3c-0.7,1.1-1.5,2.2-2.5,3.1c-0.5,0.5-1,0.8-1.5,1.2
			C347.6,90.4,346.9,90.5,346.2,90.5z M352.4,70.8c-0.4,0-0.7-0.1-1-0.4c-0.2-0.2-0.4-0.6-0.4-0.9c0-0.5,0.2-1,0.6-1.3
			c0.3-0.3,0.8-0.6,1.3-0.6c0.4,0,0.7,0.1,1,0.4c0.3,0.3,0.4,0.6,0.4,1c0,0.5-0.2,0.9-0.6,1.3C353.3,70.6,352.9,70.8,352.4,70.8z"/>
		<path class="st4" d="M360,90.7c-0.8,0.1-1.6-0.2-2.2-0.8c-0.4-0.6-0.6-1.3-0.6-2c0-0.4,0-0.8,0.1-1.2c0.1-0.4,0.2-0.7,0.3-1.1
			c0.3-0.9,0.7-1.7,1.2-2.5c0.5-0.7,1-1.4,1.5-2.2c0.5-0.7,0.9-1.2,1.3-1.8c0.4-0.6,0.8-1.2,1.1-1.9c0.2-0.3,0.3-0.7,0.3-1.1
			c0-0.4-0.1-0.8-0.4-1c-0.2-0.2-0.6-0.3-0.9-0.3c-0.5,0-0.9,0.1-1.4,0.3c-0.5,0.2-1,0.4-1.5,0.7s-0.9,0.6-1.4,0.8
			c-0.3,0.3-0.7,0.4-1.1,0.5c-0.2,0.6-0.4,1.2-0.7,1.7c-0.3,0.8-0.7,1.6-1.2,2.6c-0.5,0.9-1,1.8-1.5,2.6c-0.1,0.2-0.3,0.3-0.3,0.3
			c-0.1,0-0.2-0.1-0.2-0.3c0-0.2,0-0.4,0.2-0.6c0.7-1.2,1.3-2.4,1.8-3.5c0.5-1,0.9-1.9,1.2-2.9c-0.3,0-0.7-0.1-0.9-0.4
			c-0.2-0.3-0.2-0.6-0.2-0.8c0-0.4,0.1-0.8,0.2-1.2c0.1-0.4,0.3-0.8,0.4-1c0.6,0.3,1.2,0.5,1.8,0.6c0.6,0.1,1.3,0.1,1.9,0.2
			c0.8,0,1.5,0,2.3-0.1c0.7-0.1,1.4-0.1,2-0.1c0.5-0.1,1.1,0.1,1.4,0.5c0.3,0.4,0.4,0.8,0.4,1.3c0,0.6-0.1,1.2-0.3,1.7
			c-0.2,0.5-0.4,1-0.6,1.5c-0.5,0.9-1,1.8-1.5,2.7c-0.5,0.9-1.1,1.8-1.5,2.7c-0.1,0.3-0.4,0.8-0.7,1.5c-0.3,0.7-0.6,1.4-0.7,2.1
			c0,0.1,0,0.1,0,0.2c0,0.1,0,0.1,0,0.2c0,0.3,0.1,0.6,0.3,0.8c0.2,0.2,0.4,0.3,0.7,0.3c0.6,0,1.1-0.2,1.6-0.5
			c0.5-0.3,0.9-0.7,1.3-1.1c0.8-0.9,1.5-1.8,2.1-2.8c0.6-1,1.3-2.1,1.9-3.3c0.1-0.1,0.1-0.2,0.2-0.2s0.2,0.1,0.2,0.4
			c0,0.2-0.1,0.4-0.2,0.6c-0.6,1.1-1.2,2.2-1.9,3.2c-0.7,1.1-1.5,2.1-2.4,3c-0.5,0.5-1,0.9-1.6,1.2C361.5,90.5,360.8,90.7,360,90.7z
			"/>
		<path class="st4" d="M371.4,91.2c-2.5,0.1-4.6-1.8-4.7-4.3c0-0.2,0-0.5,0-0.7c0-1.1,0.2-2.3,0.6-3.3c0.3-1.1,0.8-2.1,1.3-3.1
			c0.8-1.6,2-3.1,3.3-4.3c1.3-1.2,3-1.9,4.8-1.8c1.8,0,3,0.5,3.7,1.5c0.7,1,1.1,2.3,1.1,3.6c0,0.6-0.1,1.2-0.2,1.8
			c-0.3,1.7-0.8,3.3-1.7,4.8c0.2,0.3,0.6,0.6,0.9,0.8c0.4,0.2,0.8,0.3,1.3,0.3c0.7,0,1.5-0.2,2.1-0.7c0.6-0.5,1.1-1,1.5-1.6
			c0.4-0.7,0.8-1.3,1.1-1.8c0.2-0.4,0.4-0.6,0.6-0.6s0.2,0.1,0.2,0.2c-0.1,0.3-0.2,0.6-0.3,0.9c-0.5,1.1-1.2,2.1-2,3
			c-0.8,0.8-1.9,1.3-3,1.3c-1,0.1-2-0.4-2.6-1.2c-0.9,1.5-2,2.8-3.4,3.9C374.6,90.7,373,91.2,371.4,91.2z M371.5,90.6
			c1.9-0.1,3.6-1,4.9-2.4c0.5-0.5,0.9-1,1.3-1.5c0.4-0.5,0.7-1,1-1.6c-0.4-0.5-0.7-1-0.9-1.6c-0.2-0.5-0.3-1.1-0.3-1.7
			c0-0.8,0.1-1.5,0.5-2.2c0.2-0.6,0.7-1,1.3-1c0.3,0,0.6,0.1,0.8,0.4c0.3,0.4,0.5,0.8,0.5,1.3c0.1-0.5,0.2-1,0.1-1.5
			c0.1-1.1-0.2-2.1-0.7-3.1c-0.5-0.8-1.4-1.2-2.4-1.1c-0.8,0-1.5,0.3-2.1,0.8c-0.7,0.5-1.4,1.2-2,1.9c-0.6,0.7-1.2,1.5-1.6,2.3
			c-0.4,0.6-0.7,1.3-1,1.9c-0.5,1.1-0.9,2.2-1.2,3.3c-0.2,0.8-0.4,1.7-0.4,2.6c-0.1,0.9,0.2,1.7,0.7,2.5
			C370.2,90.3,370.8,90.6,371.5,90.6z"/>
		<path class="st4" d="M386.1,104.5l-0.7,0.1c-0.2,0-0.4,0-0.6,0c-1,0.1-1.9-0.3-2.6-0.9c-0.6-0.6-0.9-1.4-0.9-2.2
			c0-0.8,0.2-1.5,0.6-2.2c0.5-0.8,1.1-1.4,1.9-1.9c1.8-1.2,3.7-2.1,5.6-2.9c2.1-0.9,4.2-1.9,6.2-3l0.3-0.9c0.1-0.3,0.2-0.7,0.3-1
			c0.1-0.4,0.1-0.8,0.1-1.3c0.1-0.7-0.2-1.3-0.6-1.8c-0.5-0.4-1.1-0.6-1.7-0.6c-0.9,0-1.8,0.2-2.6,0.6l-0.9,0.3
			c-0.3,0.1-0.7,0.3-1.1,0.4c-0.4,0.7-0.9,1.3-1.5,1.8c-0.5,0.4-1,0.7-1.6,0.9c-0.1,0-0.3,0-0.5,0c-0.6,0-1-0.3-1-0.9
			c0-0.6,0.4-1.1,0.9-1.3c0.9-0.5,1.8-1.1,2.6-1.7c0.9-0.7,1.8-1.4,2.6-2.2c0.9-0.9,1.9-1.9,3-3.2c0.7-0.8,1.4-1.6,2.2-2.3
			s1.5-1.5,2.3-2.2c-0.4-0.1-0.7-0.1-1.1-0.2L396,76l-1.2-0.2c-0.2,0-0.4,0-0.6-0.1h-0.5c-0.7,0-1.4,0.1-2,0.4
			c-0.7,0.3-1.3,0.8-1.7,1.5c-0.5,0.8-1,1.6-1.5,2.4c-0.5,1-1.3,2.2-2.1,3.7c-0.1,0.2-0.2,0.3-0.3,0.3c-0.1,0-0.2-0.1-0.2-0.3
			c0-0.2,0.1-0.4,0.2-0.6c0.7-1.1,1.2-2.2,1.6-3c0.4-0.8,0.9-1.8,1.5-2.9c0.4-0.7,0.9-1.4,1.4-2c0.5-0.5,1.2-0.9,1.9-1.1
			c0.3-0.1,0.5-0.1,0.8-0.2c0.3,0,0.6,0,0.9,0c0.7,0,1.3,0,2,0.1c0.6,0.1,1.2,0.1,1.8,0.1h1.3c0.6,0,1.2,0,1.7-0.1
			c0.4,0,0.8-0.1,1.2-0.2c0.3,0.1,0.4,0.4,0.4,0.7c0,0.5-0.3,1-0.7,1.4c-0.5,0.6-1.3,0.8-2,0.6c-1,0.7-1.9,1.5-2.8,2.3
			c-1,1-1.9,1.9-2.6,2.6c-0.3,0.3-0.7,0.7-1.3,1.3c-0.6,0.5-1.2,1.1-1.8,1.8s-1.2,1.3-1.7,1.9c0,0,0,0.1,0,0.1c0,0,0,0.1,0,0.2
			c0.7-0.4,1.4-0.8,2.2-1c0.6-0.2,1.2-0.3,1.8-0.4c0.5-0.1,1-0.1,1.4-0.1c0.9-0.1,1.8,0.2,2.4,0.8c0.5,0.6,0.7,1.4,0.7,2.2
			c0,0.5-0.1,1-0.1,1.6c1.1-1,2.2-2.1,3.1-3.3c0.9-1.1,1.7-2.3,2.4-3.5c0.3-0.5,0.6-0.7,0.8-0.7c0.1,0,0.1,0,0.1,0.2
			c0,0.2-0.1,0.4-0.2,0.6c-0.6,1.1-1.3,2.1-2,3.1c-0.7,1-1.5,2-2.3,2.8c-0.6,0.6-1.3,1.2-2.2,1.9c-0.1,0.4-0.2,0.8-0.4,1.2
			c-0.1,0.4-0.3,0.8-0.5,1.2c-0.7,1.9-1.7,3.7-2.8,5.3c-1,1.5-2.2,2.9-3.7,4.1C389.4,103.5,387.8,104.2,386.1,104.5z M385.8,103.6
			c1.6-0.5,3.1-1.4,4.3-2.6c1.2-1.3,2.2-2.7,3-4.2c0.8-1.6,1.6-3.1,2.3-4.6c-1,0.7-2.1,1.2-3.2,1.7L388,96c-1.3,0.6-2.5,1.2-3.7,2
			c-0.7,0.4-1.2,1-1.6,1.7c-0.3,0.6-0.5,1.2-0.5,1.9c0,0.6,0.2,1.2,0.6,1.6c0.4,0.5,1.1,0.7,1.7,0.7
			C385,103.8,385.4,103.7,385.8,103.6L385.8,103.6z"/>
		<path class="st4" d="M296.8,87.5c-0.8-0.6-1.8-1.1-2.7-1.5c-1.1-0.5-2.2-1-3.4-1.2c-0.5-0.1-1-0.2-1.5-0.2c-0.5-0.1-0.9-0.1-1.4,0
			c-0.9,0.1-1.7,0.5-2.3,1.1c-0.1,0.1-0.2,0.2-0.1,0.3c0,0.1,0.1,0.2,0.2,0.1c0,0,0,0,0,0h0.1c0.4-0.3,0.8-0.4,1.3-0.5
			c1.2-0.1,2.4,0,3.5,0.5c1.4,0.6,2.7,1.3,4,2.2l0.9,0.6c1.7,1.3,3.5,2.9,5.3,4.6c1.5,1.4,3.1,2.8,4.7,4c1.5,1.2,3.2,2.2,5,2.9
			c1.7,0.7,3.5,0.9,5.3,0.6c1.1-0.2,2.2-0.6,3.2-1.2c0.9-0.6,1.7-1.4,2.2-2.4c0.5-1.2,0.6-2.4,0.4-3.7c-0.2-1.2-0.7-2.4-1.4-3.4
			c-0.7-1.2-1.8-2.1-3-2.6c-0.1-0.1-0.3-0.1-0.4-0.1c-0.1,0-0.2,0.1-0.1,0.2c0,0.1,0.1,0.1,0.2,0.2c0.7,0.4,1.3,0.9,1.8,1.6
			c0.5,0.7,1,1.4,1.4,2.2c0.3,0.7,0.6,1.4,0.7,2.2c0.3,1.2,0.1,2.4-0.6,3.4c-0.7,0.8-1.6,1.4-2.7,1.5c-1.5,0.2-3.1,0-4.5-0.6
			c-1.7-0.7-3.4-1.6-4.9-2.7c-1.7-1.1-3.3-2.3-5-3.6c-1.7-1.3-3.2-2.4-4.6-3.5L296.8,87.5z"/>
	</g>
	<g>
		<path class="st4" d="M193.9,121.4c-0.1,0-0.3-0.1-0.3-0.2c0-0.1,0-0.2,0-0.3c0-0.1,0.2-0.2,0.3-0.2c0.5-0.1,0.9-0.2,1.4-0.4
			c0.4-0.2,0.6-0.6,0.6-1.1l0.6-12.4c0-0.2-0.1-0.4-0.3-0.6c-0.2-0.2-0.4-0.3-0.7-0.4c-0.2-0.1-0.4-0.2-0.7-0.2
			c-0.2,0-0.3-0.2-0.2-0.4c0-0.1,0.1-0.2,0.2-0.2h0.2h11.1c0.2,0,0.3,0,0.4,0.1c0.1,0.2,0.1,0.3,0.1,0.5l-0.1,2.5c0,0.1,0,0.1,0,0.2
			c0,0.1-0.1,0.2-0.1,0.2c-0.1,0-0.2,0-0.3,0c-0.1,0-0.1-0.1-0.2-0.1c-0.1-0.6-0.3-1.1-0.5-1.6c-0.2-0.3-0.5-0.6-0.9-0.7
			c-0.6-0.1-1.1-0.2-1.7-0.2h-5.4c0.2,0,0.4,0.2,0.6,0.3c0.1,0.2,0.1,0.3,0.1,0.5l-0.3,5.9h3.3c0.4,0,0.9-0.1,1.3-0.2
			c0.3-0.2,0.6-0.5,0.8-0.8c0.1-0.2,0.2-0.2,0.4-0.2c0,0,0,0,0,0c0.1,0,0.2,0.1,0.2,0.2c0,0.1,0,0.1,0,0.2l-0.1,2.6
			c0,0.1,0,0.1,0,0.2c0,0.1-0.1,0.1-0.2,0.2c-0.2,0.1-0.3,0-0.4-0.2c0,0,0,0,0,0c-0.4-0.7-1.2-1.1-2-1h-3.3l-0.3,5.5
			c-0.1,0.4,0.2,0.9,0.6,1.1c0.4,0.2,0.8,0.4,1.3,0.4c0.1,0,0.2,0.1,0.3,0.2c0,0.1,0,0.2,0,0.3c-0.1,0.1-0.2,0.2-0.4,0.2
			L193.9,121.4z"/>
		<path class="st4" d="M209.4,120.2l0.5-8.7c0,0,0,0-0.1,0c-0.1,0-0.2,0.1-0.3,0.1c-0.5,0.4-1.2,0.3-1.6-0.2l1-0.7l1.1-0.8
			c0.2-0.2,0.4-0.3,0.7-0.4c0.2-0.1,0.4-0.1,0.6,0c0.2,0.1,0.3,0.3,0.2,0.4l-0.5,9.5c0,0.2,0,0.4,0.1,0.6c0.1,0.2,0.3,0.3,0.5,0.3
			c0.2,0,0.4-0.1,0.6-0.2c0.3-0.2,0.5-0.4,0.7-0.6c0.1-0.1,0.2-0.2,0.3-0.1c0.1,0,0.2,0.1,0.1,0.3c-0.1,0.5-0.4,1-0.8,1.4
			c-0.4,0.4-1,0.7-1.6,0.7c-0.4,0-0.8-0.1-1.1-0.5C209.5,121,209.3,120.6,209.4,120.2z M209,105.2c-0.1-0.2,0-0.3,0.2-0.4
			c0.2-0.1,0.5-0.1,0.8,0c0.3,0.1,0.6,0.2,0.9,0.3c0.3,0.2,0.5,0.4,0.6,0.7c0.1,0.3,0.1,0.7-0.1,0.9c-0.2,0.3-0.5,0.5-0.8,0.6
			c-0.2,0-0.4,0-0.6,0c-0.3,0-0.5-0.2-0.5-0.5c0-0.2,0-0.4-0.1-0.7C209.2,105.9,209.1,105.6,209,105.2L209,105.2z"/>
		<path class="st4" d="M217.2,112.2c0,0.4,0.1,0.8,0.4,1.1c0.3,0.3,0.7,0.6,1.1,0.8l1.5,0.8c0.6,0.3,1.1,0.6,1.7,0.9
			c0.6,0.3,1.1,0.7,1.5,1.2c0.4,0.5,0.6,1.1,0.5,1.8c0,0.6-0.2,1.2-0.7,1.7c-0.4,0.5-1,0.9-1.6,1.2c-0.7,0.3-1.5,0.4-2.2,0.4
			c-0.9,0-1.7-0.2-2.5-0.6c-0.6-0.3-1.1-0.8-1.5-1.3c-0.3-0.4-0.5-0.9-0.6-1.5c0-0.5,0.3-0.8,1-1c0.5-0.1,0.9,0,1,0.2
			c0.1,0.1,0.1,0.3,0,0.4c-0.1,0.2-0.1,0.3-0.2,0.5c0.1,0.8,0.6,1.5,1.3,1.9c1.2,0.6,2.6,0.5,3.6-0.3c0.5-0.4,0.8-1,0.8-1.6
			c0-0.4-0.1-0.9-0.5-1.2c-0.4-0.3-0.8-0.6-1.2-0.8l-1.5-0.8l-1.5-0.8c-0.5-0.3-1-0.7-1.3-1.1c-0.7-1-0.7-2.4,0.1-3.3
			c0.4-0.5,1-0.9,1.6-1.1c0.7-0.3,1.5-0.4,2.2-0.3c0.7,0,1.4,0.2,2,0.5c0.5,0.2,0.8,0.6,1.2,1c0.2,0.3,0.4,0.6,0.4,0.9
			c0,0.2,0,0.4-0.1,0.5c-0.1,0.3-0.4,0.5-0.7,0.6c-0.2,0.1-0.4,0.1-0.6,0.1c-0.2,0-0.3-0.1-0.3-0.3c0-0.1,0-0.2,0-0.3
			c0-0.1,0.1-0.2,0.2-0.3c0-0.2,0-0.4-0.2-0.6c-0.2-0.3-0.4-0.6-0.7-0.8c-0.4-0.3-0.9-0.4-1.4-0.4c-0.7-0.1-1.4,0.1-2,0.6
			C217.5,111,217.2,111.6,217.2,112.2z"/>
		<path class="st4" d="M227.3,120.2l0.5-8.7c0,0-0.1,0-0.1,0c-0.1,0-0.2,0.1-0.3,0.1c-0.5,0.4-1.2,0.3-1.6-0.2l1-0.7l1.1-0.8
			c0.2-0.2,0.4-0.3,0.7-0.4c0.2-0.1,0.4-0.1,0.6,0c0.2,0.1,0.3,0.3,0.2,0.4l-0.5,9.5c0,0.2,0,0.4,0.1,0.6c0.1,0.2,0.3,0.3,0.5,0.3
			c0.2,0,0.4-0.1,0.6-0.2c0.3-0.2,0.5-0.4,0.7-0.6c0.1-0.1,0.2-0.2,0.3-0.1c0.1,0,0.2,0.1,0.1,0.3c-0.1,0.5-0.4,1-0.8,1.4
			c-0.4,0.4-1,0.7-1.6,0.7c-0.4,0-0.8-0.1-1.1-0.5C227.4,121,227.3,120.6,227.3,120.2z M226.9,105.2c-0.1-0.2,0-0.3,0.2-0.4
			c0.2-0.1,0.5-0.1,0.8,0c0.3,0.1,0.6,0.2,0.9,0.3c0.3,0.2,0.5,0.4,0.6,0.7c0.1,0.3,0.1,0.7-0.1,0.9c-0.2,0.3-0.5,0.5-0.8,0.6
			c-0.2,0-0.4,0-0.6,0c-0.3,0-0.5-0.2-0.5-0.5c0-0.2,0-0.4-0.1-0.7C227.2,105.9,227.1,105.6,226.9,105.2L226.9,105.2z"/>
		<path class="st4" d="M237.9,121.6c-0.9,0-1.8-0.3-2.6-0.8c-0.8-0.5-1.4-1.3-1.8-2.2c-0.4-1-0.6-2.1-0.5-3.2c0.1-1.1,0.4-2.2,1-3.2
			c0.5-0.9,1.2-1.6,2.1-2.1c0.9-0.5,1.9-0.8,2.9-0.8c0.9,0,1.8,0.3,2.6,0.8c0.8,0.5,1.4,1.3,1.9,2.1c0.5,1,0.6,2.1,0.5,3.2
			c-0.1,1.1-0.4,2.2-1,3.2c-0.5,0.9-1.3,1.6-2.1,2.2C239.9,121.4,238.9,121.7,237.9,121.6z M234.6,115.5c0,0.9,0.1,1.8,0.4,2.6
			c0.2,0.7,0.7,1.4,1.2,1.9c0.5,0.5,1.2,0.7,1.9,0.7c0.7,0,1.4-0.2,2-0.7c0.6-0.5,1.1-1.1,1.4-1.9c0.4-0.8,0.6-1.7,0.6-2.6
			c0.1-0.9-0.1-1.8-0.4-2.6c-0.3-0.7-0.7-1.3-1.2-1.8c-0.5-0.5-1.2-0.7-1.9-0.7c-0.7,0-1.4,0.2-2,0.7c-0.6,0.5-1.1,1.1-1.4,1.8
			C234.9,113.8,234.7,114.6,234.6,115.5z"/>
		<path class="st4" d="M247.1,119l0.3-8.1c-0.4,0-0.6,0-0.8,0.1c-0.2,0-0.4,0.1-0.5,0.1c-0.2,0-0.3,0.1-0.4,0.3
			c-0.1,0.1-0.2,0.1-0.3,0.1c-0.1,0-0.2-0.1-0.2-0.3l0.1-1c0-0.2,0.1-0.3,0.4-0.3h1.8l0.1-2.3c0-0.3,0.1-0.7,0.3-0.9
			c0.3-0.3,0.8-0.4,1.2-0.3l-0.1,3.6h2.9c0.2,0,0.3,0.1,0.3,0.3l-0.1,1c0,0.2-0.1,0.3-0.2,0.3c-0.1,0-0.2,0-0.3-0.1
			c-0.1-0.2-0.3-0.3-0.4-0.3c-0.2-0.1-0.5-0.1-0.7-0.2h-1.5l-0.3,7.7c-0.1,0.5,0.1,0.9,0.3,1.3c0.2,0.3,0.6,0.4,0.9,0.4
			c0.4,0,0.8-0.1,1.1-0.2c0.4-0.1,0.7-0.4,1-0.7c0.1-0.1,0.3-0.1,0.4,0c0.1,0.1,0.2,0.2,0.1,0.4c0,0,0,0,0,0c-0.2,0.6-0.6,1-1.2,1.3
			c-0.5,0.4-1.2,0.6-1.8,0.6c-0.3,0-0.7-0.1-1-0.2c-0.4-0.2-0.7-0.5-0.9-0.8C247.2,120.2,247,119.6,247.1,119z"/>
		<path class="st4" d="M259.4,120.5c0.6,0.1,1.2,0,1.8-0.2c0.5-0.2,0.9-0.5,1.3-0.8c0.3-0.3,0.6-0.5,0.8-0.9
			c0.1-0.1,0.2-0.2,0.4-0.3c0.2,0,0.3,0,0.5,0.1c-0.1,0.3-0.2,0.5-0.4,0.8c-0.5,0.9-1.3,1.6-2.3,2.1c-0.7,0.3-1.4,0.4-2.1,0.4
			c-1,0-1.9-0.2-2.8-0.7c-0.8-0.5-1.5-1.2-1.9-2c-0.5-0.9-0.7-1.9-0.6-2.9c0-1,0.2-1.9,0.7-2.8c0.4-0.8,0.9-1.5,1.6-2.1
			c0.6-0.6,1.3-1,2.1-1.3c0.7-0.3,1.5-0.5,2.3-0.5c0.6,0,1.2,0.1,1.7,0.3c0.4,0.2,0.8,0.5,1.1,0.8c0.2,0.3,0.4,0.6,0.5,0.9
			c0.1,0.2,0.1,0.5,0.2,0.8c0,0.6-0.2,1.2-0.6,1.8c-0.4,0.6-1,1-1.6,1.4c-0.7,0.4-1.4,0.7-2.2,0.9c-0.8,0.2-1.7,0.3-2.5,0.3
			c-0.3,0-0.5-0.1-0.6-0.3c-0.1-0.1-0.1-0.3-0.1-0.5c0.6,0,1.3-0.1,1.9-0.3c0.7-0.2,1.3-0.4,1.9-0.7c0.5-0.3,1-0.6,1.5-1.1
			c0.3-0.3,0.6-0.8,0.6-1.2c0-0.6-0.2-1.1-0.6-1.5c-0.4-0.4-0.9-0.6-1.5-0.6c-0.8,0-1.6,0.2-2.2,0.7c-0.7,0.5-1.2,1.2-1.6,2
			c-0.4,0.8-0.6,1.7-0.7,2.7c0,0.8,0.1,1.6,0.4,2.3c0.2,0.7,0.7,1.3,1.2,1.7C258,120.2,258.7,120.4,259.4,120.5z"/>
		<path class="st4" d="M265.6,111.2l1-0.7l1.1-0.8c0.2-0.2,0.5-0.3,0.7-0.4c0.2-0.1,0.4-0.1,0.6,0c0.2,0.1,0.3,0.3,0.2,0.5l-0.3,5.8
			c0.2-1.1,0.6-2.2,1.1-3.2c0.4-0.8,1-1.5,1.7-2.1c0.5-0.4,1-0.8,1.6-1c0.2-0.1,0.3-0.1,0.5,0c0.1,0.1,0.3,0.2,0.4,0.3
			c0.3,0.3,0.4,0.6,0.4,1c0.1,0.3-0.1,0.6-0.4,0.6c0,0,0,0-0.1,0c-0.1,0-0.2,0-0.3,0l-0.3-0.1c-0.5,0-1,0.2-1.4,0.5
			c-0.6,0.5-1.1,1.1-1.5,1.8c-0.5,0.9-1,1.9-1.3,2.9c-0.4,1.3-0.6,2.6-0.6,4c0,0.3-0.1,0.7-0.4,0.9c-0.4,0.2-0.8,0.3-1.2,0.2
			l0.5-10.1c0,0-0.1,0-0.2,0c-0.1,0-0.2,0.1-0.3,0.1C266.7,111.9,266,111.7,265.6,111.2z"/>
		<path class="st4" d="M279.3,121.7c-0.7,0-1.4-0.2-2-0.6c-0.6-0.4-1.2-1-1.5-1.7c-0.4-0.8-0.6-1.7-0.6-2.6c0-0.9,0.2-1.8,0.5-2.7
			c0.3-0.9,0.8-1.7,1.4-2.4c0.6-0.7,1.2-1.3,2-1.7c0.8-0.4,1.6-0.6,2.5-0.6c0.8,0,1.6,0.1,2.4,0.5c0.5,0.2,0.9,0.5,1.3,0.8l-0.3,8.7
			c0,0.2,0,0.4,0.1,0.6c0.1,0.2,0.2,0.3,0.5,0.3c0.2,0,0.4-0.1,0.6-0.2c0.3-0.2,0.5-0.4,0.7-0.6c0.1-0.1,0.2-0.2,0.3-0.1
			c0.1,0,0.2,0.1,0.1,0.3c-0.1,0.5-0.4,1-0.8,1.4c-0.4,0.4-1,0.6-1.6,0.6c-0.4,0-0.8-0.1-1.1-0.5c-0.2-0.3-0.4-0.7-0.3-1.1l0.1-2.5
			c-0.2,0.7-0.5,1.3-0.9,1.9c-0.4,0.6-0.9,1.1-1.4,1.6C280.7,121.5,280,121.8,279.3,121.7z M277,116.9c0,0.6,0.1,1.2,0.3,1.7
			c0.2,0.5,0.5,1,0.9,1.4c0.4,0.4,0.9,0.6,1.4,0.5c0.5,0,1-0.2,1.4-0.5c0.5-0.4,0.9-0.9,1.2-1.4c0.4-0.6,0.7-1.2,0.9-1.9
			c0.2-0.6,0.4-1.3,0.4-1.9l0.1-2.2c0-0.2,0-0.4,0-0.6c0-0.2-0.1-0.3-0.2-0.4c-0.2-0.3-0.5-0.6-0.8-0.8c-0.4-0.2-0.8-0.3-1.3-0.3
			c-0.7,0-1.3,0.2-1.8,0.6c-0.6,0.4-1,1-1.4,1.6C277.4,114,277,115.4,277,116.9L277,116.9z"/>
		<path class="st4" d="M291.2,124.3l0,1.2c0,0.4-0.1,0.8-0.3,1.1c-0.2,0.2-0.6,0.3-1.3,0.3l0.5-12.4c-0.5,0.8-0.9,1.7-1.2,2.6
			c-0.1,0-0.2-0.1-0.3-0.2c-0.1-0.1-0.1-0.3,0-0.7c0.3-1.2,0.9-2.4,1.6-3.4l0.1-2.4c0-0.4,0.2-0.7,0.5-0.9c0.3-0.2,0.7-0.2,1,0v1.7
			c0.6-0.5,1.3-1,2-1.3c0.6-0.3,1.4-0.4,2-0.3c0.9,0.1,1.7,0.4,2.3,1c0.6,0.6,1.1,1.4,1.3,2.3c0.3,1,0.3,2,0.2,3
			c-0.1,0.9-0.4,1.8-0.8,2.6c-0.4,0.8-0.9,1.4-1.6,2c-0.6,0.5-1.3,0.9-2,1.1c-0.5,0.1-1,0.2-1.6,0.1c-0.5,0-1-0.2-1.5-0.5
			c-0.2-0.1-0.3-0.3-0.2-0.4c0-0.1,0-0.2,0.1-0.3c0.5,0.3,1,0.4,1.5,0.4c0.6,0,1.2-0.2,1.7-0.5c0.6-0.4,1.2-1,1.6-1.6
			c0.5-0.8,0.8-1.6,0.9-2.6c0.1-0.8,0.1-1.7,0-2.5c-0.1-0.7-0.4-1.3-0.8-1.9c-0.4-0.5-0.9-0.8-1.5-0.9c-0.6-0.1-1.3,0-1.9,0.3
			c-0.7,0.3-1.3,0.8-1.9,1.3L291.2,124.3z"/>
		<path class="st4" d="M306.8,120.5c0.6,0.1,1.2,0,1.7-0.2c0.5-0.2,0.9-0.5,1.3-0.8c0.3-0.3,0.6-0.5,0.8-0.9
			c0.1-0.2,0.2-0.3,0.4-0.3c0.2,0,0.4,0,0.5,0.1c-0.1,0.3-0.2,0.5-0.4,0.8c-0.2,0.4-0.5,0.8-0.9,1.1c-0.9,0.9-2.2,1.4-3.5,1.4
			c-1,0-1.9-0.2-2.8-0.7c-0.8-0.5-1.5-1.2-1.9-2c-0.5-0.9-0.7-1.9-0.6-2.9c0-1,0.2-1.9,0.7-2.8c0.4-0.8,0.9-1.5,1.6-2.1
			c0.6-0.6,1.3-1,2.1-1.3c0.7-0.3,1.5-0.5,2.3-0.5c0.6,0,1.2,0.1,1.7,0.3c0.4,0.2,0.8,0.5,1.1,0.8c0.2,0.3,0.4,0.6,0.5,0.9
			c0.1,0.2,0.2,0.5,0.2,0.8c0,0.6-0.2,1.2-0.6,1.8c-0.4,0.6-1,1-1.6,1.4c-0.7,0.4-1.4,0.7-2.2,0.9c-0.8,0.2-1.7,0.3-2.5,0.3
			c-0.2,0-0.5-0.1-0.6-0.3c-0.1-0.1-0.1-0.3-0.1-0.5c0.6,0,1.3-0.1,1.9-0.3c0.7-0.2,1.3-0.4,1.9-0.7c0.5-0.3,1-0.6,1.5-1.1
			c0.3-0.3,0.5-0.8,0.6-1.2c0-0.6-0.2-1.1-0.6-1.5c-0.4-0.4-0.9-0.6-1.5-0.6c-0.8,0-1.6,0.2-2.2,0.7c-0.7,0.5-1.2,1.2-1.6,2
			c-0.4,0.8-0.6,1.7-0.7,2.7c0,0.8,0.1,1.6,0.4,2.3c0.2,0.7,0.7,1.3,1.2,1.7C305.4,120.2,306.1,120.4,306.8,120.5z"/>
		<path class="st4" d="M317.3,121.7c-0.4,0-0.8-0.1-1.2-0.3c-0.4-0.2-0.8-0.5-1-0.9c-0.3-0.6-0.4-1.2-0.3-1.8l0.4-7.2
			c0,0-0.1,0-0.1,0c-0.1,0-0.2,0.1-0.3,0.1c-0.5,0.4-1.2,0.3-1.6-0.2l1-0.7l1.1-0.7c0.2-0.2,0.4-0.3,0.7-0.4c0.2-0.1,0.4-0.1,0.6,0
			c0.2,0.1,0.3,0.3,0.2,0.4l-0.5,8.6c0,0.4,0.1,0.9,0.4,1.2c0.3,0.3,0.8,0.5,1.3,0.5c0.8,0,1.6-0.4,2.2-1c0.9-0.9,1.5-2,1.8-3.2
			c0.1-0.4,0.2-0.7,0.2-1.1c0.1-0.4,0.1-0.8,0.1-1.2l0.2-3.1c0-0.4,0.1-0.8,0.4-1.1c0.3-0.3,0.8-0.3,1.2-0.2l-0.4,10
			c0,0.2,0,0.4,0.1,0.6c0.1,0.2,0.3,0.3,0.5,0.3c0.2,0,0.4-0.1,0.6-0.2c0.3-0.2,0.5-0.4,0.7-0.6c0.1-0.1,0.2-0.2,0.3-0.1
			c0.1,0,0.1,0.1,0.1,0.3c-0.1,0.5-0.4,1-0.8,1.4c-0.4,0.4-1,0.6-1.6,0.6c-0.4,0-0.8-0.1-1.1-0.5c-0.2-0.3-0.4-0.7-0.3-1.1l0.1-2.6
			c-0.3,0.7-0.6,1.4-1.1,2.1c-0.5,0.6-1,1.1-1.7,1.5C318.7,121.5,318,121.7,317.3,121.7z"/>
		<path class="st4" d="M328.8,119l0.4-8.1c-0.4,0-0.6,0-0.8,0.1c-0.2,0-0.4,0.1-0.5,0.1c-0.2,0-0.3,0.1-0.4,0.3
			c-0.1,0.1-0.2,0.1-0.3,0.1c-0.1,0-0.2-0.1-0.2-0.3l0.1-1c0-0.2,0.2-0.3,0.4-0.3h1.8l0.1-2.3c-0.1-0.7,0.4-1.2,1.1-1.3
			c0.1,0,0.3,0,0.4,0l-0.2,3.6h2.9c0.2,0,0.3,0.1,0.3,0.3l-0.1,1c0,0.2-0.1,0.3-0.2,0.3c-0.1,0-0.2,0-0.3-0.1c0-0.1-0.2-0.2-0.4-0.3
			c-0.2-0.1-0.5-0.1-0.8-0.2h-1.5l-0.3,7.7c0,0.5,0.1,0.9,0.3,1.3c0.2,0.3,0.6,0.4,0.9,0.4c0.4,0,0.8-0.1,1.1-0.2
			c0.4-0.2,0.7-0.4,1-0.7c0.1-0.1,0.2-0.1,0.3,0c0.1,0.1,0.2,0.2,0.1,0.3c0,0,0,0,0,0c-0.2,0.6-0.6,1-1.2,1.3
			c-0.5,0.4-1.2,0.6-1.8,0.6c-0.3,0-0.7-0.1-1-0.2c-0.4-0.2-0.7-0.5-0.9-0.8C328.9,120.2,328.7,119.6,328.8,119z"/>
		<path class="st4" d="M339.5,121.7c-0.7,0-1.4-0.2-2-0.6c-0.6-0.4-1.2-1-1.5-1.7c-0.4-0.8-0.6-1.7-0.6-2.6c0-0.9,0.2-1.8,0.5-2.7
			c0.3-0.9,0.8-1.7,1.4-2.4c0.6-0.7,1.2-1.3,2-1.7c0.8-0.4,1.6-0.6,2.5-0.6c0.8,0,1.6,0.1,2.3,0.5c0.5,0.2,0.9,0.5,1.3,0.8l-0.3,8.7
			c0,0.2,0,0.4,0.1,0.6c0.1,0.2,0.3,0.3,0.5,0.3c0.2,0,0.4-0.1,0.6-0.2c0.3-0.2,0.5-0.4,0.7-0.6c0.1-0.1,0.2-0.2,0.3-0.1
			c0.1,0,0.2,0.1,0.1,0.3c-0.1,0.5-0.4,1-0.8,1.4c-0.4,0.4-1,0.6-1.6,0.6c-0.4,0-0.8-0.1-1.1-0.5c-0.2-0.3-0.4-0.7-0.3-1.1l0.1-2.5
			c-0.2,0.7-0.5,1.3-0.8,1.9c-0.4,0.6-0.9,1.1-1.4,1.6C340.9,121.5,340.2,121.7,339.5,121.7z M337.2,116.9c0,0.6,0.1,1.2,0.3,1.7
			c0.2,0.5,0.5,1,0.9,1.4c0.4,0.4,0.9,0.6,1.4,0.5c0.5,0,1-0.2,1.4-0.5c0.5-0.4,0.9-0.9,1.2-1.4c0.4-0.6,0.7-1.2,0.9-1.9
			c0.2-0.6,0.4-1.3,0.4-1.9l0.1-2.2c0-0.2,0-0.4,0-0.6c0-0.2-0.1-0.3-0.2-0.4c-0.2-0.3-0.5-0.6-0.8-0.8c-0.4-0.2-0.8-0.3-1.3-0.3
			c-0.7,0-1.3,0.2-1.8,0.6c-0.6,0.4-1,1-1.4,1.6C337.7,114,337.3,115.4,337.2,116.9L337.2,116.9z"/>
	</g>
</g>
<rect x="0" y="0" class="st5" width="450.3" height="160.2"/>
</svg>
