<?xml version="1.0" encoding="utf-8"?>
<!-- Generator: Adobe Illustrator 24.0.1, SVG Export Plug-In . SVG Version: 6.00 Build 0)  -->
<svg version="1.1" id="Layer_1" xmlns="http://www.w3.org/2000/svg" xmlns:xlink="http://www.w3.org/1999/xlink" x="0px" y="0px"
	 viewBox="0 0 450.3 160.2" style="enable-background:new 0 0 450.3 160.2;" xml:space="preserve">
<style type="text/css">
	.st0{fill:none;}
	.st1{fill:#FFDBE9;}
	.st2{fill:#8C1043;}
	.st3{fill:#FF5C9C;}
	.st4{fill:#BC155B;}
</style>
<title>logo_horizontal</title>
<g>
	<rect x="-0.4" y="-0.4" class="st0" width="451.1" height="161.1"/>
	<g>
		<path class="st1" d="M127.1,90.4c-1.4,20.7-18.4,29.3-41.5,30.3c-21.3,0.9-42.5-16.4-42.5-37.7s19.7-43,41.1-43
			C109.6,40,128.8,65.8,127.1,90.4L127.1,90.4z"/>
		<path class="st1" d="M109.9,41.4c22,15.7,31.9,54,9.9,73.6c-12.6,11.1-31.2,14.2-47,9.1c19.2,6.1,41.5-0.7,51.5-18.6
			C136.8,85.2,128,55.5,109.9,41.4L109.9,41.4z"/>
		<path class="st1" d="M48.6,107.4c-10.9-13.2-14.2-31.2-5.9-46.6c2.2-4.3,5-8.2,8.4-11.6c3.5-3.3,7.3-6.2,11.5-8.6
			c10.3-5.8,22.8-8.5,34.2-5.4c-18.6-3.6-37.2,6.6-48.4,21C35.8,71.9,36.8,91.6,48.6,107.4z"/>
	</g>
	<path class="st2" d="M63.5,80.8c0,0,1.5-1.3,5.9,4.3c4.4,5.6,8.3,2.8,8.3,2.8l-5.5,5.9l-5.1-4.1L63.5,80.8L63.5,80.8z"/>
	<path class="st2" d="M61.2,79.7c0,0,1.5-0.9,4.8,3.2c3.4,4.1,4,6.5,7,5.9c2.9-0.6-0.7,3-0.7,3L65.7,87l-4.3-5.4L61.2,79.7
		L61.2,79.7z"/>
	<path id="baby_20_" class="st3" d="M65,82.2c-4-1.3-7.1-4.6-8.1-8.7c-1.6-5.9,1.8-9.9,4.3-11.9c2-1.7,6.6-3.2,9.2-2.7
		c2.9,0.5,5.1,2.7,5.8,5.6c0.9,3.1,0.9,3.2,1.8,3.6c1.5,0.6,2.4,5,0.7,8.3c-1.7,3,0,3.3,1.8,3.1c4.8-0.5,7.5-11.9,11.9-9.3
		c3.6,2.1-0.2,8-2.4,11.5c-3.1,4.9,2.9,3.5,4.7,1.1c2.5-3.4,5.8-6.8,9.7-5.6c3.3,1.1,4.7,8,4.9,9.5c0.3,2.8,3.6,1.6,4.2,5
		c0.6,3.1-1.5,5.6-8.8,3.1c-2.1-0.7-1.8-3.2-2.4-5.1s-3.8,8.6-8.9,10c-6.6,1.8-13-1.9-18.7-4.2c-3.8-1.5-6.9-6.3-7.3-9.5
		C67.1,83.4,67.4,82.9,65,82.2z"/>
	<path class="st4" d="M109.4,99.7c-1.3,1.2-3.2,1.5-4.9,0.9c-1.6-0.8-3.3-1-5-0.7c-4.1,0.9-8.3,1.5-12.5,1.8
		c-4.1,0.1-10.9-2.8-14.6-4.1c-3.7-1.2-5-4.2-6.9-6.1c-1.3-1.4-2.4-3-3.3-4.7c-1.4-2.3-2.5-4.8-3.3-7.4c-0.1-1.1,1.9-0.6,2.6,0.4
		c1.3,1.6,3,5.1,4.3,6.2c1,0.9,2,1.9,2.9,2.9c1.1,1.1,3.8,2.3,6.1,3.2c1.3,0.4,2.6,0.7,3.9,0.9c1.3,1.4,5,4.7,8.1,4.7
		c2.1,0.1,4.3-0.3,6.2-1.2c-2.2,0.6-4.5,0.8-6.8,0.6c-1.4-0.2-3.2-0.8-6.6-4c2.3,0.2,4.6,0,5.9-0.9c2.3-1.5,15-2.7,16.6-1.7
		c1.7,0.9,2.9,1.6,3.5,1.9c1.3,0.7,1.8-0.4,3.5,1.8C110.3,95.8,110.4,98,109.4,99.7z"/>
	<path class="st4" d="M95.5,90.3c-2.3-0.9-7.7-0.2-8.6,0c-0.8,0.2-3.6,0.2-4.5-0.8C80.8,88,79,86.8,77,86c-1.7-0.7-4,1.4-2.2,2.7
		c1.5,1,2.9,2.3,4.1,3.6c1.5,1.5,2.6,3.5,7.9,3.5c3.1,0,4.4,0.2,6-0.1C96.8,95,98.1,91.2,95.5,90.3L95.5,90.3z"/>
	<g>
		<path class="st4" d="M150.9,95.4c-0.5,0-1.1-0.1-1.6-0.2c-0.7-0.1-1.4-0.3-2-0.7c-0.6-0.3-0.9-0.9-0.9-1.6c0-0.4,0.1-0.7,0.3-1
			c0.1-0.1,0.2-0.2,0.4-0.3c0.1,0,0.2,0.1,0.1,0.3c-0.1,0.5,0.1,1.1,0.6,1.4c0.4,0.4,0.9,0.7,1.4,0.9c0.6,0.2,1.2,0.2,1.8,0.2
			c1.4,0,2.8-0.4,4-1.3c1.2-0.8,2.3-1.8,3.2-2.9c-1.3-0.8-2.4-1.7-3.3-2.8c-0.9-1-1.4-2.3-1.4-3.7c0-0.5,0.1-1,0.2-1.4
			c0.3-1.2,1.1-2.1,2.2-2.7c0.3-0.2,0.7-0.3,1.1-0.4c0.4-0.1,0.8-0.1,1.2-0.1c1-0.1,2,0.2,2.8,0.9l0,0c0,0.1-0.1,0.2-0.2,0.2
			s-0.2,0.1-0.3,0c-0.3-0.4-0.8-0.6-1.3-0.5c-0.8,0-1.5,0.3-2.2,0.8c-0.6,0.5-1.1,1.1-1.3,1.9c-0.2,0.6-0.3,1.3-0.3,1.9
			c0,1.1,0.3,2.1,1,3s1.5,1.6,2.4,2.2c0.3-0.3,0.5-0.7,0.7-1s0.4-0.7,0.7-1c1.1-1.7,2.1-3.5,3-5.3c1-2,2-4,3-6.1s2.1-4.1,3.3-6.1
			c1.1-1.9,2.4-3.7,3.8-5.3c1.3-1.5,2.8-2.7,4.5-3.6c0.9-0.5,2-0.8,3.1-0.9c0.5,0,1,0.1,1.5,0.2c0.1,0,0.2,0.1,0.1,0.2
			c0,0.1-0.2,0.2-0.3,0.2l0,0c-0.1-0.1-0.3-0.1-0.4-0.1h-0.6c-1.7,0-3.6,1.1-5.5,3.4c-1.5,1.7-2.7,3.6-3.8,5.6s-2.1,4-3,6
			c-0.9,2.1-1.8,4.1-2.8,6.1s-2.1,4-3.4,5.8c-0.3,0.5-0.7,1-1.1,1.5c-0.4,0.5-0.8,0.9-1.2,1.4c0.5,0.2,1,0.4,1.5,0.5s1,0.2,1.4,0.3
			c1.5,0.3,3.1,0.5,4.6,0.5c2.1,0,4.3-0.2,6.4-0.7c1.9-0.4,3.7-1.1,5.5-2c2.2-1.2,4.1-2.8,5.7-4.7c1.7-2,3-4.3,4-6.7
			c1-2.3,1.5-4.8,1.5-7.3c0-2.4-0.6-4.7-1.7-6.8c-1.3-2.3-3.3-4.1-5.7-5.2c-1.7-0.9-3.6-1.5-5.5-1.8c-2-0.4-4-0.6-6-0.6
			c-2.8,0-5.6,0.5-8.3,1.4c-2.4,0.8-4.6,2.1-6.5,3.8c-1,1-1.8,2.1-2.3,3.4c-0.6,1.3-1,2.7-1,4.2c0,0.3,0,0.6,0,0.9s0.1,0.6,0.2,0.9
			c0.3,0.9,0.9,1.7,1.7,2.1c0.9,0.5,1.9,0.7,2.9,0.7c0.9,0,1.8-0.2,2.6-0.5h0.1h0.1c0,0,0.1,0,0.1,0.1l0,0c0,0.2-0.1,0.3-0.3,0.3
			c-0.5,0.1-1,0.3-1.5,0.4s-1,0.1-1.5,0.2c-1.1,0-2.1-0.2-3.1-0.6s-1.8-1-2.4-1.8c-0.7-0.9-1-2.1-0.9-3.2c0-1,0.1-2,0.4-2.9
			c0.3-0.9,0.7-1.8,1.3-2.6c1.2-1.7,2.8-3.1,4.7-4.1c2.1-1.1,4.4-1.9,6.8-2.4c4.4-1,9-1.1,13.4-0.2c2,0.4,4,0.9,5.8,1.7
			c3,1.1,5.5,3.2,7.3,5.8c1.5,2.3,2.2,5,2.2,7.8c0,2.6-0.6,5.2-1.7,7.6c-1.1,2.6-2.7,4.9-4.7,6.9c-2,2.1-4.4,3.7-7,4.9
			c-1.7,0.8-3.5,1.3-5.4,1.7c-1.9,0.4-3.9,0.6-5.9,0.6c-1.1,0-2.3-0.1-3.4-0.2c-1.1-0.1-2.2-0.3-3.3-0.5c-0.4-0.1-0.9-0.2-1.4-0.4
			c-0.5-0.2-1-0.3-1.5-0.6c-0.6,0.5-1.2,1.1-1.9,1.6c-0.6,0.5-1.3,1-2,1.3c-0.8,0.4-1.6,0.7-2.4,0.9
			C152.6,95.3,151.7,95.4,150.9,95.4z"/>
		<path class="st4" d="M199.8,91.2c-1.9,0-3.3-0.5-4.1-1.5c-0.4-0.4-0.7-1-0.9-1.6s-0.3-1.2-0.2-1.9c0-0.8,0.1-1.6,0.3-2.4
			s0.4-1.5,0.8-2.3c0.5-1.2,1.1-2.3,1.9-3.3c0.8-1.1,1.7-2.1,2.8-2.8c1-0.8,2.3-1.2,3.6-1.2c0.7,0,1.5,0.2,2.1,0.7
			c0.5,0.5,0.8,1.3,0.8,2c0,1.1-0.4,2.2-0.9,3.2c-0.6,1-1.4,1.9-2.4,2.6c-0.9,0.6-1.9,1-3,1c-0.9,0-1.8-0.4-2.5-1
			c-0.2,0.6-0.4,1.2-0.5,1.8c-0.1,0.7-0.2,1.3-0.2,2c0,0.9,0.2,1.9,0.6,2.7c0.4,0.8,1.3,1.3,2.3,1.2c0.8,0,1.6-0.2,2.3-0.6
			s1.4-0.9,2-1.5c0.7-0.7,1.3-1.5,1.9-2.3c0.7-0.9,1.2-1.8,1.8-2.8c0.1-0.1,0.1-0.2,0.1-0.2c0.1,0,0.2,0.2,0.2,0.4
			c0,0.2-0.1,0.5-0.2,0.7c-0.5,0.9-1.1,1.9-1.8,2.7c-0.6,0.9-1.3,1.7-2,2.4c-0.6,0.6-1.3,1.1-2.1,1.5
			C201.5,91,200.7,91.2,199.8,91.2z M198,82c0.2,0.3,0.5,0.6,0.8,0.7c0.3,0.2,0.7,0.2,1,0.2c0.9,0,1.8-0.4,2.5-0.9
			c0.8-0.6,1.6-1.3,2.1-2.2c0.3-0.5,0.5-0.9,0.6-1.5c0.2-0.6,0.3-1.1,0.3-1.7c0-0.4-0.1-0.8-0.3-1.2c-0.2-0.4-0.6-0.6-1.1-0.5
			c-0.8,0.1-1.6,0.5-2.1,1.1c-0.9,0.8-1.7,1.8-2.3,2.9c-0.2,0.4-0.5,0.9-0.8,1.4C198.5,80.8,198.2,81.4,198,82z M203.5,71.7
			L203.5,71.7c-0.3,0-0.4-0.1-0.4-0.4c0-0.1,0.1-0.2,0.2-0.3c0.8-0.5,1.5-1.1,2.3-1.7c0.9-0.7,1.6-1.4,2.4-1.9
			c0.1-0.1,0.2-0.1,0.3-0.1c0.2,0,0.5,0.1,0.6,0.3c0.2,0.2,0.3,0.4,0.3,0.7c0,0.2-0.1,0.4-0.2,0.4L203.5,71.7z"/>
		<path class="st4" d="M209.7,91.5c-0.9,0.1-1.7-0.3-2.3-1c-0.5-0.7-0.7-1.5-0.7-2.3c0-0.7,0.1-1.4,0.3-2c0.3-1,0.6-2,1.1-3
			c0.5-1.3,1.1-2.7,1.7-4.2s1.2-2.9,1.9-4.3c0.3-0.6,0.6-1.3,0.9-2s0.7-1.5,1.1-2.2s0.6-1.3,0.9-1.8c0.6-1.2,1.3-2.6,2.2-4.2
			c0.9-1.7,1.8-3.3,2.9-4.8c1-1.5,2.2-2.9,3.6-4.1c1.2-1.1,2.8-1.8,4.4-2.1c0.2,0,0.3,0,0.5,0c0.7-0.1,1.3,0.2,1.7,0.7
			s0.6,1.1,0.6,1.7c0,0.6-0.1,1.1-0.4,1.7c-0.7,1.4-1.5,2.7-2.5,3.8c-1.2,1.4-2.4,2.7-3.7,3.9c-1.3,1.3-2.5,2.4-3.5,3.4
			c-0.8,0.8-1.6,1.6-2.3,2.2s-1.3,1.2-1.9,1.8c-0.6,0.6-1.2,1.3-1.9,2l-1.1,2.5c-0.4,0.9-0.5,1.3-0.6,1.5c0.9-1.2,1.9-2.4,3.1-3.3
			c0.8-0.8,1.9-1.3,3.1-1.4c0.9-0.1,1.7,0.2,2.3,0.8c0.4,0.6,0.7,1.4,0.6,2.2c0,0.9-0.1,1.7-0.4,2.6c-0.3,0.9-0.6,1.7-0.9,2.6
			c-0.3,0.7-0.6,1.4-1,2.1c-0.3,0.5-0.7,1.1-1.1,1.7c-0.4,0.6-0.9,1.2-1.4,1.7c0.1,0.4,0.3,0.8,0.6,1s0.7,0.3,1.1,0.3
			c0.5,0,1-0.1,1.5-0.3c0.5-0.2,0.9-0.5,1.3-0.8c0.8-0.7,1.5-1.4,2.1-2.3s1.2-1.8,1.8-2.7c0-0.1,0.1-0.1,0.1-0.1s0.1,0.2,0.1,0.4
			v0.4c0,0.1,0,0.2-0.1,0.3c-0.5,0.9-1.1,1.8-1.8,2.7c-0.6,0.8-1.4,1.5-2.2,2.1s-1.9,1-2.9,1c-0.5,0-0.9-0.1-1.3-0.3
			c-0.4-0.2-0.7-0.6-0.9-1c-0.9,0.9-1.9,1.6-3.1,2.3C212.2,91.2,211,91.5,209.7,91.5z M211.9,89.8c0.8-0.6,1.5-1.3,2.1-2.1
			c0.6-0.8,1.2-1.7,1.8-2.6c0.5-0.9,0.9-1.6,1.2-2.1s0.5-0.9,0.8-1.7c0.4-0.8,0.7-1.7,1-2.5s0.4-1.6,0.4-2.4c0-0.4-0.1-0.8-0.3-1.1
			c-0.2-0.3-0.6-0.5-1-0.4c-0.6,0.1-1.1,0.3-1.5,0.7c-0.6,0.6-1.2,1.2-1.7,1.8c-0.7,0.9-1.5,1.9-2.3,3.1s-1.6,2.5-2.3,3.8
			c-0.6,1.1-1.1,2.3-1.5,3.6c-0.1,0.3-0.1,0.7-0.1,1.1s0.1,0.9,0.4,1.2c0.3,0.2,0.6,0.4,1,0.3C210.6,90.5,211.3,90.2,211.9,89.8z
			 M215,73c0.8-0.9,1.5-1.7,2.2-2.3l2.5-2.5c0.9-0.9,2-2,3.2-3.3c1.2-1.3,2.4-2.6,3.5-3.9c0.9-1.1,1.7-2.2,2.4-3.5
			c0.4-0.6,0.6-1.3,0.6-2c0-1-0.6-1.4-1.7-1.2c-1.2,0.2-2.3,0.8-3.2,1.7c-1.1,1.1-2.1,2.3-2.9,3.6c-0.9,1.5-1.8,3.1-2.5,4.7
			c-0.8,1.6-1.5,3.2-2.2,4.8C216.1,70.5,215.6,71.9,215,73z"/>
		<path class="st4" d="M229.1,91.8c-2.5,0.1-4.6-1.8-4.7-4.3c0-0.2,0-0.4,0-0.7c0-1.1,0.2-2.3,0.6-3.3c0.3-1.1,0.8-2.1,1.3-3.1
			c0.8-1.6,2-3.1,3.3-4.3c1.3-1.2,3-1.9,4.8-1.9s3,0.5,3.7,1.5s1.1,2.3,1.1,3.6c0,0.6-0.1,1.2-0.1,1.8c-0.3,1.7-0.8,3.3-1.7,4.8
			c0.2,0.3,0.6,0.6,0.9,0.8c0.4,0.2,0.8,0.3,1.3,0.3c0.7,0,1.5-0.2,2.1-0.7c0.6-0.4,1.1-1,1.5-1.6c0.4-0.7,0.8-1.3,1.1-1.8
			c0.2-0.4,0.4-0.6,0.6-0.6s0.1,0.1,0.1,0.2c-0.1,0.3-0.2,0.6-0.3,0.9c-0.5,1.1-1.2,2.1-2,3c-0.8,0.8-1.9,1.3-3,1.2
			c-1,0.1-2-0.4-2.6-1.2c-0.9,1.5-2.1,2.8-3.4,3.9C232.2,91.3,230.7,91.8,229.1,91.8z M229.2,91.2c1.9-0.1,3.6-1,4.8-2.4
			c0.5-0.5,0.9-1,1.3-1.5c0.4-0.5,0.7-1,1-1.6c-0.4-0.5-0.7-1-0.9-1.6c-0.2-0.5-0.3-1.1-0.3-1.7c0-0.8,0.1-1.5,0.4-2.2
			c0.2-0.6,0.7-1,1.3-1c0.3,0,0.6,0.2,0.8,0.4c0.3,0.4,0.5,0.8,0.5,1.3c0.1-0.5,0.2-1,0.2-1.5c0-1-0.2-2.1-0.7-3
			c-0.5-0.8-1.4-1.2-2.3-1.1c-0.8,0-1.5,0.3-2.1,0.8c-0.7,0.5-1.4,1.2-2,1.9c-0.6,0.7-1.1,1.5-1.6,2.3s-0.8,1.4-1.1,1.9
			c-0.5,1.1-0.9,2.2-1.2,3.3c-0.2,0.8-0.4,1.7-0.4,2.6c-0.1,0.9,0.2,1.7,0.7,2.5C227.9,90.9,228.5,91.2,229.2,91.2L229.2,91.2z"/>
		<path class="st4" d="M253.8,89.9c-0.5,0.4-1.1,0.8-1.7,1c-0.5,0.2-1,0.3-1.5,0.3c-0.8,0-1.5-0.3-2.1-0.9s-0.9-1.5-0.8-2.3
			c0-0.7,0.2-1.4,0.4-2.1c0.5-1.3,1.1-2.4,2-3.5s1.7-2.2,2.5-3.4c0.5-0.6,0.7-1.3,0.8-2c0-0.3-0.1-0.6-0.3-0.9
			c-0.3-0.3-0.6-0.4-1-0.4c-0.3-0.1-0.6-0.1-0.9-0.1h-3c-0.1,0-0.3,0-0.4,0c-0.2,1-0.5,1.9-0.8,2.8c-0.4,1-0.9,2.1-1.4,3.1
			s-1,2-1.6,2.8c-0.1,0.2-0.3,0.3-0.4,0.3c-0.1,0-0.1-0.1-0.1-0.3c0-0.2,0-0.4,0.1-0.6c0.7-1.4,1.4-2.7,2-4s1.1-2.7,1.3-4.2
			c-0.8-0.5-1.4-1.3-1.6-2.3c0-0.2-0.1-0.3-0.1-0.5c0-0.1,0-0.3,0-0.4c0-0.5,0.1-1.1,0.4-1.5c0.2-0.4,0.5-0.6,0.9-0.6
			c0.5,0,0.9,0.4,1.2,1.4c0.1,0.3,0.1,0.5,0.1,0.8s0,0.5,0.1,0.8c0,0.3,0,0.6,0,0.8c0,0.2,0,0.4-0.1,0.6c0.3,0.1,0.6,0.1,0.9,0.2
			c0.4,0,0.9,0,1.3,0c0.7,0,1.4,0,2.2-0.1s1.4-0.1,2-0.1c0.5-0.1,1,0.1,1.3,0.4c0.2,0.3,0.4,0.6,0.4,1c0,0.6-0.1,1.1-0.4,1.6
			c-0.2,0.5-0.5,1-0.7,1.5c-0.4,0.8-0.8,1.5-1.2,2.1s-0.8,1.3-1.3,2c-0.6,0.9-1.1,1.9-1.5,2.9c-0.3,0.7-0.4,1.5-0.5,2.2
			c0,1,0.4,1.6,1.2,1.6c0.9-0.2,1.8-0.6,2.5-1.4c0.7-0.6,1.3-1.3,1.8-2c0.5-0.8,1-1.6,1.4-2.4l1.1-2c0.1-0.1,0.1-0.2,0.2-0.2
			s0.2,0.1,0.2,0.4c0,0.2-0.1,0.4-0.2,0.6c-0.6,1-1.2,2.2-2,3.4C255.7,87.9,254.8,89,253.8,89.9z"/>
		<path class="st4" d="M268.6,91.2c-0.9,0.1-1.7-0.3-2.2-1c-0.4-0.7-0.6-1.5-0.6-2.3c0-0.2,0-0.5,0.1-0.9s0.1-0.8,0.2-1.2
			c-0.5,0.6-1,1.3-1.7,2.1c-0.6,0.7-1.3,1.4-2,2c-0.8,0.7-1.8,1.2-2.9,1.2c-0.8,0-1.5-0.3-1.9-1c-0.5-0.8-0.7-1.7-0.7-2.7
			c0-1.4,0.3-2.9,0.9-4.2c1.2-2.9,3.2-5.4,5.7-7.2c0.8-0.6,1.7-1,2.6-1.3c1-0.3,2-0.5,3.1-0.5s2.1,0.2,3.1,0.5
			c0.8,0.3,1.4,0.8,1.8,1.5c-0.8,1.1-1.5,2.2-2.2,3.3c-0.7,1.3-1.4,2.5-1.9,3.6c-0.4,0.7-0.8,1.7-1.2,2.7c-0.4,0.9-0.6,1.8-0.6,2.8
			c0,0.3,0.1,0.7,0.2,1c0.2,0.3,0.6,0.5,1,0.5c0.6,0,1.1-0.2,1.6-0.6s0.9-0.8,1.3-1.2c0.8-0.9,1.5-1.8,2.1-2.8s1.3-2.1,1.9-3.2
			c0.1-0.1,0.2-0.2,0.3-0.2c0.1,0,0.2,0.1,0.2,0.3c0,0.1,0,0.3-0.1,0.4c-0.6,1.1-1.2,2.2-1.9,3.3c-0.7,1.1-1.6,2.2-2.5,3.1
			c-0.5,0.5-1,0.9-1.7,1.2C269.9,91,269.3,91.2,268.6,91.2z M260.6,89.6c0.8-0.1,1.5-0.4,2.1-1c0.8-0.8,1.6-1.6,2.2-2.5
			c0.7-1,1.4-1.9,2-2.9s1-1.6,1.4-2.1c0.6-1,1.3-1.9,2-2.8c0.7-0.8,1.7-1.4,2.8-1.7h0.2c0.1,0,0.1,0,0.2,0c-0.4-0.5-0.9-0.8-1.5-1
			c-0.7-0.2-1.4-0.4-2.1-0.4c-1.1,0-2.1,0.3-3,0.9c-1,0.5-2,1.2-2.9,2c-0.8,1-1.6,2-2.3,3c-0.7,1-1.3,2.1-1.7,3.2
			c-0.4,1-0.7,2.1-0.7,3.2c0,0.5,0.1,1,0.3,1.4C259.8,89.4,260.1,89.6,260.6,89.6L260.6,89.6z"/>
		<path class="st4" d="M302.3,93.8c-1.7,0.4-3.4,0.6-5.2,0.6c-2.2,0.1-4.5-0.3-6.5-1.2c-1.6-0.7-3-1.9-4-3.4
			c-0.9-1.4-1.5-2.9-1.8-4.5c-0.1-0.8-0.1-1.5-0.1-2.3c0-2,0.3-4,0.9-5.9c0.7-2.4,1.7-4.6,2.9-6.8c1.3-2.2,2.8-4.3,4.5-6.1
			c1.7-1.9,3.7-3.5,5.8-4.9c2-1.4,4.2-2.4,6.6-3.2c1-0.4,2.1-0.6,3.2-0.8c1-0.1,2-0.2,3-0.2c0.6,0,1.2,0,1.8,0.1
			c0.5,0,1.1,0.2,1.6,0.3c1.2,0.3,2.2,0.9,3.1,1.7c0.8,0.8,1.2,1.9,1.1,3c0,0.4-0.1,0.7-0.1,1.1c1,1,1.7,2.2,2.1,3.5
			c0.4,1.4,0.6,2.9,0.6,4.3c0,1.1-0.1,2.2-0.3,3.2c-0.2,1.1-0.4,2.2-0.8,3.3c-0.8,2.6-2,5-3.5,7.2c-1.5,2.3-3.4,4.4-5.5,6.1
			c-2.1,1.8-4.5,3.1-7,4.1C304.6,93.1,303,93.6,302.3,93.8z M303.6,92.3c2.5-1.2,4.7-2.7,6.7-4.6c1.9-1.9,3.6-4.1,5-6.5
			c1.3-2.2,2.4-4.6,3.1-7.1c0.3-0.9,0.5-1.8,0.6-2.8c0.1-0.9,0.2-1.9,0.2-2.8c0-1-0.1-2-0.3-3c-0.2-0.9-0.5-1.8-0.9-2.6
			c-0.3,0.3-0.6,0.6-1,0.7c-0.2,0.1-0.3,0.1-0.5,0.2c-0.1,0-0.2,0-0.2-0.2c0-0.1,0.1-0.2,0.2-0.3c0.4-0.4,0.7-0.9,0.9-1.5
			c-0.7-0.8-1.5-1.5-2.4-2c-1.2-0.6-2.4-0.8-3.7-0.8c-1.6,0-3.2,0.4-4.7,1c-1.8,0.7-3.4,1.7-4.9,2.9c-1,0.8-1.9,1.8-2.6,2.9
			s-1.3,2.2-1.7,3.5c-0.4,1-0.6,2-0.6,3.1c-0.1,0.7,0.2,1.5,0.8,1.9c0.3,0.1,0.5,0.3,0.5,0.4s-0.1,0.2-0.2,0.2c-0.2,0-0.3,0-0.5-0.1
			c-0.6-0.2-1.1-0.7-1.3-1.2c-0.3-0.7-0.4-1.4-0.4-2.1c0.1-1.6,0.4-3.2,1.1-4.6c0.7-1.6,1.8-3.1,3.1-4.3c1.6-1.4,3.5-2.6,5.5-3.3
			c1.9-0.7,3.9-1.1,5.9-1.1c1.2,0,2.4,0.2,3.6,0.5c1,0.3,1.9,0.7,2.8,1.3c0-0.9-0.4-1.7-1.1-2.3s-1.5-1.1-2.4-1.3
			c-0.9-0.3-1.9-0.4-2.9-0.4c-0.9,0-1.7,0.1-2.6,0.2c-1,0.2-1.9,0.4-2.8,0.7c-1.4,0.5-2.8,1.1-4,2c-1.4,1-2.8,2.2-4,3.4
			c-1.3,1.3-2.5,2.7-3.7,4.2c-1.1,1.4-2.1,2.9-2.9,4.5c-1,1.8-1.7,3.8-2.3,5.8c-0.6,2.1-1,4.3-1,6.5c0,0.5,0,1,0,1.5s0.1,1,0.2,1.5
			c0.2,1.3,0.7,2.5,1.4,3.5c0.7,1.1,1.7,2,2.9,2.6c1.4,0.7,3,1.1,4.6,1h0.2c0.7,0,1.4-0.1,2.1-0.2s1.4-0.3,2.1-0.5
			C302.3,92.8,302.9,92.6,303.6,92.3z"/>
		<path class="st4" d="M325,91.1c-0.8,0.1-1.7-0.3-2.2-0.9s-0.7-1.4-0.7-2.2c0-1.2,0.3-2.5,0.7-3.6c0.4-1.3,1-2.5,1.6-3.7
			s1.1-2.1,1.5-2.8c0.5-1,1.2-1.8,2.2-2.3c0.9-0.3,1.8-0.5,2.8-0.5c-0.5,0.3-1,0.7-1.3,1.2c-0.6,0.8-1.2,1.6-1.7,2.5
			c-0.6,1.1-1.2,2.1-1.7,3.2s-0.9,2.2-1.3,3.4c-0.3,0.9-0.5,1.8-0.5,2.8c0,0.5,0.1,1,0.3,1.4c0.2,0.4,0.6,0.6,1,0.6
			c0.5,0,1-0.2,1.4-0.5c0.5-0.3,1-0.7,1.5-1.2c1.5-1.6,2.7-3.4,3.6-5.4s2-3.9,3.1-5.8c0.5-1,1.3-1.8,2.2-2.3
			c0.9-0.3,1.8-0.5,2.8-0.4c-0.5,0.3-1,0.7-1.3,1.2c-0.7,0.9-1.3,1.8-1.8,2.7c-0.6,1.1-1.2,2.3-1.7,3.4c-0.5,1.2-1,2.3-1.3,3.5
			c-0.3,0.9-0.5,1.9-0.5,2.9c0,0.5,0.1,0.9,0.3,1.3c0.2,0.4,0.6,0.6,1,0.5c0.5,0,1-0.2,1.4-0.5c0.5-0.3,1-0.7,1.5-1.2
			c0.8-0.9,1.5-1.8,2.1-2.8s1.3-2.1,1.9-3.2c0.1-0.1,0.2-0.2,0.2-0.2s0.2,0.1,0.2,0.3c0,0.1,0,0.3-0.1,0.4c-0.6,1.1-1.2,2.2-1.9,3.3
			c-0.7,1.1-1.5,2.2-2.5,3.1c-0.5,0.5-1.2,1-1.9,1.3c-0.7,0.4-1.4,0.5-2.1,0.3c-0.8-0.1-1.5-0.5-2-1.1c-0.4-0.6-0.6-1.4-0.6-2.1
			s0.1-1.4,0.3-2.1c-0.4,0.6-0.8,1.3-1.3,1.9s-1,1.2-1.5,1.8c-0.5,0.5-1.1,0.9-1.7,1.2C326.4,90.9,325.7,91.1,325,91.1z"/>
		<path class="st4" d="M346.4,91.2c-1.9,0-3.3-0.5-4.1-1.5c-0.4-0.4-0.7-1-0.9-1.6c-0.2-0.6-0.2-1.2-0.2-1.9c0-0.8,0.1-1.6,0.3-2.4
			c0.2-0.8,0.4-1.5,0.8-2.3c0.5-1.2,1.1-2.3,1.8-3.3c0.8-1.1,1.7-2.1,2.8-2.8c1.1-0.8,2.3-1.2,3.6-1.2c0.7,0,1.5,0.2,2.1,0.7
			c0.5,0.5,0.8,1.3,0.8,2c0,1.1-0.4,2.2-1,3.2S351,82,350,82.7c-0.9,0.6-1.9,1-3,1c-0.9,0-1.8-0.4-2.5-1c-0.2,0.6-0.4,1.2-0.5,1.8
			c-0.1,0.7-0.2,1.3-0.2,2c0,1,0.2,1.9,0.6,2.8c0.5,0.8,1.4,1.3,2.3,1.2c0.8,0,1.6-0.2,2.3-0.6c0.8-0.4,1.5-0.9,2.1-1.5
			c0.7-0.7,1.3-1.5,1.9-2.3c0.7-0.9,1.2-1.8,1.8-2.8c0.1-0.1,0.1-0.2,0.1-0.2c0.1,0,0.2,0.2,0.2,0.4c0,0.2-0.1,0.5-0.2,0.7
			c-0.6,1-1.2,1.9-1.8,2.8c-0.6,0.9-1.3,1.6-2,2.4c-0.6,0.6-1.3,1.1-2.1,1.5C348.2,91,347.3,91.2,346.4,91.2z M344.7,81.9
			c0.2,0.3,0.5,0.6,0.8,0.7c0.3,0.2,0.7,0.2,1,0.2c0.9,0,1.8-0.3,2.5-0.9c0.8-0.6,1.6-1.3,2.1-2.2c0.3-0.5,0.5-0.9,0.6-1.5
			c0.2-0.6,0.3-1.1,0.3-1.7c0-0.4-0.1-0.9-0.3-1.2c-0.2-0.4-0.6-0.6-1.1-0.5c-0.8,0.1-1.6,0.5-2.1,1.1c-0.9,0.8-1.7,1.8-2.3,2.9
			c-0.2,0.4-0.5,0.9-0.8,1.4C345.1,80.8,344.9,81.4,344.7,81.9L344.7,81.9z"/>
		<path class="st4" d="M356.1,91.1c-0.8,0.1-1.6-0.3-2.1-0.9c-0.4-0.7-0.7-1.5-0.6-2.3c0-0.3,0-0.6,0.1-0.8c0-0.3,0.1-0.6,0.2-0.9
			c0.4-1.5,1-3,1.7-4.5c0.8-1.7,1.5-3.2,2.3-4.4c0.3-0.6,0.7-1.1,1.2-1.6c0.4-0.3,0.8-0.5,1.2-0.7l1.5-0.5c0.2-0.1,0.3-0.1,0.5-0.2
			l0.5-0.1c-0.7,0.8-1.4,1.6-2,2.4c-0.8,1.2-1.6,2.5-2.2,3.9c-0.4,0.9-0.9,1.8-1.3,2.9s-0.8,2.1-1.1,3c-0.3,0.7-0.4,1.5-0.5,2.2
			c-0.1,0.5,0,0.9,0.2,1.4c0.2,0.3,0.5,0.4,0.8,0.4c0.6,0,1.2-0.2,1.6-0.6c0.5-0.4,1-0.8,1.4-1.2c0.8-0.9,1.5-1.8,2.1-2.8
			s1.3-2.1,1.9-3.2c0.1-0.1,0.2-0.2,0.3-0.2s0.2,0.1,0.2,0.3c0,0.1,0,0.3-0.1,0.4c-0.6,1.1-1.2,2.2-1.9,3.3
			c-0.7,1.1-1.5,2.2-2.5,3.1c-0.5,0.5-1,0.8-1.5,1.2C357.5,90.9,356.8,91.1,356.1,91.1z M362.3,71.3c-0.4,0-0.7-0.1-1-0.4
			c-0.2-0.2-0.4-0.6-0.4-0.9c0-0.5,0.2-1,0.6-1.3c0.3-0.4,0.8-0.6,1.3-0.6c0.4,0,0.7,0.1,1,0.4c0.2,0.3,0.4,0.6,0.4,0.9
			c0,0.5-0.2,0.9-0.6,1.3C363.3,71.1,362.8,71.3,362.3,71.3z"/>
		<path class="st4" d="M370,91.3c-0.8,0.1-1.6-0.2-2.2-0.8c-0.4-0.6-0.6-1.3-0.6-2c0-0.4,0-0.8,0.1-1.2c0.1-0.4,0.2-0.8,0.3-1.1
			c0.3-0.9,0.8-1.7,1.3-2.5c0.5-0.7,1-1.4,1.5-2.2s0.9-1.2,1.3-1.8c0.4-0.6,0.8-1.2,1.1-1.9c0.2-0.3,0.3-0.7,0.3-1.1s-0.1-0.8-0.4-1
			c-0.2-0.2-0.6-0.3-0.9-0.3c-0.5,0-0.9,0.1-1.4,0.3c-1,0.4-2,1-2.9,1.6c-0.3,0.3-0.7,0.4-1.1,0.5c-0.2,0.6-0.4,1.2-0.6,1.7
			c-0.3,0.8-0.7,1.7-1.2,2.6s-1,1.8-1.5,2.6c-0.1,0.2-0.2,0.3-0.4,0.3s-0.1-0.1-0.1-0.3c0-0.2,0-0.4,0.1-0.6
			c0.7-1.2,1.3-2.4,1.8-3.5c0.4-0.9,0.8-1.9,1.2-2.9c-0.3,0-0.7-0.1-0.9-0.4c-0.2-0.3-0.2-0.6-0.2-0.9c0-0.4,0.1-0.8,0.2-1.2
			c0.1-0.4,0.3-0.8,0.4-1c0.6,0.3,1.2,0.5,1.8,0.6c0.6,0.1,1.3,0.1,1.9,0.2c0.8,0,1.5,0,2.3-0.1s1.4-0.1,2-0.1
			c0.5-0.1,1.1,0.1,1.4,0.5s0.4,0.8,0.4,1.3c0,0.6-0.1,1.2-0.3,1.7c-0.2,0.5-0.4,1-0.6,1.5c-0.5,0.9-1,1.8-1.5,2.7
			c-0.6,0.9-1.1,1.8-1.6,2.7l-0.7,1.5c-0.3,0.7-0.6,1.4-0.7,2.1c0,0.1,0,0.1,0,0.2s0,0.1,0,0.2c0,0.3,0.1,0.6,0.3,0.8
			c0.2,0.2,0.4,0.3,0.7,0.2c0.6,0,1.1-0.2,1.6-0.5s0.9-0.7,1.3-1.2c0.8-0.9,1.5-1.8,2.1-2.8s1.3-2.1,1.9-3.3
			c0.1-0.1,0.1-0.2,0.2-0.2s0.2,0.1,0.2,0.4c0,0.2-0.1,0.4-0.1,0.6c-0.6,1.1-1.2,2.2-1.9,3.2c-0.7,1.1-1.5,2.1-2.4,3
			c-0.5,0.5-1,0.9-1.6,1.2C371.4,91.1,370.7,91.3,370,91.3z"/>
		<path class="st4" d="M381.3,91.8c-2.5,0.1-4.6-1.9-4.7-4.4c0-0.2,0-0.4,0-0.6c0-1.1,0.2-2.3,0.6-3.3c0.3-1.1,0.8-2.1,1.3-3.1
			c0.9-1.6,2-3.1,3.3-4.3c1.3-1.2,3-1.9,4.8-1.9c1.4-0.2,2.8,0.4,3.7,1.5c0.7,1.1,1.1,2.3,1,3.6c0,0.6-0.1,1.2-0.1,1.8
			c-0.3,1.7-0.8,3.3-1.7,4.8c0.2,0.3,0.6,0.6,0.9,0.8c0.4,0.2,0.8,0.3,1.3,0.3c0.7,0,1.5-0.2,2.1-0.7s1.1-1,1.5-1.6
			c0.4-0.7,0.8-1.3,1.1-1.8c0.2-0.4,0.4-0.6,0.5-0.6s0.2,0.1,0.2,0.2c-0.1,0.3-0.2,0.6-0.3,0.9c-0.5,1.1-1.2,2.1-2,3
			c-0.8,0.8-1.9,1.3-3,1.2c-1,0.1-2-0.4-2.6-1.2c-0.9,1.5-2.1,2.8-3.4,3.9C384.4,91.2,382.9,91.8,381.3,91.8z M381.4,91.2
			c1.9-0.1,3.6-1,4.9-2.4c0.5-0.5,0.9-1,1.3-1.5s0.7-1,1-1.6c-0.4-0.5-0.7-1-0.9-1.6c-0.2-0.5-0.3-1.1-0.3-1.7
			c0-0.8,0.1-1.5,0.5-2.2c0.2-0.6,0.7-1,1.2-1c0.3,0,0.6,0.2,0.8,0.4c0.3,0.4,0.5,0.8,0.5,1.3c0.1-0.5,0.2-1,0.1-1.5
			c0-1-0.2-2.1-0.7-3c-0.5-0.8-1.4-1.2-2.3-1.1c-0.8,0-1.5,0.3-2.1,0.8c-0.7,0.5-1.4,1.2-2,1.9c-0.6,0.7-1.2,1.5-1.6,2.3
			c-0.4,0.6-0.7,1.3-1,1.9c-0.5,1.1-0.9,2.2-1.2,3.3c-0.2,0.8-0.4,1.7-0.4,2.6c-0.1,0.9,0.2,1.7,0.7,2.5
			C380.1,90.9,380.8,91.2,381.4,91.2L381.4,91.2z"/>
		<path class="st4" d="M396,105.1c-0.2,0-0.5,0.1-0.6,0.1h-0.6c-1,0.1-1.9-0.3-2.6-0.9c-0.6-0.6-0.9-1.4-0.9-2.2
			c0-0.8,0.2-1.5,0.6-2.2c0.5-0.8,1.1-1.5,1.9-1.9c1.8-1.1,3.7-2.1,5.6-2.9c2.1-0.9,4.2-1.9,6.2-3l0.3-0.9c0.1-0.3,0.2-0.7,0.3-1
			c0.1-0.4,0.2-0.8,0.2-1.3c0.1-0.7-0.2-1.3-0.6-1.8c-0.5-0.4-1.1-0.6-1.7-0.5c-0.9,0-1.8,0.2-2.6,0.6l-0.9,0.3l-1,0.4
			c-0.4,0.7-0.9,1.3-1.5,1.8c-0.5,0.4-1,0.7-1.6,0.9c-0.1,0-0.3,0-0.5,0c-0.6,0-1-0.3-1-0.9s0.4-1.1,0.9-1.3
			c0.9-0.5,1.8-1.1,2.6-1.7c0.9-0.7,1.8-1.4,2.6-2.1c0.9-0.8,1.9-1.9,3-3.2c0.7-0.8,1.4-1.6,2.2-2.3s1.5-1.5,2.3-2.2
			c-0.4-0.1-0.7-0.1-1.1-0.2l-1.5-0.2l-1.2-0.2c-0.2,0-0.4,0-0.6,0h-0.5c-0.7,0-1.4,0.1-2,0.4c-0.7,0.3-1.3,0.8-1.7,1.5
			c-0.5,0.8-1,1.6-1.5,2.4c-0.6,1-1.2,2.2-2.1,3.7c-0.1,0.2-0.2,0.3-0.3,0.3s-0.2-0.1-0.2-0.4c0-0.2,0.1-0.4,0.2-0.6
			c0.6-1,1.1-2,1.6-3c0.4-0.9,0.9-1.8,1.5-2.9c0.4-0.7,0.9-1.4,1.4-2c0.5-0.5,1.2-0.9,1.9-1.1c0.3-0.1,0.6-0.1,0.8-0.2
			c0.3,0,0.6,0,0.9,0c0.7,0,1.3,0,2,0.1c0.6,0.1,1.2,0.1,1.8,0.1h1.3c0.6,0,1.2,0,1.7-0.1c0.4,0,0.8-0.1,1.2-0.2
			c0.3,0.1,0.4,0.4,0.4,0.7c0,0.5-0.3,1-0.6,1.4c-0.5,0.6-1.3,0.8-2,0.6c-1,0.6-1.9,1.3-2.8,2.1c-1,1-1.9,1.9-2.6,2.6
			c-0.3,0.3-0.7,0.7-1.3,1.3c-0.6,0.5-1.2,1.1-1.8,1.8s-1.2,1.3-1.7,1.9v0.1c0,0,0,0.1,0,0.2c0.7-0.4,1.4-0.8,2.2-1
			c0.6-0.2,1.2-0.3,1.8-0.4c0.5-0.1,1-0.1,1.4-0.1c0.9-0.1,1.8,0.2,2.4,0.9c0.5,0.6,0.7,1.4,0.7,2.2c0,0.5-0.1,1.1-0.2,1.6
			c1.1-1,2.2-2.1,3.1-3.3c0.9-1.1,1.7-2.3,2.4-3.5c0.3-0.5,0.6-0.7,0.8-0.7c0.1,0,0.1,0.1,0.1,0.2c0,0.2-0.1,0.4-0.2,0.6
			c-0.6,1.1-1.3,2.1-2,3.1s-1.4,1.9-2.2,2.8c-0.7,0.7-1.4,1.3-2.2,1.9c-0.1,0.4-0.2,0.8-0.4,1.2s-0.3,0.8-0.5,1.2
			c-0.7,1.9-1.7,3.7-2.8,5.3c-1,1.6-2.2,2.9-3.7,4.1C399.3,104,397.7,104.8,396,105.1z M395.7,104.2c1.6-0.5,3.1-1.4,4.3-2.6
			c1.2-1.3,2.2-2.7,3-4.2c0.8-1.6,1.6-3.1,2.3-4.6c-1,0.7-2.1,1.2-3.2,1.7c-1.4,0.6-2.7,1.2-4.1,1.9c-1.3,0.6-2.5,1.2-3.7,2
			c-0.7,0.4-1.2,1-1.6,1.7c-0.3,0.6-0.5,1.2-0.5,1.9c0,0.6,0.2,1.2,0.6,1.6c0.4,0.5,1.1,0.7,1.7,0.7c0.2,0,0.4,0,0.6,0
			C395.3,104.3,395.5,104.3,395.7,104.2L395.7,104.2z"/>
		<path class="st4" d="M306.7,88.1c-0.8-0.6-1.8-1.1-2.7-1.5c-1.1-0.5-2.2-1-3.4-1.2c-0.5-0.1-1-0.2-1.5-0.2s-1,0-1.4,0.1
			c-0.9,0.1-1.7,0.5-2.3,1.1c-0.1,0.1-0.2,0.2-0.1,0.3c0,0.1,0.1,0.2,0.2,0.1h0.1c0.4-0.3,0.8-0.4,1.3-0.5c1.2-0.1,2.4,0,3.5,0.5
			c1.4,0.6,2.8,1.3,4,2.2l0.9,0.6c1.7,1.3,3.5,2.9,5.3,4.6c1.5,1.4,3.1,2.7,4.7,4c1.5,1.2,3.2,2.2,5,2.9c1.7,0.7,3.5,0.9,5.3,0.6
			c1.1-0.2,2.2-0.6,3.2-1.2c0.9-0.6,1.7-1.4,2.2-2.4c0.5-1.2,0.6-2.4,0.4-3.7c-0.2-1.2-0.7-2.4-1.4-3.4c-0.7-1.2-1.8-2.1-3-2.6
			c-0.1-0.1-0.3-0.1-0.4-0.1s-0.2,0.1-0.2,0.2l0,0c0,0.1,0.1,0.1,0.2,0.2c0.7,0.4,1.3,0.9,1.8,1.6c0.6,0.7,1,1.4,1.4,2.2
			c0.3,0.7,0.6,1.4,0.7,2.2c0.3,1.2,0.1,2.4-0.6,3.4c-0.7,0.8-1.6,1.4-2.7,1.5c-1.5,0.2-3.1,0-4.5-0.6c-1.7-0.7-3.4-1.6-5-2.7
			c-1.7-1.1-3.3-2.3-5-3.6s-3.2-2.4-4.6-3.5L306.7,88.1z"/>
	</g>
	<g>
		<path class="st4" d="M203.7,122c-0.1,0-0.3-0.1-0.3-0.2s0-0.2,0-0.3c0-0.1,0.2-0.2,0.3-0.2c0.5-0.1,0.9-0.2,1.3-0.4
			c0.4-0.2,0.6-0.6,0.6-1.1l0.7-12.4c0-0.2-0.1-0.4-0.3-0.6s-0.4-0.3-0.7-0.4c-0.2-0.1-0.4-0.2-0.7-0.2c-0.2,0-0.3-0.2-0.2-0.4
			c0-0.1,0.1-0.2,0.2-0.2h0.2h11.1c0.2,0,0.3,0,0.4,0.1c0.1,0.2,0.1,0.3,0.1,0.5l-0.1,2.5c0,0,0,0.1,0,0.2s-0.1,0.2-0.1,0.2
			c-0.1,0-0.2,0-0.3,0s-0.1-0.1-0.2-0.1c-0.1-0.6-0.3-1.1-0.5-1.6c-0.2-0.3-0.5-0.6-0.9-0.7c-0.6-0.1-1.1-0.2-1.7-0.2h-5.4
			c0.2,0,0.4,0.2,0.6,0.3c0.1,0.2,0.1,0.3,0.1,0.5l-0.3,5.9h3.4c0.4,0,0.9-0.1,1.3-0.2c0.3-0.2,0.6-0.5,0.8-0.8
			c0.1-0.2,0.2-0.2,0.4-0.2l0,0c0.1,0,0.1,0.1,0.2,0.2c0,0.1,0,0.1,0,0.2l-0.1,2.6c0,0.1,0,0.1,0,0.2s-0.1,0.1-0.2,0.2
			c-0.2,0.1-0.3,0-0.4-0.2c-0.4-0.7-1.2-1.1-2-1.1h-3.4l-0.3,5.5c-0.1,0.4,0.2,0.9,0.6,1.1c0.4,0.2,0.8,0.4,1.3,0.4
			c0.1,0,0.2,0.1,0.3,0.2c0,0.1,0,0.2,0,0.3c-0.1,0.1-0.2,0.2-0.4,0.2L203.7,122z"/>
		<path class="st4" d="M219.2,120.9l0.5-8.7h-0.1c-0.1,0-0.2,0.1-0.3,0.1c-0.5,0.4-1.2,0.3-1.6-0.2l1-0.7c0.4-0.3,0.8-0.5,1.1-0.8
			c0.2-0.1,0.5-0.3,0.7-0.4s0.4-0.1,0.6,0c0.2,0.1,0.2,0.3,0.2,0.4l-0.5,9.5c0,0.2,0,0.4,0.1,0.6s0.2,0.3,0.5,0.3
			c0.2,0,0.4-0.1,0.6-0.2c0.3-0.2,0.5-0.4,0.7-0.6c0.1-0.1,0.2-0.2,0.3-0.1c0.1,0,0.2,0.1,0.1,0.3c-0.1,0.5-0.4,1-0.8,1.4
			c-0.4,0.4-1,0.7-1.6,0.7c-0.4,0-0.8-0.1-1.1-0.5C219.3,121.6,219.2,121.2,219.2,120.9z M218.8,105.9c-0.1-0.2,0-0.3,0.2-0.3
			c0.2-0.1,0.5-0.1,0.8,0c0.3,0,0.6,0.2,0.9,0.3c0.3,0.1,0.5,0.4,0.6,0.7c0.1,0.3,0.1,0.7-0.1,0.9c-0.3,0.5-0.9,0.7-1.4,0.6
			c-0.3,0-0.5-0.2-0.5-0.5c0-0.2,0-0.4-0.1-0.7C219.1,106.5,218.9,106.2,218.8,105.9L218.8,105.9z"/>
		<path class="st4" d="M227,112.8c0,0.4,0.1,0.8,0.4,1.1c0.3,0.3,0.7,0.6,1.1,0.8c0.5,0.2,1,0.5,1.5,0.8s1.1,0.6,1.7,0.9
			c0.6,0.3,1,0.7,1.5,1.2c0.4,0.5,0.6,1.1,0.5,1.8c0,0.6-0.3,1.2-0.7,1.7s-1,0.9-1.6,1.2c-0.7,0.3-1.5,0.4-2.2,0.4
			c-0.9,0-1.7-0.2-2.5-0.6c-0.6-0.3-1.1-0.8-1.5-1.3c-0.3-0.4-0.5-0.9-0.6-1.5c0-0.5,0.3-0.8,1-1c0.5-0.1,0.9,0,1,0.2
			c0.1,0.1,0.1,0.3,0,0.4l-0.2,0.5c0,0.4,0.2,0.7,0.4,1c0.2,0.4,0.6,0.7,0.9,0.9c1.2,0.6,2.6,0.5,3.6-0.2c0.5-0.4,0.8-1,0.8-1.6
			c0-0.4-0.1-0.9-0.4-1.2c-0.4-0.3-0.8-0.6-1.2-0.8l-1.5-0.8l-1.5-0.8c-0.5-0.3-1-0.7-1.3-1.1c-0.7-1-0.7-2.4,0.1-3.4
			c0.4-0.5,1-0.9,1.6-1.1c0.7-0.3,1.5-0.4,2.2-0.3c0.7,0,1.4,0.2,2,0.5c0.5,0.2,0.9,0.6,1.2,1c0.2,0.3,0.4,0.6,0.4,0.9
			c0,0.2,0,0.4-0.1,0.5c-0.1,0.3-0.4,0.5-0.7,0.6c-0.2,0.1-0.4,0.1-0.6,0.1c-0.2,0-0.3-0.1-0.3-0.3c0-0.1,0-0.2,0-0.4
			c0-0.1,0.1-0.2,0.2-0.3c0-0.2-0.1-0.4-0.2-0.6c-0.2-0.3-0.4-0.6-0.7-0.8c-0.4-0.3-0.9-0.4-1.4-0.4c-0.7-0.1-1.4,0.1-2,0.6
			C227.3,111.6,227,112.2,227,112.8z"/>
		<path class="st4" d="M237.1,120.9l0.5-8.7h-0.1c-0.1,0-0.2,0.1-0.3,0.1c-0.5,0.4-1.2,0.3-1.6-0.2l1-0.7l1.1-0.8
			c0.2-0.1,0.5-0.3,0.7-0.4s0.4-0.1,0.6,0c0.2,0.1,0.2,0.3,0.2,0.4l-0.5,9.5c0,0.2,0,0.4,0.1,0.6s0.2,0.3,0.5,0.3
			c0.2,0,0.4-0.1,0.6-0.2c0.3-0.2,0.5-0.4,0.7-0.6c0.1-0.1,0.2-0.2,0.3-0.1c0.1,0,0.2,0.1,0.1,0.3c-0.1,0.5-0.4,1-0.8,1.4
			c-0.4,0.4-1,0.7-1.6,0.7c-0.4,0-0.8-0.1-1.1-0.5C237.2,121.6,237.1,121.2,237.1,120.9z M236.7,105.9c-0.1-0.2,0-0.3,0.2-0.3
			c0.2-0.1,0.5-0.1,0.8,0s0.6,0.2,0.9,0.3c0.3,0.2,0.5,0.4,0.6,0.7c0.1,0.3,0.1,0.7-0.1,0.9c-0.3,0.5-0.9,0.7-1.4,0.6
			c-0.3,0-0.5-0.2-0.5-0.5c0-0.2,0-0.4-0.1-0.7C237,106.5,236.9,106.2,236.7,105.9L236.7,105.9z"/>
		<path class="st4" d="M247.7,122.2c-0.9,0-1.8-0.3-2.6-0.8s-1.4-1.3-1.8-2.2c-0.4-1-0.6-2.1-0.5-3.2s0.4-2.2,1-3.2
			c0.5-0.9,1.2-1.6,2.1-2.1c0.9-0.5,1.9-0.8,2.9-0.8c0.9,0,1.8,0.3,2.6,0.8s1.4,1.3,1.9,2.1c0.5,1,0.6,2.1,0.5,3.2s-0.4,2.2-1,3.2
			c-0.5,0.9-1.3,1.6-2.1,2.2C249.7,122,248.7,122.2,247.7,122.2z M244.5,116.1c0,0.9,0.1,1.8,0.4,2.6c0.2,0.7,0.7,1.4,1.2,1.9
			s1.2,0.7,1.9,0.7s1.4-0.2,2-0.7s1.1-1.1,1.4-1.9c0.4-0.8,0.6-1.7,0.6-2.6c0.1-0.9-0.1-1.7-0.4-2.6c-0.2-0.7-0.7-1.4-1.2-1.9
			s-1.2-0.7-1.9-0.7s-1.4,0.2-2,0.7s-1.1,1.1-1.4,1.9C244.7,114.4,244.5,115.2,244.5,116.1L244.5,116.1z"/>
		<path class="st4" d="M256.9,119.6l0.3-8.1l-0.8,0.1c-0.2,0-0.3,0.1-0.5,0.1s-0.3,0.1-0.4,0.3c-0.1,0.1-0.2,0.1-0.3,0.1
			s-0.2-0.1-0.2-0.3l0.1-1c0-0.2,0.2-0.3,0.3-0.3l0,0h1.8l0.1-2.3c-0.1-0.7,0.4-1.2,1.1-1.3c0.1,0,0.3,0,0.4,0l-0.1,3.6h2.9
			c0.2,0,0.3,0.1,0.3,0.3l-0.1,1c0,0.2-0.1,0.3-0.2,0.3s-0.2,0-0.2-0.1c-0.1-0.1-0.3-0.3-0.4-0.3c-0.2-0.1-0.5-0.1-0.8-0.2h-1.5
			l-0.3,7.7c-0.1,0.5,0.1,0.9,0.3,1.3c0.2,0.3,0.6,0.4,0.9,0.5c0.4,0,0.8-0.1,1.1-0.2c0.4-0.2,0.7-0.4,1-0.7c0.1-0.1,0.3-0.1,0.4,0
			s0.2,0.2,0.1,0.4c-0.2,0.6-0.7,1-1.2,1.3c-0.5,0.4-1.2,0.6-1.8,0.6c-0.3,0-0.7-0.1-1-0.2c-0.4-0.2-0.7-0.5-0.9-0.8
			C257,120.8,256.8,120.2,256.9,119.6z"/>
		<path class="st4" d="M269.2,121.1c0.6,0,1.2,0,1.8-0.2c0.5-0.2,0.9-0.5,1.3-0.8c0.3-0.3,0.6-0.6,0.8-0.9c0.1-0.2,0.2-0.3,0.4-0.3
			c0.2,0,0.3,0,0.5,0.2c-0.1,0.3-0.2,0.5-0.4,0.8c-0.2,0.4-0.5,0.8-0.9,1.1c-0.4,0.4-0.9,0.8-1.5,1c-0.7,0.3-1.4,0.4-2.1,0.4
			c-1,0-2-0.2-2.8-0.7s-1.5-1.2-1.9-2c-0.5-0.9-0.7-1.9-0.6-2.9c0-1,0.2-1.9,0.7-2.8c0.7-1.6,2-2.8,3.7-3.4c0.7-0.3,1.5-0.4,2.2-0.4
			c0.6,0,1.2,0.1,1.7,0.3c0.4,0.2,0.8,0.5,1.1,0.8c0.2,0.3,0.4,0.6,0.5,0.9c0.1,0.2,0.1,0.5,0.1,0.8c0,0.6-0.2,1.3-0.6,1.8
			c-0.4,0.6-1,1-1.6,1.4c-0.7,0.4-1.4,0.7-2.2,0.9c-0.8,0.2-1.7,0.3-2.5,0.3c-0.2,0-0.5-0.1-0.6-0.2s-0.1-0.3-0.1-0.5
			c0.6,0,1.3-0.1,1.9-0.3c0.7-0.2,1.3-0.4,1.9-0.7c0.5-0.3,1-0.6,1.5-1.1c0.3-0.3,0.6-0.8,0.6-1.2c0-0.6-0.2-1.1-0.6-1.5
			s-0.9-0.6-1.5-0.6c-0.8,0-1.6,0.2-2.2,0.7c-0.7,0.5-1.2,1.2-1.6,2s-0.6,1.8-0.7,2.7c0,0.8,0.1,1.6,0.4,2.3
			c0.2,0.7,0.7,1.3,1.2,1.7C267.8,120.8,268.5,121.1,269.2,121.1z"/>
		<path class="st4" d="M275.4,111.9l1-0.7l1.1-0.8c0.2-0.2,0.5-0.3,0.7-0.4s0.4-0.1,0.6,0s0.3,0.3,0.2,0.4l-0.3,5.9
			c0.2-1.1,0.6-2.2,1.1-3.1c0.4-0.8,1-1.5,1.7-2.1c0.5-0.4,1-0.8,1.6-1c0.2-0.1,0.3-0.1,0.5,0c0.1,0.1,0.3,0.2,0.4,0.3
			c0.3,0.3,0.4,0.6,0.4,1s-0.1,0.6-0.5,0.6c-0.1,0-0.2,0-0.3,0l-0.3-0.1c-0.5,0-1,0.2-1.4,0.5c-0.6,0.5-1.1,1.1-1.5,1.8
			c-0.5,0.9-1,1.9-1.3,2.9c-0.4,1.3-0.6,2.6-0.6,3.9c0,0.3-0.1,0.7-0.4,0.9c-0.4,0.2-0.8,0.3-1.2,0.2l0.5-10.1h-0.1
			c-0.1,0-0.2,0.1-0.3,0.1C276.6,112.5,275.8,112.4,275.4,111.9z"/>
		<path class="st4" d="M289.1,122.4c-0.7,0-1.4-0.2-2-0.6s-1.2-1-1.5-1.7c-0.4-0.8-0.6-1.7-0.6-2.6s0.2-1.8,0.5-2.7
			c0.3-0.9,0.8-1.7,1.4-2.3c0.6-0.7,1.2-1.3,2-1.7c1.5-0.8,3.2-0.8,4.8-0.2c0.5,0.2,0.9,0.5,1.3,0.8l-0.3,8.7c0,0.2,0,0.4,0.1,0.6
			s0.3,0.3,0.5,0.2c0.2,0,0.4-0.1,0.6-0.2c0.3-0.2,0.5-0.4,0.7-0.6c0.1-0.1,0.2-0.2,0.3-0.1c0.1,0,0.2,0.1,0.1,0.3
			c-0.1,0.5-0.4,1-0.8,1.4s-1,0.7-1.6,0.7c-0.4,0-0.8-0.2-1.1-0.5c-0.2-0.3-0.4-0.7-0.4-1.1l0.1-2.5c-0.2,0.7-0.5,1.3-0.9,1.9
			s-0.9,1.1-1.4,1.6C290.4,122.1,289.8,122.4,289.1,122.4z M286.8,117.5c0,0.6,0.1,1.2,0.3,1.7c0.2,0.5,0.5,1,0.9,1.4
			s0.9,0.6,1.4,0.5c0.5,0,1-0.2,1.4-0.5c0.5-0.4,0.9-0.9,1.2-1.4c0.4-0.6,0.7-1.2,0.9-1.9c0.2-0.6,0.4-1.3,0.4-1.9l0.1-2.2
			c0-0.2,0-0.4,0-0.6s-0.1-0.3-0.2-0.4c-0.2-0.3-0.5-0.6-0.8-0.8c-0.4-0.2-0.8-0.3-1.3-0.3c-0.7,0-1.3,0.2-1.8,0.6
			c-0.6,0.4-1,1-1.4,1.6C287.3,114.6,286.9,116,286.8,117.5L286.8,117.5z"/>
		<path class="st4" d="M301,124.9v1.2c0,0.4-0.1,0.8-0.3,1.1c-0.2,0.2-0.6,0.3-1.3,0.3l0.5-12.4c-0.5,0.8-0.9,1.7-1.2,2.6
			c-0.1,0-0.2-0.1-0.3-0.2c-0.1-0.1-0.1-0.3,0-0.7c0.2-0.6,0.4-1.2,0.6-1.8c0.3-0.6,0.6-1.1,1-1.6l0.1-2.4c0-0.4,0.2-0.7,0.5-0.9
			c0.3-0.2,0.7-0.2,1,0v1.7c0.6-0.5,1.3-1,2-1.3c0.6-0.3,1.4-0.4,2-0.3c0.9,0,1.7,0.4,2.3,1c0.6,0.6,1.1,1.4,1.3,2.3
			c0.3,1,0.3,2,0.2,3c-0.1,0.9-0.4,1.8-0.8,2.6c-0.4,0.8-0.9,1.4-1.6,2c-0.6,0.5-1.3,0.9-2,1.1c-0.5,0.1-1,0.2-1.6,0.1
			c-0.5,0-1-0.2-1.5-0.5c-0.2-0.1-0.3-0.3-0.2-0.4c0-0.1,0-0.2,0.1-0.3c0.4,0.3,1,0.4,1.5,0.4c0.6,0,1.2-0.2,1.7-0.5
			c0.7-0.4,1.2-1,1.6-1.6c0.5-0.8,0.8-1.6,0.9-2.6c0.1-0.8,0.1-1.7,0-2.5c-0.1-0.7-0.4-1.3-0.9-1.9c-0.4-0.5-0.9-0.8-1.5-0.9
			s-1.3,0-1.9,0.3c-0.7,0.3-1.3,0.8-1.9,1.3L301,124.9z"/>
		<path class="st4" d="M316.6,121.1c0.6,0.1,1.2,0,1.8-0.2c0.5-0.2,0.9-0.5,1.3-0.8c0.3-0.3,0.6-0.6,0.8-0.9
			c0.2-0.3,0.5-0.4,0.8-0.2c0,0,0.1,0,0.1,0.1c-0.1,0.3-0.2,0.5-0.4,0.8c-0.5,0.9-1.4,1.6-2.3,2.1c-0.7,0.3-1.4,0.4-2.1,0.4
			c-1,0-1.9-0.2-2.8-0.7c-0.8-0.5-1.5-1.2-1.9-2c-0.5-0.9-0.7-1.9-0.6-2.9c0-1,0.2-1.9,0.7-2.8c0.4-0.8,0.9-1.5,1.6-2.1
			c0.6-0.6,1.3-1,2.1-1.3c0.7-0.3,1.5-0.4,2.2-0.4c0.6,0,1.2,0.1,1.7,0.3c0.4,0.2,0.8,0.5,1.1,0.8c0.2,0.3,0.4,0.6,0.5,0.9
			c0.1,0.2,0.1,0.5,0.2,0.8c0,0.6-0.2,1.3-0.6,1.8c-0.4,0.6-1,1-1.6,1.4c-0.7,0.4-1.4,0.7-2.2,0.9c-0.8,0.2-1.7,0.3-2.5,0.3
			c-0.2,0-0.4-0.1-0.6-0.2c-0.1-0.1-0.1-0.3-0.1-0.5c0.6,0,1.3-0.1,1.9-0.3c0.7-0.2,1.3-0.4,1.9-0.7c0.5-0.3,1-0.6,1.5-1.1
			c0.4-0.3,0.6-0.8,0.6-1.2c0-0.6-0.2-1.1-0.6-1.5s-0.9-0.6-1.5-0.6c-0.8,0-1.6,0.2-2.2,0.7c-0.7,0.5-1.2,1.2-1.6,2
			s-0.6,1.8-0.7,2.7c0,0.8,0.1,1.6,0.4,2.3c0.2,0.7,0.7,1.3,1.2,1.7C315.2,120.8,315.9,121.1,316.6,121.1z"/>
		<path class="st4" d="M327.1,122.4c-0.4,0-0.8-0.1-1.2-0.3c-0.4-0.2-0.8-0.5-1-0.9c-0.3-0.6-0.4-1.2-0.3-1.8l0.4-7.2h-0.1
			c-0.1,0-0.2,0.1-0.4,0.1c-0.5,0.4-1.2,0.3-1.6-0.2c0.3-0.2,0.6-0.4,1-0.7l1.1-0.7c0.2-0.2,0.4-0.3,0.7-0.4c0.2-0.1,0.4-0.1,0.6,0
			s0.3,0.3,0.2,0.4l-0.5,8.6c0,0.4,0.1,0.9,0.4,1.2c0.3,0.3,0.8,0.5,1.3,0.5c0.8,0,1.6-0.4,2.2-1c0.9-0.9,1.5-1.9,1.9-3.2
			c0.1-0.4,0.2-0.7,0.2-1.1c0.1-0.4,0.1-0.8,0.1-1.2l0.2-3.1c0-0.4,0.1-0.8,0.4-1.1c0.3-0.2,0.8-0.3,1.2-0.2l-0.4,10
			c0,0.2,0,0.4,0.1,0.6s0.3,0.3,0.5,0.2c0.2,0,0.4-0.1,0.6-0.2c0.3-0.2,0.5-0.4,0.7-0.6c0.1-0.1,0.2-0.1,0.3-0.1
			c0.1,0,0.2,0.1,0.1,0.3c-0.1,0.5-0.4,1-0.8,1.4s-1,0.7-1.6,0.7c-0.4,0-0.8-0.2-1.1-0.5c-0.2-0.3-0.4-0.7-0.3-1.1l0.1-2.6
			c-0.3,0.8-0.6,1.5-1.1,2.1s-1,1.1-1.7,1.5C328.6,122.2,327.8,122.4,327.1,122.4z"/>
		<path class="st4" d="M338.6,119.6l0.3-8.1l-0.8,0.1c-0.2,0-0.4,0.1-0.5,0.1c-0.2,0-0.3,0.1-0.4,0.3c-0.1,0.1-0.2,0.1-0.3,0.1
			c-0.1,0-0.2-0.1-0.2-0.3l0.1-1c0-0.2,0.1-0.3,0.4-0.3h1.8l0.1-2.3c0-0.3,0.1-0.7,0.3-0.9c0.3-0.3,0.8-0.4,1.2-0.3l-0.1,3.6h2.9
			c0.2,0,0.3,0.1,0.3,0.3l-0.1,1c0,0.1-0.1,0.2-0.2,0.3c-0.1,0-0.2,0-0.3-0.1c-0.1-0.2-0.3-0.3-0.4-0.3c-0.2-0.1-0.5-0.1-0.7-0.2
			h-1.5l-0.3,7.7c-0.1,0.5,0.1,0.9,0.3,1.3c0.2,0.3,0.6,0.4,0.9,0.5c0.4,0,0.8-0.1,1.1-0.2c0.4-0.2,0.7-0.4,1-0.7
			c0.1-0.1,0.3-0.1,0.4,0s0.2,0.2,0.1,0.4l0,0c-0.2,0.6-0.6,1-1.2,1.3c-0.5,0.4-1.2,0.6-1.8,0.6c-0.3,0-0.7-0.1-1-0.2
			c-0.4-0.2-0.8-0.5-1-0.9C338.7,120.7,338.6,120.1,338.6,119.6z"/>
		<path class="st4" d="M349.3,122.4c-0.7,0-1.4-0.2-2-0.6s-1.2-1-1.5-1.7c-0.4-0.8-0.6-1.7-0.6-2.6s0.2-1.8,0.5-2.7
			c0.3-0.9,0.8-1.7,1.4-2.3c0.6-0.7,1.2-1.3,2-1.7c1.5-0.8,3.2-0.8,4.8-0.2c0.5,0.2,0.9,0.5,1.3,0.8l-0.3,8.7c0,0.2,0,0.4,0.1,0.6
			s0.2,0.2,0.5,0.2c0.2,0,0.4-0.1,0.6-0.2c0.3-0.2,0.5-0.4,0.7-0.6c0.1-0.1,0.2-0.2,0.3-0.1c0.1,0,0.2,0.1,0.1,0.3
			c-0.1,0.5-0.4,1-0.8,1.4s-1,0.7-1.6,0.7c-0.4,0-0.8-0.2-1.1-0.5c-0.2-0.3-0.4-0.7-0.3-1.1l0.1-2.5c-0.2,0.7-0.5,1.3-0.9,1.9
			s-0.9,1.1-1.4,1.6C350.7,122.1,350,122.4,349.3,122.4z M347.1,117.5c0,0.6,0.1,1.2,0.3,1.7c0.2,0.5,0.5,1,0.9,1.4s0.9,0.6,1.4,0.5
			c0.5,0,1-0.2,1.4-0.5c0.5-0.4,0.9-0.9,1.2-1.4c0.4-0.6,0.7-1.2,0.9-1.9c0.2-0.6,0.4-1.3,0.4-1.9l0.1-2.2c0-0.2,0-0.4,0-0.6
			s-0.1-0.3-0.1-0.4c-0.2-0.3-0.5-0.6-0.8-0.8c-0.4-0.2-0.8-0.3-1.3-0.3c-0.7,0-1.3,0.2-1.9,0.6s-1,1-1.4,1.6
			C347.5,114.6,347.1,116,347.1,117.5L347.1,117.5z"/>
	</g>
</g>
</svg>
