<svg xmlns="http://www.w3.org/2000/svg" viewBox="0 0 450.34 160.24"><defs><style>.cls-1{fill:#ffdbe9;}.cls-2{fill:#8c1043;}.cls-3{fill:#ff5c9c;}.cls-4{fill:#bc155b;}.cls-5{fill:none;}</style></defs><title>logo_horizontal</title><g id="Layer_2" data-name="Layer 2"><g id="traço"><path class="cls-1" d="M119.27,87.3c-1.17,17.14-15.19,24.22-34.29,25C67.35,113,49.87,98.73,49.87,81.09s16.31-35.5,33.94-35.5c21,0,36.88,21.34,35.46,41.71Z"/><path class="cls-1" d="M105,46.76c18.12,12.94,26.32,44.59,8.15,60.81-10.45,9.18-25.78,11.77-38.82,7.52,15.82,5,34.28-.59,42.59-15.39C127.28,83,120,58.43,105,46.76Z"/><path class="cls-1" d="M54.41,101.31c-9-10.94-11.72-25.78-4.89-38.48a38.69,38.69,0,0,1,6.94-9.62,48,48,0,0,1,9.48-7.09c8.49-4.78,18.8-7,28.27-4.44C78.88,38.65,63.49,47.1,54.26,59c-10.45,13-9.62,29.25.15,42.34Z"/><path class="cls-2" d="M66.67,79.34s1.22-1.08,4.88,3.56,6.84,2.3,6.84,2.3l-4.54,4.88-4.2-3.37-3-7.37Z"/><path class="cls-2" d="M64.81,78.46s1.22-.74,4.06,2.68,3.27,5.38,5.71,4.89S74,88.52,74,88.52l-5.42-4L65,80l-.15-1.51Z"/><path id="baby" class="cls-3" d="M68,80.46a10,10,0,0,1-6.69-7.23c-1.37-4.88,1.51-8.16,3.51-9.87,1.66-1.41,5.47-2.63,7.57-2.24a6.06,6.06,0,0,1,4.79,4.59c.73,2.59.73,2.64,1.51,3,1.22.49,2,4.1.54,6.88-1.37,2.45,0,2.74,1.47,2.54,4-.43,6.2-9.81,9.81-7.71,3,1.71-.19,6.64-2,9.47-2.59,4.06,2.39,2.88,3.86.93,2-2.78,4.78-5.66,8.06-4.59,2.73.93,3.9,6.59,4,7.86.24,2.35,3,1.32,3.52,4.11.49,2.58-1.22,4.64-7.28,2.54-1.71-.59-1.47-2.64-2-4.25s-3.18,7.08-7.38,8.25c-5.42,1.51-10.74-1.61-15.43-3.47a11.33,11.33,0,0,1-6.06-7.86C69.65,81.48,69.94,81.09,68,80.46Z"/><path class="cls-4" d="M104.67,95a4,4,0,0,1-4.06.74,6.51,6.51,0,0,0-4.15-.54,69.66,69.66,0,0,1-10.3,1.51c-3.37.1-9-2.34-12.07-3.37s-4.1-3.46-5.66-5.08a18.92,18.92,0,0,1-2.74-3.9A24.11,24.11,0,0,1,63,78.16c-.09-.88,1.57-.48,2.15.3,1.08,1.32,2.45,4.25,3.52,5.12A21.25,21.25,0,0,1,71.06,86c.93.93,3.18,1.9,5,2.64a16.37,16.37,0,0,0,3.23.73c1.07,1.17,4.1,3.91,6.69,3.91a11.46,11.46,0,0,0,5.13-1,15.29,15.29,0,0,1-5.67.49c-1.17-.2-2.64-.64-5.42-3.32,1.91.14,3.81,0,4.88-.74,1.91-1.27,12.36-2.19,13.73-1.41s2.39,1.32,2.83,1.56c1.08.54,1.52-.34,2.88,1.51A4.32,4.32,0,0,1,104.67,95Z"/><path class="cls-4" d="M93.19,87.15c-1.86-.73-6.4-.15-7.08-.05s-3,.2-3.72-.63a13.25,13.25,0,0,0-4.54-2.84c-1.37-.53-3.32,1.13-1.8,2.25a19.37,19.37,0,0,1,3.41,3c1.27,1.27,2.15,2.88,6.5,2.93,2.54,0,3.66.2,4.93-.1,3.32-.63,4.4-3.76,2.3-4.54Z"/><path class="cls-4" d="M141,94.82a12.93,12.93,0,0,1-1.58-.15,5.83,5.83,0,0,1-2-.65,1.68,1.68,0,0,1-.9-1.56,1.52,1.52,0,0,1,.3-1,.56.56,0,0,1,.4-.25c.14,0,.17.09.1.25a1.54,1.54,0,0,0,.56,1.44,3.44,3.44,0,0,0,1.4.88A7.81,7.81,0,0,0,141,94a6.77,6.77,0,0,0,4-1.26,17.3,17.3,0,0,0,3.19-2.91,14.09,14.09,0,0,1-3.34-2.79,5.38,5.38,0,0,1-1.43-3.65,4.82,4.82,0,0,1,.2-1.46,4.6,4.6,0,0,1,2.16-2.71,3.39,3.39,0,0,1,1.08-.43,5.76,5.76,0,0,1,1.18-.13,3.59,3.59,0,0,1,2.77.91v0c0,.07-.06.15-.18.25s-.21.12-.28,0a1.43,1.43,0,0,0-1.25-.5,3.67,3.67,0,0,0-2.16.75,3.42,3.42,0,0,0-1.31,1.86,6.39,6.39,0,0,0-.3,1.91,4.78,4.78,0,0,0,1,3,10.14,10.14,0,0,0,2.38,2.23,10.55,10.55,0,0,0,.73-1c.22-.34.45-.67.68-1a48.77,48.77,0,0,0,3-5.28l3-6.11c1-2.09,2.13-4.13,3.29-6.1a33.59,33.59,0,0,1,3.79-5.31,15.47,15.47,0,0,1,4.53-3.59,6.53,6.53,0,0,1,3.06-.86,5.05,5.05,0,0,1,1.46.2c.14,0,.18.12.13.26a.22.22,0,0,1-.28.15.87.87,0,0,0-.42-.1h-.48c-1.75,0-3.57,1.12-5.48,3.36a33.29,33.29,0,0,0-3.82,5.56c-1.08,2-2.06,4-3,6s-1.83,4.1-2.79,6.11a38.66,38.66,0,0,1-3.39,5.78c-.34.5-.7,1-1.08,1.46s-.78.92-1.19,1.36a10,10,0,0,0,1.49.5l1.43.35a23.68,23.68,0,0,0,4.63.45,28.06,28.06,0,0,0,6.36-.72,22.79,22.79,0,0,0,5.45-2A19.27,19.27,0,0,0,175.57,84a25,25,0,0,0,4-6.68A19.34,19.34,0,0,0,181.05,70a14.16,14.16,0,0,0-1.71-6.81A12.62,12.62,0,0,0,173.66,58a20.21,20.21,0,0,0-5.45-1.83,31.3,31.3,0,0,0-6-.58,25.14,25.14,0,0,0-8.27,1.38,17.72,17.72,0,0,0-6.51,3.75,11.9,11.9,0,0,0-2.34,3.37,9.36,9.36,0,0,0-1,4.17c0,.3,0,.6,0,.9a4.24,4.24,0,0,0,.2.91A3.62,3.62,0,0,0,146,72.17a5.78,5.78,0,0,0,2.94.73,8.28,8.28,0,0,0,2.61-.45l.08,0a.08.08,0,0,1,.07,0c.07,0,.1,0,.1.1a.36.36,0,0,1-.3.35c-.47.14-1,.25-1.48.36a8.11,8.11,0,0,1-1.54.15,8.71,8.71,0,0,1-3.11-.58A5.35,5.35,0,0,1,143,70.94a5.24,5.24,0,0,1-.93-3.21,9.21,9.21,0,0,1,.45-2.92,10.33,10.33,0,0,1,1.26-2.56,12.72,12.72,0,0,1,4.7-4.1,26.57,26.57,0,0,1,6.74-2.47,32.64,32.64,0,0,1,13.44-.25,29.16,29.16,0,0,1,5.83,1.74,15.16,15.16,0,0,1,7.27,5.8A14.62,14.62,0,0,1,184,70.74a18.53,18.53,0,0,1-1.69,7.62,23.79,23.79,0,0,1-4.67,6.89,22.83,22.83,0,0,1-7,4.9,24.41,24.41,0,0,1-5.35,1.66,31.87,31.87,0,0,1-5.86.55,31.29,31.29,0,0,1-3.37-.18,29.5,29.5,0,0,1-3.26-.52c-.44-.1-.91-.23-1.41-.38a11.69,11.69,0,0,1-1.51-.58c-.6.54-1.23,1.06-1.88,1.58a12.16,12.16,0,0,1-2.09,1.34,14.57,14.57,0,0,1-2.39.88A10.22,10.22,0,0,1,141,94.82Z"/><path class="cls-4" d="M189.9,90.65c-2,0-3.32-.5-4.12-1.51a3.62,3.62,0,0,1-.86-1.56,6.79,6.79,0,0,1-.25-1.86,10.37,10.37,0,0,1,.3-2.44,13.55,13.55,0,0,1,.76-2.28,19.4,19.4,0,0,1,1.86-3.35,11.25,11.25,0,0,1,2.79-2.84A6.07,6.07,0,0,1,194,73.66a3.06,3.06,0,0,1,2.06.65,2.51,2.51,0,0,1,.76,2,6,6,0,0,1-1,3.14,8.85,8.85,0,0,1-2.41,2.64,5,5,0,0,1-3,1.06,3.45,3.45,0,0,1-2.46-1,11.55,11.55,0,0,0-.5,1.79,9.38,9.38,0,0,0-.21,2,5.6,5.6,0,0,0,.63,2.72,2.38,2.38,0,0,0,2.29,1.16,4.78,4.78,0,0,0,2.34-.63,9,9,0,0,0,2-1.54,23.47,23.47,0,0,0,1.91-2.26,20.67,20.67,0,0,0,1.76-2.81c.07-.1.12-.15.16-.15s.2.15.2.45a1.35,1.35,0,0,1-.2.65,27.37,27.37,0,0,1-1.76,2.74,17.89,17.89,0,0,1-2.07,2.39,8.5,8.5,0,0,1-2.06,1.46A5.61,5.61,0,0,1,189.9,90.65Zm-1.71-9.25a2,2,0,0,0,.83.73,2.26,2.26,0,0,0,1,.22,4.3,4.3,0,0,0,2.51-.93,7.66,7.66,0,0,0,2.11-2.18,5.75,5.75,0,0,0,.63-1.46,5.65,5.65,0,0,0,.28-1.71,2.54,2.54,0,0,0-.28-1.23,1.1,1.1,0,0,0-1.08-.53A3.48,3.48,0,0,0,192,75.42a12.81,12.81,0,0,0-2.34,2.86q-.36.6-.78,1.41A10.86,10.86,0,0,0,188.19,81.4Zm5.46-10.24h-.08c-.23,0-.34-.13-.34-.38a.34.34,0,0,1,.17-.3,24.67,24.67,0,0,0,2.26-1.73c.86-.73,1.64-1.36,2.35-1.9a.69.69,0,0,1,.35-.13A.9.9,0,0,1,199,67a1,1,0,0,1,.29.66.45.45,0,0,1-.25.43Z"/><path class="cls-4" d="M199.85,90.9a2.61,2.61,0,0,1-2.28-1,3.86,3.86,0,0,1-.68-2.32,6.52,6.52,0,0,1,.3-2,31.5,31.5,0,0,1,1.05-3c.51-1.28,1.07-2.66,1.69-4.15s1.25-2.93,1.88-4.3l.93-2,1.06-2.23c.35-.74.64-1.34.88-1.81q.9-1.77,2.16-4.18a48.88,48.88,0,0,1,2.89-4.8,20.68,20.68,0,0,1,3.65-4.09A8.67,8.67,0,0,1,217.75,53a2.27,2.27,0,0,1,.5-.05,2.13,2.13,0,0,1,1.74.71,2.64,2.64,0,0,1,.58,1.71,3.84,3.84,0,0,1-.36,1.66,15.68,15.68,0,0,1-2.54,3.82A50.25,50.25,0,0,1,214,64.73q-2,1.89-3.54,3.4c-.87.84-1.64,1.56-2.31,2.18s-1.29,1.24-1.86,1.84-1.19,1.27-1.86,2c-.37.84-.73,1.68-1.08,2.54s-.55,1.35-.58,1.48a19.81,19.81,0,0,1,3.09-3.34,4.94,4.94,0,0,1,3.09-1.43,2.67,2.67,0,0,1,2.29.85,3.54,3.54,0,0,1,.63,2.16,9.37,9.37,0,0,1-.4,2.57,25.53,25.53,0,0,1-.93,2.59,21.25,21.25,0,0,1-1,2.08c-.34.54-.72,1.1-1.14,1.69A18.08,18.08,0,0,1,206.94,87a1.72,1.72,0,0,0,.66,1,1.85,1.85,0,0,0,1.05.3,3.62,3.62,0,0,0,1.46-.33,5.75,5.75,0,0,0,1.31-.78,12.69,12.69,0,0,0,2.11-2.26,30.82,30.82,0,0,0,1.76-2.72c0-.06.06-.1.1-.1s.1.15.1.46v.37a.64.64,0,0,1-.1.33A23.66,23.66,0,0,1,213.63,86,10,10,0,0,1,211.42,88a5,5,0,0,1-2.92.95,2.93,2.93,0,0,1-1.31-.3,1.72,1.72,0,0,1-.85-1,15.06,15.06,0,0,1-3,2.29A6.87,6.87,0,0,1,199.85,90.9ZM202,89.24a9.31,9.31,0,0,0,2.12-2.06,26.86,26.86,0,0,0,1.78-2.61c.52-.87.91-1.56,1.18-2.06s.48-1,.83-1.74.68-1.63,1-2.54a7.64,7.64,0,0,0,.45-2.36,2.08,2.08,0,0,0-.27-1.13,1.07,1.07,0,0,0-1-.43,2.57,2.57,0,0,0-1.54.73,11.91,11.91,0,0,0-1.73,1.84c-.7.87-1.48,1.91-2.31,3.14a38.53,38.53,0,0,0-2.29,3.79,21.22,21.22,0,0,0-1.53,3.57,4.48,4.48,0,0,0-.15,1.06,1.42,1.42,0,0,0,.42,1.15,1.56,1.56,0,0,0,1,.36A3.49,3.49,0,0,0,202,89.24Zm3.17-16.84q1.15-1.31,2.16-2.34l2.47-2.54c.94-.93,2-2,3.24-3.31s2.38-2.57,3.47-3.88a19.07,19.07,0,0,0,2.39-3.46,4.75,4.75,0,0,0,.6-2c0-1-.57-1.38-1.71-1.21a5.61,5.61,0,0,0-3.19,1.66A18.9,18.9,0,0,0,211.69,59a51.43,51.43,0,0,0-2.59,4.65q-1.2,2.48-2.18,4.78C206.26,70,205.68,71.29,205.18,72.4Z"/><path class="cls-4" d="M219.21,91.25a4.51,4.51,0,0,1-4.68-5,10.45,10.45,0,0,1,.58-3.35,22.49,22.49,0,0,1,1.28-3.09,16.05,16.05,0,0,1,3.3-4.3,6.75,6.75,0,0,1,4.75-1.83c1.77,0,3,.48,3.72,1.46a5.93,5.93,0,0,1,1.05,3.56,10.73,10.73,0,0,1-.15,1.76,15,15,0,0,1-1.66,4.78,2.87,2.87,0,0,0,.93.83,2.54,2.54,0,0,0,1.28.33,3.29,3.29,0,0,0,2.07-.66,6.29,6.29,0,0,0,1.48-1.63c.42-.65.78-1.27,1.08-1.84.2-.36.38-.55.55-.55s.15.07.15.2a3.25,3.25,0,0,1-.3.91,12.62,12.62,0,0,1-2,3,3.91,3.91,0,0,1-3,1.26A3,3,0,0,1,227,85.82a13.92,13.92,0,0,1-3.42,3.87A7,7,0,0,1,219.21,91.25Zm.1-.6a7,7,0,0,0,4.87-2.41,13.91,13.91,0,0,0,1.29-1.49,15.23,15.23,0,0,0,1-1.58,4.47,4.47,0,0,1-.93-1.63,5.48,5.48,0,0,1-.28-1.69,5.33,5.33,0,0,1,.45-2.24,1.41,1.41,0,0,1,1.26-1,1.08,1.08,0,0,1,.78.41,2.19,2.19,0,0,1,.48,1.25,7.2,7.2,0,0,0,.15-1.5,5.74,5.74,0,0,0-.71-3.05,2.56,2.56,0,0,0-2.36-1.13,3.47,3.47,0,0,0-2.06.78,11.73,11.73,0,0,0-2,1.89,17.87,17.87,0,0,0-1.63,2.26c-.47.77-.82,1.41-1.06,1.91a20.18,20.18,0,0,0-1.23,3.32,10.38,10.38,0,0,0-.37,2.56,3.93,3.93,0,0,0,.67,2.47A2.07,2.07,0,0,0,219.31,90.65Z"/><path class="cls-4" d="M243.89,89.34a6.15,6.15,0,0,1-1.68,1,4.23,4.23,0,0,1-1.54.33,2.73,2.73,0,0,1-2.08-.88,3.28,3.28,0,0,1-.83-2.34,6.66,6.66,0,0,1,.4-2.06,12.72,12.72,0,0,1,2-3.47c.87-1.1,1.71-2.23,2.52-3.37a3.29,3.29,0,0,0,.75-2,1.17,1.17,0,0,0-1.26-1.25,3.59,3.59,0,0,0-.9-.1h-3a2,2,0,0,1-.45,0A13.66,13.66,0,0,1,237,78c-.42,1-.9,2.08-1.43,3.12s-1.06,2-1.56,2.81c-.14.2-.25.31-.35.31s-.15-.11-.15-.31a.92.92,0,0,1,.15-.55q1.05-2.05,2-4A14.21,14.21,0,0,0,237,75.22,3.35,3.35,0,0,1,235.45,73a4.2,4.2,0,0,1-.08-.47,3.24,3.24,0,0,1,0-.43,2.94,2.94,0,0,1,.37-1.53,1.07,1.07,0,0,1,.88-.63c.47,0,.86.45,1.16,1.35a4.5,4.5,0,0,1,.15.78,8.19,8.19,0,0,1,.05.83c0,.3,0,.58,0,.83a4.63,4.63,0,0,1-.07.63,4.5,4.5,0,0,0,.93.15,12.55,12.55,0,0,0,1.28.05c.7,0,1.44,0,2.21-.07s1.43-.08,2-.08a1.72,1.72,0,0,1,1.31.4,1.46,1.46,0,0,1,.35,1,4.15,4.15,0,0,1-.37,1.63c-.26.59-.5,1.08-.73,1.49q-.66,1.2-1.23,2.13c-.39.62-.82,1.28-1.29,2A14.38,14.38,0,0,0,240.75,86a6.84,6.84,0,0,0-.48,2.24c0,1,.39,1.56,1.16,1.56a4.27,4.27,0,0,0,2.46-1.36,12,12,0,0,0,1.79-2,26.68,26.68,0,0,0,1.5-2.41c.46-.82.83-1.5,1.14-2,.06-.1.13-.15.2-.15s.2.14.2.4a1.09,1.09,0,0,1-.15.56c-.57,1-1.23,2.18-2,3.42A12.6,12.6,0,0,1,243.89,89.34Z"/><path class="cls-4" d="M258.72,90.6a2.33,2.33,0,0,1-2.21-1,4.47,4.47,0,0,1-.6-2.29,8.26,8.26,0,0,1,.07-.88c0-.42.11-.81.18-1.18-.47.64-1,1.34-1.69,2.11a14,14,0,0,1-2,2,4.88,4.88,0,0,1-2.92,1.31,2.15,2.15,0,0,1-1.93-1.06,4.76,4.76,0,0,1-.68-2.66,10.56,10.56,0,0,1,.9-4.17,18,18,0,0,1,2.39-4,17.67,17.67,0,0,1,3.29-3.24,8.77,8.77,0,0,1,2.59-1.23,10.32,10.32,0,0,1,3.09-.48,8.22,8.22,0,0,1,3.1.53,3.32,3.32,0,0,1,1.83,1.48A27,27,0,0,0,262,79.11c-.74,1.33-1.38,2.52-1.91,3.6-.37.73-.77,1.65-1.21,2.74a7.88,7.88,0,0,0-.65,2.79,2.18,2.18,0,0,0,.25,1,1,1,0,0,0,1,.51,2.48,2.48,0,0,0,1.55-.61,8.13,8.13,0,0,0,1.26-1.2,18.89,18.89,0,0,0,2.11-2.77c.64-1,1.28-2.08,1.91-3.22a.41.41,0,0,1,.3-.2q.21,0,.21.3a.83.83,0,0,1-.1.41c-.58,1.1-1.21,2.21-1.92,3.31a18,18,0,0,1-2.51,3.12,6.89,6.89,0,0,1-1.66,1.21A4,4,0,0,1,258.72,90.6Zm-8-1.56a3.23,3.23,0,0,0,2.08-1A16.38,16.38,0,0,0,255,85.5c.72-1,1.37-2,2-2.87s1-1.63,1.38-2.14a29.94,29.94,0,0,1,2-2.76A5.71,5.71,0,0,1,263.1,76l.17,0a.48.48,0,0,1,.18,0,2.78,2.78,0,0,0-1.51-1.06,6.6,6.6,0,0,0-2.06-.35,5.9,5.9,0,0,0-3,.86,11.57,11.57,0,0,0-2.66,2.16,35,35,0,0,0-2.27,3,17.72,17.72,0,0,0-1.78,3.26,8.42,8.42,0,0,0-.68,3.17,3.41,3.41,0,0,0,.28,1.43A.94.94,0,0,0,250.68,89Z"/><path class="cls-4" d="M292.45,93.26a19.61,19.61,0,0,1-5.17.61,14.66,14.66,0,0,1-6.51-1.28,10,10,0,0,1-4-3.37,11.52,11.52,0,0,1-1.78-4.5,17.92,17.92,0,0,1-.15-2.31,21.37,21.37,0,0,1,.85-5.94,30.51,30.51,0,0,1,2.92-6.76,33.57,33.57,0,0,1,4.55-6.11A33.13,33.13,0,0,1,289,58.7a26.69,26.69,0,0,1,6.56-3.19,17.24,17.24,0,0,1,3.17-.78,20.84,20.84,0,0,1,3-.23c.61,0,1.19,0,1.76.08a6.86,6.86,0,0,1,1.61.33,6.75,6.75,0,0,1,3.12,1.73,4.05,4.05,0,0,1,1.16,2.94,4.66,4.66,0,0,1-.15,1.11,8.31,8.31,0,0,1,2.08,3.49,14.66,14.66,0,0,1,.63,4.35,19,19,0,0,1-.28,3.22A23.07,23.07,0,0,1,310.8,75a28.26,28.26,0,0,1-3.54,7.19,29.14,29.14,0,0,1-5.53,6.14,24.72,24.72,0,0,1-7,4.12S293.13,93.08,292.45,93.26Zm1.25-1.53a25.15,25.15,0,0,0,6.67-4.55,30.94,30.94,0,0,0,5-6.51,33,33,0,0,0,3.14-7.11,20.08,20.08,0,0,0,.61-2.79,20.82,20.82,0,0,0,.2-2.79,15.76,15.76,0,0,0-.28-3,9.32,9.32,0,0,0-.88-2.56,2.29,2.29,0,0,1-1,.75,1.49,1.49,0,0,1-.5.15c-.13,0-.19-.05-.17-.15a.49.49,0,0,1,.22-.3,3.05,3.05,0,0,0,.91-1.46,7.26,7.26,0,0,0-2.44-2,8,8,0,0,0-3.7-.77,12.58,12.58,0,0,0-4.7,1A19,19,0,0,0,292,62.55a13.28,13.28,0,0,0-2.59,2.91,15.39,15.39,0,0,0-1.73,3.47A9.82,9.82,0,0,0,287,72a2.07,2.07,0,0,0,.76,1.91q.45.2.45.45c0,.1-.07.17-.2.2a.67.67,0,0,1-.45,0,2.33,2.33,0,0,1-1.33-1.23,4.67,4.67,0,0,1-.43-2.09A11.41,11.41,0,0,1,287,66.57a12.34,12.34,0,0,1,3.12-4.27A17.76,17.76,0,0,1,295.65,59a16.83,16.83,0,0,1,5.85-1.13,12.09,12.09,0,0,1,3.6.5,11.6,11.6,0,0,1,2.79,1.31,3.5,3.5,0,0,0-1.06-2.34A5.45,5.45,0,0,0,304.42,56a10.2,10.2,0,0,0-2.92-.4,15.24,15.24,0,0,0-2.59.23,17.93,17.93,0,0,0-2.84.72,15,15,0,0,0-4,2,30.91,30.91,0,0,0-4,3.39,40.34,40.34,0,0,0-3.67,4.23,34.19,34.19,0,0,0-2.92,4.52,30.48,30.48,0,0,0-2.26,5.76,23.47,23.47,0,0,0-.95,6.51c0,.5,0,1,0,1.51a9.56,9.56,0,0,0,.2,1.45,9.81,9.81,0,0,0,1.38,3.55,7.62,7.62,0,0,0,2.89,2.64,9.64,9.64,0,0,0,4.63,1h.2a13.07,13.07,0,0,0,2.08-.17,20.25,20.25,0,0,0,2.09-.48A16.18,16.18,0,0,0,293.7,91.73Z"/><path class="cls-4" d="M315.13,90.55a2.6,2.6,0,0,1-2.24-.91,3.59,3.59,0,0,1-.68-2.21,11.24,11.24,0,0,1,.68-3.62,30.39,30.39,0,0,1,1.58-3.74c.61-1.19,1.09-2.12,1.46-2.79A5.31,5.31,0,0,1,318.17,75a7.55,7.55,0,0,1,2.79-.45,3.37,3.37,0,0,0-1.31,1.18A23.81,23.81,0,0,0,318,78.23a34,34,0,0,0-1.66,3.25,25.84,25.84,0,0,0-1.26,3.36,10.18,10.18,0,0,0-.48,2.79A2.72,2.72,0,0,0,314.9,89a1.11,1.11,0,0,0,1,.55,2.85,2.85,0,0,0,1.41-.47,6.87,6.87,0,0,0,1.46-1.18,22.43,22.43,0,0,0,3.59-5.41q1.38-2.94,3.09-5.86a5.22,5.22,0,0,1,2.24-2.31,7.62,7.62,0,0,1,2.79-.45,3.59,3.59,0,0,0-1.36,1.23,22.8,22.8,0,0,0-1.78,2.69,35.63,35.63,0,0,0-1.74,3.44,35,35,0,0,0-1.33,3.55,10.24,10.24,0,0,0-.53,2.91,2.51,2.51,0,0,0,.33,1.34,1.08,1.08,0,0,0,1,.52,2.74,2.74,0,0,0,1.41-.5A8.22,8.22,0,0,0,328,87.94a19.61,19.61,0,0,0,2.11-2.77c.64-1,1.27-2.08,1.91-3.22.1-.13.18-.2.25-.2s.2.1.2.3a.73.73,0,0,1-.1.41c-.6,1.1-1.24,2.21-1.91,3.31A16.39,16.39,0,0,1,328,88.89a6.92,6.92,0,0,1-1.89,1.33,3.37,3.37,0,0,1-2.13.33,3,3,0,0,1-2-1.13,3.72,3.72,0,0,1-.6-2.14,8.07,8.07,0,0,1,.3-2.11c-.4.64-.83,1.27-1.28,1.91a13.71,13.71,0,0,1-1.53,1.81,6.15,6.15,0,0,1-1.69,1.18A4.44,4.44,0,0,1,315.13,90.55Z"/><path class="cls-4" d="M336.49,90.65c-1.94,0-3.31-.5-4.12-1.51a3.6,3.6,0,0,1-.85-1.56,6.79,6.79,0,0,1-.26-1.86,10.39,10.39,0,0,1,.31-2.44,14.51,14.51,0,0,1,.75-2.28,19.4,19.4,0,0,1,1.86-3.35A11.25,11.25,0,0,1,337,74.81a6.1,6.1,0,0,1,3.6-1.15,3.08,3.08,0,0,1,2.06.65,2.54,2.54,0,0,1,.75,2,6.08,6.08,0,0,1-.95,3.14A8.88,8.88,0,0,1,340,82.1a5,5,0,0,1-3,1.06,3.49,3.49,0,0,1-2.47-1,11.55,11.55,0,0,0-.5,1.79,10.07,10.07,0,0,0-.2,2,5.6,5.6,0,0,0,.63,2.72,2.37,2.37,0,0,0,2.28,1.16,4.73,4.73,0,0,0,2.34-.63,8.83,8.83,0,0,0,2-1.54A23.47,23.47,0,0,0,343,85.37a21.7,21.7,0,0,0,1.76-2.81q.1-.15.15-.15c.13,0,.2.15.2.45a1.35,1.35,0,0,1-.2.65,25.7,25.7,0,0,1-1.76,2.74,17.85,17.85,0,0,1-2.06,2.39,8.91,8.91,0,0,1-2.06,1.46A5.68,5.68,0,0,1,336.49,90.65Zm-1.71-9.25a2.12,2.12,0,0,0,.83.73,2.29,2.29,0,0,0,1,.22,4.3,4.3,0,0,0,2.52-.93,7.8,7.8,0,0,0,2.11-2.18,6.56,6.56,0,0,0,.63-1.46,6,6,0,0,0,.27-1.71,2.65,2.65,0,0,0-.27-1.23,1.12,1.12,0,0,0-1.08-.53,3.48,3.48,0,0,0-2.14,1.11,13.38,13.38,0,0,0-2.34,2.86q-.35.6-.78,1.41A13.12,13.12,0,0,0,334.78,81.4Z"/><path class="cls-4" d="M346.25,90.55a2.33,2.33,0,0,1-2.06-.93,3.85,3.85,0,0,1-.66-2.29,4.85,4.85,0,0,1,.08-.83c.05-.28.11-.58.17-.88a28,28,0,0,1,1.74-4.5c.78-1.66,1.55-3.14,2.28-4.45A6.72,6.72,0,0,1,349,75.09a3.61,3.61,0,0,1,1.21-.7l1.56-.53a2.21,2.21,0,0,1,.5-.15l.55-.1a19.88,19.88,0,0,0-2,2.41,25.82,25.82,0,0,0-2.24,3.87c-.44.87-.86,1.85-1.28,2.92s-.78,2.08-1.08,3a9.78,9.78,0,0,0-.51,2.22,2.13,2.13,0,0,0,.25,1.35,1,1,0,0,0,.81.41,2.64,2.64,0,0,0,1.63-.61,12.16,12.16,0,0,0,1.39-1.25,24.11,24.11,0,0,0,2.08-2.77c.66-1,1.3-2.08,1.94-3.22.1-.13.18-.2.25-.2s.2.1.2.3a.73.73,0,0,1-.1.41c-.6,1.1-1.24,2.21-1.91,3.31a16.39,16.39,0,0,1-2.46,3.12,7.31,7.31,0,0,1-1.54,1.16A4,4,0,0,1,346.25,90.55Zm6.14-19.78a1.22,1.22,0,0,1-.95-.4,1.28,1.28,0,0,1-.37-.92,1.78,1.78,0,0,1,.58-1.3,2,2,0,0,1,1.27-.6,1.27,1.27,0,0,1,.95.37,1.26,1.26,0,0,1,.37,1,1.9,1.9,0,0,1-.56,1.29A1.67,1.67,0,0,1,352.39,70.77Z"/><path class="cls-4" d="M360.07,90.7a2.46,2.46,0,0,1-2.16-.85,3.42,3.42,0,0,1-.6-2,6.11,6.11,0,0,1,.12-1.2,6.88,6.88,0,0,1,.33-1.11A12.29,12.29,0,0,1,359,83c.49-.72,1-1.45,1.53-2.18s.91-1.21,1.31-1.81.77-1.23,1.11-1.86a2.54,2.54,0,0,0,.3-1.11,1.14,1.14,0,0,0-.43-1,1.42,1.42,0,0,0-.88-.33,3.78,3.78,0,0,0-1.36.3c-.5.21-1,.44-1.5.71s-.93.55-1.36.85a2.64,2.64,0,0,1-1.11.51,16.24,16.24,0,0,1-.65,1.73c-.34.79-.74,1.64-1.21,2.56s-1,1.79-1.46,2.59c-.13.2-.25.31-.35.31s-.15-.11-.15-.31a.92.92,0,0,1,.15-.55c.67-1.21,1.26-2.36,1.76-3.47A28.61,28.61,0,0,0,355.9,77a1.07,1.07,0,0,1-.88-.41,1.54,1.54,0,0,1-.23-.85,3.52,3.52,0,0,1,.23-1.18c.15-.42.28-.75.38-1a5.88,5.88,0,0,0,1.78.55,12.77,12.77,0,0,0,1.94.15c.77,0,1.52,0,2.26-.1s1.41-.1,2-.1a1.71,1.71,0,0,1,1.43.5,2.07,2.07,0,0,1,.38,1.26,5.17,5.17,0,0,1-.33,1.73,14.13,14.13,0,0,1-.63,1.54,31,31,0,0,1-1.53,2.71c-.55.87-1.06,1.78-1.53,2.72-.14.27-.38.78-.73,1.53a7.87,7.87,0,0,0-.68,2.14.75.75,0,0,1,0,.2,1.36,1.36,0,0,0,0,.2,1,1,0,0,0,.3.8,1.06,1.06,0,0,0,.7.25,2.76,2.76,0,0,0,1.61-.52A6.79,6.79,0,0,0,363.64,88a18.5,18.5,0,0,0,2.11-2.82c.64-1,1.28-2.13,1.91-3.27.07-.1.14-.15.2-.15s.2.14.2.4a1.09,1.09,0,0,1-.15.56q-.9,1.65-1.86,3.24a15.61,15.61,0,0,1-2.41,3,7.34,7.34,0,0,1-1.56,1.18A3.92,3.92,0,0,1,360.07,90.7Z"/><path class="cls-4" d="M371.43,91.25a4.51,4.51,0,0,1-4.67-5,10.45,10.45,0,0,1,.58-3.35,21.3,21.3,0,0,1,1.28-3.09,16.22,16.22,0,0,1,3.29-4.3,6.76,6.76,0,0,1,4.75-1.83c1.78,0,3,.48,3.72,1.46a5.93,5.93,0,0,1,1.06,3.56,10.73,10.73,0,0,1-.15,1.76,15.21,15.21,0,0,1-1.66,4.78,2.68,2.68,0,0,0,.93.83,2.52,2.52,0,0,0,1.28.33,3.28,3.28,0,0,0,2.06-.66,6.29,6.29,0,0,0,1.48-1.63c.42-.65.78-1.27,1.08-1.84.21-.36.39-.55.56-.55s.15.07.15.2a3.25,3.25,0,0,1-.3.91,12.62,12.62,0,0,1-2,3,3.92,3.92,0,0,1-3,1.26,3.08,3.08,0,0,1-2.62-1.21,13.73,13.73,0,0,1-3.41,3.87A7,7,0,0,1,371.43,91.25Zm.1-.6a7,7,0,0,0,4.88-2.41,12.77,12.77,0,0,0,1.28-1.49,13.75,13.75,0,0,0,1-1.58,4.78,4.78,0,0,1-.93-1.63,5.77,5.77,0,0,1-.27-1.69,5.33,5.33,0,0,1,.45-2.24,1.4,1.4,0,0,1,1.25-1A1.08,1.08,0,0,1,380,79a2.12,2.12,0,0,1,.48,1.25,7.2,7.2,0,0,0,.15-1.5,5.74,5.74,0,0,0-.7-3.05,2.57,2.57,0,0,0-2.36-1.13,3.5,3.5,0,0,0-2.07.78,11.68,11.68,0,0,0-2,1.89,18,18,0,0,0-1.64,2.26,19.46,19.46,0,0,0-1.05,1.91,20.18,20.18,0,0,0-1.23,3.32,10.44,10.44,0,0,0-.38,2.56,3.93,3.93,0,0,0,.68,2.47A2,2,0,0,0,371.53,90.65Z"/><path class="cls-4" d="M386.16,104.53l-.65.07q-.3,0-.6,0a3.46,3.46,0,0,1-2.59-.91,3,3,0,0,1-.88-2.16,4.62,4.62,0,0,1,.62-2.19A5.44,5.44,0,0,1,384,97.44a34.25,34.25,0,0,1,5.61-2.94,60.58,60.58,0,0,0,6.15-3l.33-.88a6.16,6.16,0,0,0,.28-1,6,6,0,0,0,.15-1.25,2.22,2.22,0,0,0-.63-1.76,2.45,2.45,0,0,0-1.68-.56,7,7,0,0,0-2.62.61l-.9.35c-.34.13-.69.28-1.06.45a5.48,5.48,0,0,1-1.48,1.81,3.81,3.81,0,0,1-1.64.91,1.64,1.64,0,0,1-.45,0c-.64,0-.95-.29-.95-.86A1.5,1.5,0,0,1,386,88c.91-.54,1.77-1.11,2.59-1.71a26.36,26.36,0,0,0,2.56-2.19q1.33-1.29,3.05-3.19c.7-.81,1.43-1.59,2.18-2.34s1.52-1.48,2.29-2.19a7.78,7.78,0,0,0-1.11-.17L396,76l-1.23-.15a4,4,0,0,0-.58-.05h-.53a5.2,5.2,0,0,0-2,.38,4.14,4.14,0,0,0-1.74,1.48,25.24,25.24,0,0,0-1.48,2.39c-.55,1-1.25,2.22-2.09,3.69q-.15.3-.3.3c-.13,0-.2-.11-.2-.35a1.32,1.32,0,0,1,.2-.6c.67-1.14,1.21-2.15,1.61-3s.9-1.82,1.51-2.86a10.32,10.32,0,0,1,1.43-2,3.85,3.85,0,0,1,1.94-1.08,5.31,5.31,0,0,1,.83-.15,8.18,8.18,0,0,1,.88,0,18.49,18.49,0,0,1,2,.1,16.92,16.92,0,0,0,1.79.1l1.28,0c.58,0,1.16,0,1.73-.1a3.76,3.76,0,0,0,1.16-.22.65.65,0,0,1,.4.7,2.31,2.31,0,0,1-.65,1.43,2.08,2.08,0,0,1-2,.63,17.24,17.24,0,0,0-2.77,2.32c-1,1-1.86,1.87-2.56,2.61q-.41.45-1.26,1.26c-.57.53-1.16,1.12-1.78,1.76s-1.18,1.25-1.69,1.86a.44.44,0,0,1,0,.1.28.28,0,0,0,0,.15,10,10,0,0,1,2.21-1,13.6,13.6,0,0,1,1.79-.42,8.43,8.43,0,0,1,1.43-.13,2.89,2.89,0,0,1,2.39.85,3.39,3.39,0,0,1,.68,2.17,9,9,0,0,1-.15,1.55,28.37,28.37,0,0,0,3.11-3.34,26,26,0,0,0,2.42-3.54c.3-.47.57-.71.8-.71.07,0,.1,0,.1.15a1.3,1.3,0,0,1-.2.56c-.6,1.07-1.26,2.12-2,3.14a22,22,0,0,1-2.31,2.84c-.61.6-1.33,1.24-2.16,1.91-.1.37-.22.75-.36,1.16s-.28.8-.45,1.2a29.59,29.59,0,0,1-2.79,5.33,17.86,17.86,0,0,1-3.67,4.1A10.49,10.49,0,0,1,386.16,104.53Zm-.3-.86a9.41,9.41,0,0,0,4.3-2.59,19.58,19.58,0,0,0,3-4.17q1.26-2.34,2.31-4.55a23,23,0,0,1-3.24,1.73L388.07,96a27.33,27.33,0,0,0-3.67,2,4.6,4.6,0,0,0-1.56,1.68,4.24,4.24,0,0,0-.5,1.89,2.33,2.33,0,0,0,.58,1.61,2.14,2.14,0,0,0,1.68.65,4.88,4.88,0,0,0,1.26-.2Z"/><path class="cls-4" d="M296.77,87.54A13.44,13.44,0,0,0,294.05,86a15.27,15.27,0,0,0-3.44-1.22,11,11,0,0,0-1.52-.23,6,6,0,0,0-1.41,0,4.72,4.72,0,0,0-2.32,1.1.33.33,0,0,0-.12.35.2.2,0,0,0,.25.14l.1,0a3.51,3.51,0,0,1,1.29-.52,6.6,6.6,0,0,1,3.48.52,20.06,20.06,0,0,1,3.95,2.18l.87.58q2.55,2,5.34,4.6c1.52,1.42,3.09,2.75,4.69,4a20.24,20.24,0,0,0,5,2.9,9.88,9.88,0,0,0,5.32.57,8.73,8.73,0,0,0,3.22-1.2,5.83,5.83,0,0,0,2.17-2.42,6.07,6.07,0,0,0,.39-3.66,9.35,9.35,0,0,0-1.38-3.41,6.76,6.76,0,0,0-3-2.64.53.53,0,0,0-.39-.07.19.19,0,0,0-.15.21.54.54,0,0,0,.19.17,5.82,5.82,0,0,1,1.78,1.56,13,13,0,0,1,1.42,2.24,8.21,8.21,0,0,1,.74,2.17,4.23,4.23,0,0,1-.6,3.41,4.17,4.17,0,0,1-2.71,1.52,8.39,8.39,0,0,1-4.48-.6,26.87,26.87,0,0,1-4.93-2.65c-1.68-1.14-3.33-2.34-5-3.62s-3.17-2.44-4.63-3.48Z"/><path class="cls-4" d="M193.9,121.42a.32.32,0,0,1-.31-.17.34.34,0,0,1,0-.3.3.3,0,0,1,.28-.21,4,4,0,0,0,1.35-.45,1.2,1.2,0,0,0,.61-1.07l.65-12.42a.64.64,0,0,0-.26-.56,2.64,2.64,0,0,0-.67-.4,2.86,2.86,0,0,0-.68-.21c-.22,0-.3-.17-.24-.37a.23.23,0,0,1,.2-.19l.24,0h11.13a.62.62,0,0,1,.45.14.66.66,0,0,1,.11.52l-.14,2.52a1.05,1.05,0,0,1,0,.18.29.29,0,0,1-.15.21.33.33,0,0,1-.26,0,.42.42,0,0,1-.17-.14,5.64,5.64,0,0,0-.52-1.59,1.4,1.4,0,0,0-.88-.67,7.24,7.24,0,0,0-1.71-.16h-5.44a.81.81,0,0,1,.56.35.89.89,0,0,1,.13.53l-.32,5.86h3.32a3.07,3.07,0,0,0,1.27-.23,1.78,1.78,0,0,0,.78-.82.31.31,0,0,1,.41-.17.21.21,0,0,1,.17.17,1,1,0,0,1,0,.22l-.15,2.61a1.8,1.8,0,0,1,0,.22.24.24,0,0,1-.17.17.31.31,0,0,1-.42-.17,2,2,0,0,0-2-1h-3.27l-.29,5.49a1.06,1.06,0,0,0,.56,1.09,4.14,4.14,0,0,0,1.27.43.34.34,0,0,1,.27.18.48.48,0,0,1,0,.31c-.05.13-.19.19-.42.19Z"/><path class="cls-4" d="M209.38,120.25l.51-8.69s0,0-.11,0a1.39,1.39,0,0,0-.33.13,1.21,1.21,0,0,1-1.61-.19l1-.67,1.11-.75a3.43,3.43,0,0,1,.69-.39.75.75,0,0,1,.59,0,.41.41,0,0,1,.22.44l-.54,9.47a1.12,1.12,0,0,0,.09.55.48.48,0,0,0,.5.26,1.4,1.4,0,0,0,.62-.22,2.27,2.27,0,0,0,.67-.61.27.27,0,0,1,.31-.13c.12,0,.16.14.13.3a2.66,2.66,0,0,1-.82,1.4,2.19,2.19,0,0,1-1.57.65,1.29,1.29,0,0,1-1.1-.48A1.57,1.57,0,0,1,209.38,120.25Zm-.39-15c-.05-.16,0-.28.22-.36a1.52,1.52,0,0,1,.75,0,2.68,2.68,0,0,1,.91.32,1.43,1.43,0,0,1,.63.68.94.94,0,0,1-.14.94,1.45,1.45,0,0,1-.81.6,1.73,1.73,0,0,1-.65,0,.52.52,0,0,1-.47-.49,4.39,4.39,0,0,0-.1-.66A5.38,5.38,0,0,0,209,105.24Z"/><path class="cls-4" d="M217.24,112.2a1.49,1.49,0,0,0,.4,1.08,3.76,3.76,0,0,0,1.09.77l1.46.76c.55.27,1.12.57,1.71.89a5,5,0,0,1,1.46,1.17,2.43,2.43,0,0,1,.54,1.77,2.74,2.74,0,0,1-.66,1.72,4.25,4.25,0,0,1-1.65,1.2,5.57,5.57,0,0,1-2.23.4,5.2,5.2,0,0,1-2.49-.59,4.2,4.2,0,0,1-1.52-1.35,3.12,3.12,0,0,1-.58-1.48c0-.53.3-.85,1-1,.52-.08.86,0,1,.24a.35.35,0,0,1,0,.39c-.08.15-.15.31-.24.49a2.57,2.57,0,0,0,1.31,1.93,3.51,3.51,0,0,0,3.63-.25,2.15,2.15,0,0,0,.83-1.6,1.51,1.51,0,0,0-.46-1.19,4.56,4.56,0,0,0-1.2-.8l-1.49-.75-1.53-.84a4.49,4.49,0,0,1-1.34-1.14,2.74,2.74,0,0,1,.08-3.35,3.79,3.79,0,0,1,1.59-1.09,5.51,5.51,0,0,1,2.22-.34,4.19,4.19,0,0,1,2,.5,3.66,3.66,0,0,1,1.16,1,2.13,2.13,0,0,1,.42.93,1.49,1.49,0,0,1-.09.53,1.14,1.14,0,0,1-.67.59,1,1,0,0,1-.59.11.31.31,0,0,1-.31-.28.71.71,0,0,1,0-.35,2.21,2.21,0,0,1,.16-.35.94.94,0,0,0-.17-.59,2.31,2.31,0,0,0-.73-.78,2.34,2.34,0,0,0-1.37-.39,3,3,0,0,0-2,.55A1.86,1.86,0,0,0,217.24,112.2Z"/><path class="cls-4" d="M227.32,120.25l.51-8.69s-.05,0-.11,0a1.39,1.39,0,0,0-.33.13,1.21,1.21,0,0,1-1.61-.19l1-.67,1.11-.75a3.43,3.43,0,0,1,.69-.39.75.75,0,0,1,.59,0,.41.41,0,0,1,.22.44l-.54,9.47a1.12,1.12,0,0,0,.09.55.48.48,0,0,0,.5.26,1.4,1.4,0,0,0,.62-.22,2.27,2.27,0,0,0,.67-.61.27.27,0,0,1,.31-.13c.12,0,.16.14.13.3a2.66,2.66,0,0,1-.82,1.4,2.19,2.19,0,0,1-1.57.65,1.29,1.29,0,0,1-1.1-.48A1.57,1.57,0,0,1,227.32,120.25Zm-.39-15c-.05-.16,0-.28.22-.36a1.52,1.52,0,0,1,.75,0,2.68,2.68,0,0,1,.91.32,1.43,1.43,0,0,1,.63.68.94.94,0,0,1-.14.94,1.45,1.45,0,0,1-.81.6,1.73,1.73,0,0,1-.65,0,.52.52,0,0,1-.47-.49,3.37,3.37,0,0,0-.1-.66A4.73,4.73,0,0,0,226.93,105.24Z"/><path class="cls-4" d="M237.91,121.67a4.73,4.73,0,0,1-2.62-.77,5,5,0,0,1-1.82-2.16,6.39,6.39,0,0,1-.49-3.2,7.63,7.63,0,0,1,1-3.17,6.09,6.09,0,0,1,2.11-2.14,5.52,5.52,0,0,1,2.86-.77,4.73,4.73,0,0,1,2.62.77,5.26,5.26,0,0,1,1.86,2.14,5.84,5.84,0,0,1,.5,3.17,7.29,7.29,0,0,1-1,3.2,6.18,6.18,0,0,1-2.15,2.16A5.58,5.58,0,0,1,237.91,121.67Zm-3.24-6.13a6.67,6.67,0,0,0,.38,2.6,4.22,4.22,0,0,0,1.24,1.88,2.88,2.88,0,0,0,1.92.69,3.09,3.09,0,0,0,2-.69,4.92,4.92,0,0,0,1.43-1.88,6.57,6.57,0,0,0,.6-2.6,6.2,6.2,0,0,0-.37-2.58,4.51,4.51,0,0,0-1.24-1.85,2.8,2.8,0,0,0-1.91-.7,3.09,3.09,0,0,0-2,.7,4.77,4.77,0,0,0-1.43,1.85A7,7,0,0,0,234.67,115.54Z"/><path class="cls-4" d="M247.09,119l.34-8.13c-.36,0-.63,0-.82.06a2.82,2.82,0,0,0-.52.11.71.71,0,0,0-.44.29.23.23,0,0,1-.28.1c-.12,0-.18-.13-.16-.29l.1-1c0-.17.15-.26.36-.26h1.81l.1-2.32a1.41,1.41,0,0,1,.34-.94,1.46,1.46,0,0,1,1.2-.31l-.15,3.57h2.91c.22,0,.32.09.29.26l-.1,1c0,.16-.08.26-.18.29a.22.22,0,0,1-.26-.1.68.68,0,0,0-.44-.29,2.62,2.62,0,0,0-.74-.15l-1.53,0-.34,7.74a1.83,1.83,0,0,0,.33,1.3,1.29,1.29,0,0,0,.91.45,2.4,2.4,0,0,0,1.14-.22,2.94,2.94,0,0,0,1-.66.28.28,0,0,1,.36,0,.27.27,0,0,1,.11.37,2.91,2.91,0,0,1-1.17,1.34,3.31,3.31,0,0,1-1.84.56,2.63,2.63,0,0,1-1-.24,2.18,2.18,0,0,1-.94-.85A2.81,2.81,0,0,1,247.09,119Z"/><path class="cls-4" d="M259.44,120.49a3.82,3.82,0,0,0,1.75-.24,4.22,4.22,0,0,0,1.3-.81,4.15,4.15,0,0,0,.78-.87.55.55,0,0,1,.41-.27.51.51,0,0,1,.47.14,4.59,4.59,0,0,1-.36.77,5,5,0,0,1-2.32,2.05,5,5,0,0,1-2.08.41,5.58,5.58,0,0,1-2.8-.71,5,5,0,0,1-1.94-2,5.64,5.64,0,0,1-.65-2.92,6.72,6.72,0,0,1,.66-2.81,7.07,7.07,0,0,1,1.56-2.11,6.79,6.79,0,0,1,2.1-1.31,5.92,5.92,0,0,1,2.25-.46,3.94,3.94,0,0,1,1.72.33,3.29,3.29,0,0,1,1.06.8,3.07,3.07,0,0,1,.55.91,2.53,2.53,0,0,1,.16.75,2.85,2.85,0,0,1-.6,1.75,5.45,5.45,0,0,1-1.59,1.4,8.38,8.38,0,0,1-2.21.89,10.35,10.35,0,0,1-2.49.3c-.29,0-.49-.08-.58-.26a.55.55,0,0,1-.08-.47,7.46,7.46,0,0,0,1.92-.27,9.9,9.9,0,0,0,1.92-.74,5.72,5.72,0,0,0,1.47-1.08,1.81,1.81,0,0,0,.58-1.23,2,2,0,0,0-.58-1.5,2.13,2.13,0,0,0-1.5-.6,3.46,3.46,0,0,0-2.23.73,5.52,5.52,0,0,0-1.59,2,6.83,6.83,0,0,0-.67,2.67,5.94,5.94,0,0,0,.35,2.3,3.91,3.91,0,0,0,1.24,1.71A3.57,3.57,0,0,0,259.44,120.49Z"/><path class="cls-4" d="M265.64,111.27l1-.67,1.11-.75a3.4,3.4,0,0,1,.7-.39.76.76,0,0,1,.61,0,.42.42,0,0,1,.24.46l-.29,5.85a10.15,10.15,0,0,1,1.11-3.19,8.25,8.25,0,0,1,1.67-2.14,4.38,4.38,0,0,1,1.59-1,.66.66,0,0,1,.48,0,1.35,1.35,0,0,1,.37.3,1.63,1.63,0,0,1,.42,1,.52.52,0,0,1-.47.63.58.58,0,0,1-.32,0l-.28-.11a2.16,2.16,0,0,0-1.4.54,6.39,6.39,0,0,0-1.51,1.77,12.44,12.44,0,0,0-1.26,2.9,16.27,16.27,0,0,0-.62,4,1.15,1.15,0,0,1-.37.9,1.57,1.57,0,0,1-1.17.17l.49-10.13a.23.23,0,0,0-.15,0,.92.92,0,0,0-.29.13A1.27,1.27,0,0,1,265.64,111.27Z"/><path class="cls-4" d="M279.31,121.76a3.68,3.68,0,0,1-1.95-.57,4.24,4.24,0,0,1-1.51-1.67,5.53,5.53,0,0,1-.59-2.64,7.48,7.48,0,0,1,.5-2.67,8.09,8.09,0,0,1,1.38-2.36,6.85,6.85,0,0,1,2-1.68,5.14,5.14,0,0,1,2.5-.64A5,5,0,0,1,284,110a4.52,4.52,0,0,1,1.28.84l-.29,8.74a1,1,0,0,0,.09.55c.07.17.24.25.5.25a1.29,1.29,0,0,0,.62-.22,2.26,2.26,0,0,0,.67-.61.27.27,0,0,1,.3-.12c.13,0,.17.13.14.29a2.65,2.65,0,0,1-.82,1.41,2.19,2.19,0,0,1-1.57.64,1.31,1.31,0,0,1-1.1-.47,1.54,1.54,0,0,1-.34-1.06l.09-2.54a7.41,7.41,0,0,1-.85,1.88,5.43,5.43,0,0,1-1.44,1.57A3.16,3.16,0,0,1,279.31,121.76ZM277,116.91a5.38,5.38,0,0,0,.29,1.74,3.38,3.38,0,0,0,.88,1.38,2,2,0,0,0,1.42.54,2.31,2.31,0,0,0,1.44-.54,5.47,5.47,0,0,0,1.23-1.4,8.69,8.69,0,0,0,.89-1.87,7,7,0,0,0,.39-1.93l.1-2.17a3.27,3.27,0,0,0,0-.64,1.23,1.23,0,0,0-.16-.43,2.2,2.2,0,0,0-.83-.76,2.55,2.55,0,0,0-1.27-.32,3,3,0,0,0-1.84.61,5.09,5.09,0,0,0-1.38,1.59,8.67,8.67,0,0,0-1.15,4.2Z"/><path class="cls-4" d="M291.25,124.28l-.05,1.17a1.71,1.71,0,0,1-.33,1.06c-.2.24-.62.32-1.26.26l.49-12.45a11.72,11.72,0,0,0-1.2,2.64.48.48,0,0,1-.31-.19c-.12-.12-.13-.34,0-.67a10.34,10.34,0,0,1,1.61-3.39l.1-2.37a.91.91,0,0,1,.5-.88.94.94,0,0,1,1,0l0,1.66a6.81,6.81,0,0,1,2-1.27,4.19,4.19,0,0,1,2.05-.3,3.71,3.71,0,0,1,2.3,1,5.2,5.2,0,0,1,1.29,2.27,7.43,7.43,0,0,1,.2,3,7.27,7.27,0,0,1-.78,2.6,7.49,7.49,0,0,1-1.57,2,4.94,4.94,0,0,1-2,1.12,5.12,5.12,0,0,1-1.56.11,2.82,2.82,0,0,1-1.47-.48c-.17-.13-.26-.27-.24-.41a.71.71,0,0,1,.1-.32,2.67,2.67,0,0,0,1.51.42,3.23,3.23,0,0,0,1.74-.54,5.21,5.21,0,0,0,1.59-1.64,6.29,6.29,0,0,0,.92-2.56,7.21,7.21,0,0,0-.05-2.51,4.43,4.43,0,0,0-.85-1.9,2.46,2.46,0,0,0-1.54-.89,3.1,3.1,0,0,0-1.86.26,6.35,6.35,0,0,0-1.88,1.31Z"/><path class="cls-4" d="M306.85,120.49a3.76,3.76,0,0,0,1.74-.24,4.4,4.4,0,0,0,1.31-.81,4.45,4.45,0,0,0,.78-.87.51.51,0,0,1,.4-.27.52.52,0,0,1,.48.14,4.09,4.09,0,0,1-.37.77,4.51,4.51,0,0,1-.87,1.09,5,5,0,0,1-3.52,1.37A5.61,5.61,0,0,1,304,121a5,5,0,0,1-1.94-2,5.74,5.74,0,0,1-.65-2.92,6.72,6.72,0,0,1,.66-2.81,7.24,7.24,0,0,1,1.56-2.11,7,7,0,0,1,2.1-1.31,6,6,0,0,1,2.25-.46,3.91,3.91,0,0,1,1.72.33,3.18,3.18,0,0,1,1.06.8,3.07,3.07,0,0,1,.55.91,2.25,2.25,0,0,1,.16.75,2.85,2.85,0,0,1-.6,1.75,5.45,5.45,0,0,1-1.59,1.4,8.31,8.31,0,0,1-2.2.89,10.47,10.47,0,0,1-2.49.3.6.6,0,0,1-.59-.26.54.54,0,0,1-.07-.47,7.39,7.39,0,0,0,1.91-.27,9.43,9.43,0,0,0,1.92-.74,6,6,0,0,0,1.48-1.08,1.79,1.79,0,0,0,.57-1.23,2,2,0,0,0-.57-1.5,2.17,2.17,0,0,0-1.51-.6,3.46,3.46,0,0,0-2.23.73,5.52,5.52,0,0,0-1.59,2,7,7,0,0,0-.67,2.67,5.76,5.76,0,0,0,.36,2.3,4,4,0,0,0,1.23,1.71A3.6,3.6,0,0,0,306.85,120.49Z"/><path class="cls-4" d="M317.29,121.76a3.31,3.31,0,0,1-1.22-.26,2.26,2.26,0,0,1-1-.93,3.19,3.19,0,0,1-.32-1.83l.41-7.2s-.06,0-.12,0a1.41,1.41,0,0,0-.34.14,1.21,1.21,0,0,1-1.61-.2l1-.67,1.09-.74a3.18,3.18,0,0,1,.69-.39.73.73,0,0,1,.6,0,.44.44,0,0,1,.23.45l-.47,8.59a1.62,1.62,0,0,0,.42,1.17,1.71,1.71,0,0,0,1.29.52,3.41,3.41,0,0,0,2.24-1,6.87,6.87,0,0,0,1.84-3.15,9.15,9.15,0,0,0,.22-1.08c.06-.45.1-.85.12-1.19l.17-3.07a1.76,1.76,0,0,1,.38-1.13,1.37,1.37,0,0,1,1.16-.24l-.39,10a1.14,1.14,0,0,0,.08.55.49.49,0,0,0,.5.25,1.35,1.35,0,0,0,.64-.22,2.07,2.07,0,0,0,.68-.61.27.27,0,0,1,.3-.12c.11,0,.15.13.12.29a2.65,2.65,0,0,1-.82,1.41,2.19,2.19,0,0,1-1.57.64,1.31,1.31,0,0,1-1.1-.47,1.54,1.54,0,0,1-.34-1.06l.07-2.64a7,7,0,0,1-1.14,2.07,5.9,5.9,0,0,1-1.71,1.53A4,4,0,0,1,317.29,121.76Z"/><path class="cls-4" d="M328.81,119l.35-8.13c-.36,0-.63,0-.82.06a2.93,2.93,0,0,0-.53.11.71.71,0,0,0-.44.29.23.23,0,0,1-.28.1c-.12,0-.17-.13-.16-.29l.1-1c0-.17.16-.26.37-.26h1.81l.09-2.32a1.2,1.2,0,0,1,1.54-1.25l-.15,3.57h2.91c.23,0,.32.09.29.26l-.1,1c0,.16-.07.26-.18.29a.22.22,0,0,1-.26-.1c0-.11-.19-.21-.43-.29a2.69,2.69,0,0,0-.75-.15l-1.53,0-.34,7.74a1.93,1.93,0,0,0,.33,1.3,1.31,1.31,0,0,0,.92.45,2.33,2.33,0,0,0,1.13-.22,3.09,3.09,0,0,0,1-.66.27.27,0,0,1,.35,0,.26.26,0,0,1,.11.37,2.91,2.91,0,0,1-1.17,1.34,3.31,3.31,0,0,1-1.83.56,2.68,2.68,0,0,1-1-.24,2.23,2.23,0,0,1-.94-.85A2.81,2.81,0,0,1,328.81,119Z"/><path class="cls-4" d="M339.53,121.76a3.68,3.68,0,0,1-1.95-.57,4.26,4.26,0,0,1-1.52-1.67,5.53,5.53,0,0,1-.58-2.64,7.27,7.27,0,0,1,.5-2.67,8.09,8.09,0,0,1,1.38-2.36,6.85,6.85,0,0,1,2-1.68,5.14,5.14,0,0,1,2.5-.64,5,5,0,0,1,2.28.46,4.52,4.52,0,0,1,1.28.84l-.29,8.74a1.14,1.14,0,0,0,.08.55.49.49,0,0,0,.5.25,1.32,1.32,0,0,0,.63-.22,2.26,2.26,0,0,0,.67-.61.27.27,0,0,1,.3-.12c.12,0,.17.13.14.29a2.65,2.65,0,0,1-.82,1.41,2.2,2.2,0,0,1-1.58.64,1.3,1.3,0,0,1-1.09-.47,1.6,1.6,0,0,1-.35-1.06l.1-2.54a7.77,7.77,0,0,1-.85,1.88,5.43,5.43,0,0,1-1.44,1.57A3.16,3.16,0,0,1,339.53,121.76Zm-2.27-4.85a5.38,5.38,0,0,0,.29,1.74,3.38,3.38,0,0,0,.88,1.38,2,2,0,0,0,1.42.54,2.31,2.31,0,0,0,1.44-.54,5.67,5.67,0,0,0,1.23-1.4,8.69,8.69,0,0,0,.89-1.87,7,7,0,0,0,.39-1.93l.1-2.17a3.27,3.27,0,0,0,0-.64,1.23,1.23,0,0,0-.16-.43,2.2,2.2,0,0,0-.83-.76,2.58,2.58,0,0,0-1.27-.32,3,3,0,0,0-1.84.61,5.09,5.09,0,0,0-1.38,1.59,8.67,8.67,0,0,0-1.15,4.2Z"/><rect class="cls-5" width="450.34" height="160.24"/></g></g></svg>