<svg xmlns="http://www.w3.org/2000/svg" viewBox="0 0 109.25 138.98"><title>pessoa</title><g id="Layer_2" data-name="Layer 2"><g id="Layer_1-2" data-name="Layer 1"><path d="M109.22,100.05a31.61,31.61,0,0,0-.39-5.67A29.75,29.75,0,0,0,79.05,69.49H30.2a29.85,29.85,0,0,0-30.15,30c0,11.08.06,22.17,0,33.25,0,3,1,5.12,3.87,6.22H105.39c2.85-1.11,3.89-3.18,3.86-6.22C109.15,121.86,109.21,111,109.22,100.05Zm-9.88,27.88c0,1.11-.5,1.11-1.31,1.1H54.62q-21.65,0-43.28,0c-1.1,0-1.43-.25-1.43-1.4.05-9.32,0-18.63,0-27.95A19.78,19.78,0,0,1,30.14,79.45q24.49,0,49,0A19.71,19.71,0,0,1,99.29,99.31C99.41,108.85,99.29,118.39,99.34,127.93Z"/><path d="M54.63,59.53A29.77,29.77,0,1,0,24.82,29.71,29.79,29.79,0,0,0,54.63,59.53Zm0-49.58A19.85,19.85,0,1,1,34.79,29.73,19.78,19.78,0,0,1,54.64,10Z"/></g></g></svg>