<?xml version="1.0" encoding="UTF-8"?>
<svg id="Layer_2" data-name="Layer 2" xmlns="http://www.w3.org/2000/svg" viewBox="0 0 94.12 92.58">
  <defs>
    <style>
      .cls-1 {
        fill: #fff;
      }

      .cls-2 {
        fill: #bc155b;
      }

      .cls-3 {
        fill: #8c1043;
      }

      .cls-4 {
        fill: #ff5c9c;
      }
    </style>
  </defs>
  <g id="traço">
    <g>
      <path class="cls-1" d="M89.06,56.5c-1.4,20.7-18.4,29.3-41.5,30.3-21.3.9-42.5-16.4-42.5-37.7S24.76,6.1,46.16,6.1c25.4,0,44.6,25.8,42.9,50.4h0Z"/>
      <path class="cls-1" d="M71.86,7.5c22,15.7,31.9,54,9.9,73.6-12.6,11.1-31.2,14.2-47,9.1,19.2,6.1,41.5-.7,51.5-18.6,12.5-20.3,3.7-50-14.4-64.1h0Z"/>
      <path class="cls-1" d="M10.56,73.5C-.34,60.3-3.64,42.3,4.66,26.9c2.2-4.3,5-8.2,8.4-11.6,3.5-3.3,7.3-6.2,11.5-8.6C34.86.9,47.36-1.8,58.76,1.3,40.16-2.3,21.56,7.9,10.36,22.3c-12.6,15.7-11.6,35.4.2,51.2Z"/>
    </g>
    <path class="cls-3" d="M25.46,46.9s1.5-1.3,5.9,4.3c4.4,5.6,8.3,2.8,8.3,2.8l-5.5,5.9-5.1-4.1-3.6-8.9h0Z"/>
    <path class="cls-3" d="M23.16,45.8s1.5-.9,4.8,3.2c3.4,4.1,4,6.5,7,5.9,2.9-.6-.7,3-.7,3l-6.6-4.8-4.3-5.4-.2-1.9h0Z"/>
    <path id="baby" class="cls-4" d="M26.96,48.3c-4-1.3-7.1-4.6-8.1-8.7-1.6-5.9,1.8-9.9,4.3-11.9,2-1.7,6.6-3.2,9.2-2.7,2.9.5,5.1,2.7,5.8,5.6.9,3.1.9,3.2,1.8,3.6,1.5.6,2.4,5,.7,8.3-1.7,3,0,3.3,1.8,3.1,4.8-.5,7.5-11.9,11.9-9.3,3.6,2.1-.2,8-2.4,11.5-3.1,4.9,2.9,3.5,4.7,1.1,2.5-3.4,5.8-6.8,9.7-5.6,3.3,1.1,4.7,8,4.9,9.5.3,2.8,3.6,1.6,4.2,5,.6,3.1-1.5,5.6-8.8,3.1-2.1-.7-1.8-3.2-2.4-5.1s-3.8,8.6-8.9,10c-6.6,1.8-13-1.9-18.7-4.2-3.8-1.5-6.9-6.3-7.3-9.5-.3-2.6,0-3.1-2.4-3.8Z"/>
    <path class="cls-2" d="M71.36,65.8c-1.3,1.2-3.2,1.5-4.9.9-1.6-.8-3.3-1-5-.7-4.1.9-8.3,1.5-12.5,1.8-4.1.1-10.9-2.8-14.6-4.1-3.7-1.2-5-4.2-6.9-6.1-1.3-1.4-2.4-3-3.3-4.7-1.4-2.3-2.5-4.8-3.3-7.4-.1-1.1,1.9-.6,2.6.4,1.3,1.6,3,5.1,4.3,6.2,1,.9,2,1.9,2.9,2.9,1.1,1.1,3.8,2.3,6.1,3.2,1.3.4,2.6.7,3.9.9,1.3,1.4,5,4.7,8.1,4.7,2.1.1,4.3-.3,6.2-1.2-2.2.6-4.5.8-6.8.6-1.4-.2-3.2-.8-6.6-4,2.3.2,4.6,0,5.9-.9,2.3-1.5,15-2.7,16.6-1.7,1.7.9,2.9,1.6,3.5,1.9,1.3.7,1.8-.4,3.5,1.8,1.2,1.6,1.3,3.8.3,5.5Z"/>
    <path class="cls-2" d="M57.46,56.4c-2.3-.9-7.7-.2-8.6,0-.8.2-3.6.2-4.5-.8-1.6-1.5-3.4-2.7-5.4-3.5-1.7-.7-4,1.4-2.2,2.7,1.5,1,2.9,2.3,4.1,3.6,1.5,1.5,2.6,3.5,7.9,3.5,3.1,0,4.4.2,6-.1,4-.7,5.3-4.5,2.7-5.4h0Z"/>
  </g>
</svg>